<?xml version="1.0" encoding="UTF-8"?>
<svg xmlns="http://www.w3.org/2000/svg" xmlns:xlink="http://www.w3.org/1999/xlink" width="762.58pt" height="77.73pt" viewBox="0 0 762.58 77.73" version="1.1">
<defs>
<clipPath id="clip1">
  <path d="M 0 0 L 94 0 L 94 77.730469 L 0 77.730469 Z M 0 0 "/>
</clipPath>
<clipPath id="clip2">
  <path d="M 44 0 L 137 0 L 137 77.730469 L 44 77.730469 Z M 44 0 "/>
</clipPath>
<clipPath id="clip3">
  <path d="M 715 20 L 762.578125 20 L 762.578125 67 L 715 67 Z M 715 20 "/>
</clipPath>
</defs>
<g id="surface1">
<path style=" stroke:none;fill-rule:nonzero;fill:rgb(0%,21.199036%,43.099976%);fill-opacity:1;" d="M 80.34375 65.070313 C 94.722656 65.070313 106.378906 57.664063 106.378906 48.527344 C 106.378906 41.539063 99.550781 35.5625 89.910156 33.140625 C 86.601563 44.394531 73.0625 52.59375 56.382813 52.59375 C 55.953125 52.59375 55.527344 52.582031 55.101563 52.574219 C 57.941406 59.753906 68.164063 65.070313 80.34375 65.070313 "/>
<path style=" stroke:none;fill-rule:nonzero;fill:rgb(0%,21.199036%,43.099976%);fill-opacity:1;" d="M 81.550781 32.003906 C 81.152344 31.992188 80.75 31.984375 80.34375 31.984375 C 68.269531 31.984375 58.113281 37.210938 55.175781 44.300781 C 55.574219 44.3125 55.976563 44.320313 56.382813 44.320313 C 68.460938 44.320313 78.613281 39.089844 81.550781 32.003906 "/>
<path style=" stroke:none;fill-rule:nonzero;fill:rgb(0%,21.199036%,43.099976%);fill-opacity:1;" d="M 56.382813 11.234375 C 42.003906 11.234375 30.351563 18.640625 30.351563 27.777344 C 30.351563 34.765625 37.175781 40.738281 46.816406 43.160156 C 50.121094 31.910156 63.664063 23.707031 80.34375 23.707031 C 80.777344 23.707031 81.199219 23.722656 81.625 23.730469 C 78.785156 16.550781 68.5625 11.234375 56.382813 11.234375 "/>
<g clip-path="url(#clip1)" clip-rule="nonzero">
<path style=" stroke:none;fill-rule:nonzero;fill:rgb(0%,21.199036%,43.099976%);fill-opacity:1;" d="M 90.351563 77.730469 L 93.667969 71.46875 C 89.589844 72.679688 85.09375 73.347656 80.347656 73.347656 C 62.519531 73.347656 48.285156 63.984375 46.289063 51.539063 C 32.125 48.492188 22.074219 39.140625 22.074219 27.777344 C 22.074219 22.828125 23.988281 18.261719 26.085938 14.429688 L 32.765625 0 L 26.945313 0 L 1.695313 53.078125 C -3.75 64.519531 4.59375 77.730469 17.265625 77.730469 "/>
</g>
<g clip-path="url(#clip2)" clip-rule="nonzero">
<path style=" stroke:none;fill-rule:nonzero;fill:rgb(0%,21.199036%,43.099976%);fill-opacity:1;" d="M 119.777344 0 L 46.339844 0 C 46.367188 0.0625 46.386719 0.0976563 46.386719 0.0976563 L 44.007813 4.566406 C 47.832031 3.527344 51.996094 2.957031 56.382813 2.957031 C 74.207031 2.957031 88.441406 12.316406 90.441406 24.761719 C 104.601563 27.8125 114.652344 37.164063 114.652344 48.527344 C 114.652344 52.472656 113.441406 56.171875 112.0625 59.453125 L 103.601563 77.730469 L 110.023438 77.730469 L 135.308594 24.585938 C 140.738281 13.175781 132.414063 0 119.777344 0 "/>
</g>
<path style=" stroke:none;fill-rule:nonzero;fill:rgb(0%,21.199036%,43.099976%);fill-opacity:1;" d="M 178.429688 38.148438 L 179.414063 38.148438 C 182.21875 38.148438 184.152344 37.777344 185.21875 37.03125 C 186.28125 36.285156 186.8125 35.027344 186.8125 33.257813 C 186.8125 31.984375 186.382813 31.054688 185.515625 30.46875 C 184.652344 29.882813 183.265625 29.585938 181.355469 29.585938 L 179.714844 29.585938 Z M 175.566406 56.347656 L 176.96875 56.347656 C 180.507813 56.347656 182.859375 55.921875 184.023438 55.066406 C 185.1875 54.210938 185.769531 52.707031 185.769531 50.558594 C 185.769531 48.96875 185.273438 47.835938 184.277344 47.160156 C 183.28125 46.484375 181.601563 46.144531 179.234375 46.144531 L 177.148438 46.144531 Z M 188.632813 42.175781 C 191.417969 42.695313 193.539063 43.800781 195.003906 45.503906 C 196.464844 47.203125 197.195313 49.394531 197.195313 52.082031 C 197.195313 54.308594 196.703125 56.367188 195.71875 58.257813 C 194.734375 60.144531 193.378906 61.628906 191.644531 62.703125 C 190.371094 63.5 188.777344 64.0625 186.859375 64.402344 C 184.9375 64.742188 181.742188 64.910156 177.269531 64.910156 L 162.859375 64.910156 L 169.808594 21.234375 L 179.714844 21.234375 C 183.511719 21.234375 186.226563 21.324219 187.855469 21.503906 C 189.488281 21.683594 190.851563 22 191.945313 22.457031 C 193.753906 23.171875 195.191406 24.355469 196.253906 26.007813 C 197.320313 27.660156 197.851563 29.527344 197.851563 31.617188 C 197.851563 34.5 197.03125 36.882813 195.390625 38.761719 C 193.75 40.640625 191.496094 41.78125 188.632813 42.175781 "/>
<path style=" stroke:none;fill-rule:nonzero;fill:rgb(0%,21.199036%,43.099976%);fill-opacity:1;" d="M 216.378906 46.949219 L 225.597656 46.949219 L 223.597656 36.75 C 223.398438 35.734375 223.25 34.828125 223.148438 34.03125 C 223.050781 33.238281 222.988281 32.492188 222.972656 31.796875 C 222.554688 32.988281 222.171875 34.039063 221.820313 34.941406 C 221.472656 35.847656 221.199219 36.519531 221.003906 36.957031 Z M 195.105469 64.910156 L 216.972656 21.234375 L 231.59375 21.234375 L 240.871094 64.910156 L 229.027344 64.910156 L 227.265625 56.675781 L 211.992188 56.675781 L 207.816406 64.910156 "/>
<path style=" stroke:none;fill-rule:nonzero;fill:rgb(0%,21.199036%,43.099976%);fill-opacity:1;" d="M 241.972656 64.910156 L 248.867188 21.234375 L 262.199219 21.234375 L 271.417969 42.804688 C 271.5 42.984375 271.628906 43.292969 271.808594 43.726563 C 272.820313 46.097656 273.527344 48.164063 273.925781 49.933594 L 273.925781 48.828125 C 273.925781 48.035156 273.96875 47.15625 274.058594 46.1875 C 274.148438 45.226563 274.28125 44.054688 274.460938 42.683594 L 277.832031 21.234375 L 289.496094 21.234375 L 282.605469 64.910156 L 269.777344 64.910156 L 259.992188 42.683594 C 259.277344 41.074219 258.734375 39.742188 258.367188 38.6875 C 258 37.632813 257.683594 36.578125 257.425781 35.523438 L 257.425781 36.746094 C 257.425781 37.542969 257.390625 38.382813 257.324219 39.269531 C 257.253906 40.152344 257.128906 41.332031 256.949219 42.804688 L 253.636719 64.910156 "/>
<path style=" stroke:none;fill-rule:nonzero;fill:rgb(0%,21.199036%,43.099976%);fill-opacity:1;" d="M 329.949219 23.292969 L 327.980469 35.34375 C 326.3125 33.894531 324.492188 32.792969 322.523438 32.046875 C 320.554688 31.304688 318.503906 30.929688 316.378906 30.929688 C 312.757813 30.929688 309.773438 32.191406 307.429688 34.71875 C 305.082031 37.246094 303.90625 40.464844 303.90625 44.382813 C 303.90625 47.925781 304.890625 50.664063 306.859375 52.601563 C 308.828125 54.542969 311.613281 55.511719 315.214844 55.511719 C 316.765625 55.511719 318.359375 55.324219 320.003906 54.945313 C 321.640625 54.566406 323.367188 54 325.179688 53.246094 L 323.359375 64.550781 C 321.867188 65.027344 320.222656 65.390625 318.421875 65.640625 C 316.621094 65.890625 314.675781 66.011719 312.589844 66.011719 C 306.363281 66.011719 301.375 64.085938 297.628906 60.226563 C 293.878906 56.367188 292.003906 51.246094 292.003906 44.863281 C 292.003906 41.78125 292.484375 38.839844 293.449219 36.046875 C 294.414063 33.253906 295.832031 30.710938 297.703125 28.425781 C 299.890625 25.757813 302.617188 23.71875 305.890625 22.308594 C 309.160156 20.898438 312.828125 20.191406 316.886719 20.191406 C 319.191406 20.191406 321.429688 20.449219 323.597656 20.964844 C 325.765625 21.484375 327.882813 22.257813 329.949219 23.292969 "/>
<path style=" stroke:none;fill-rule:nonzero;fill:rgb(0%,21.199036%,43.099976%);fill-opacity:1;" d="M 355.277344 30.929688 C 351.71875 30.929688 348.734375 32.210938 346.328125 34.777344 C 343.921875 37.34375 342.71875 40.527344 342.71875 44.324219 C 342.71875 47.6875 343.679688 50.371094 345.597656 52.378906 C 347.515625 54.386719 350.078125 55.394531 353.28125 55.394531 C 356.78125 55.394531 359.753906 54.066406 362.199219 51.410156 C 364.644531 48.753906 365.867188 45.519531 365.867188 41.699219 C 365.867188 38.558594 364.875 35.976563 362.886719 33.957031 C 360.898438 31.941406 358.359375 30.929688 355.277344 30.929688 M 352.59375 66.074219 C 349.472656 66.074219 346.632813 65.644531 344.078125 64.789063 C 341.519531 63.933594 339.25 62.652344 337.261719 60.941406 C 335.171875 59.113281 333.539063 56.855469 332.367188 54.167969 C 331.195313 51.484375 330.609375 48.628906 330.609375 45.609375 C 330.609375 42.347656 331.109375 39.296875 332.113281 36.464844 C 333.117188 33.628906 334.613281 31.058594 336.605469 28.753906 C 338.929688 26.007813 341.769531 23.90625 345.121094 22.441406 C 348.472656 20.980469 352.105469 20.25 356.023438 20.25 C 362.589844 20.25 367.890625 22.140625 371.941406 25.917969 C 375.988281 29.699219 378.011719 34.609375 378.011719 40.65625 C 378.011719 43.898438 377.5 46.945313 376.476563 49.800781 C 375.449219 52.65625 373.953125 55.222656 371.984375 57.511719 C 369.578125 60.316406 366.734375 62.445313 363.453125 63.894531 C 360.171875 65.347656 356.550781 66.074219 352.59375 66.074219 "/>
<path style=" stroke:none;fill-rule:nonzero;fill:rgb(0%,21.199036%,43.099976%);fill-opacity:1;" d="M 411.125 55.183594 C 411.9375 55.246094 412.539063 55.28125 412.929688 55.289063 C 413.316406 55.296875 413.679688 55.304688 414.019531 55.304688 C 418.691406 55.304688 422.242188 54.128906 424.667969 51.785156 C 427.097656 49.4375 428.308594 45.996094 428.308594 41.460938 C 428.308594 37.761719 427.421875 35.074219 425.652344 33.390625 C 423.882813 31.710938 421.019531 30.871094 417.0625 30.871094 L 414.855469 30.871094 Z M 397.878906 64.910156 L 404.710938 21.234375 L 412.230469 21.234375 C 417.839844 21.234375 421.839844 21.386719 424.234375 21.699219 C 426.632813 22.007813 428.578125 22.539063 430.066406 23.292969 C 433.3125 24.925781 435.78125 27.316406 437.480469 30.46875 C 439.183594 33.621094 440.035156 37.363281 440.035156 41.699219 C 440.035156 45.894531 439.269531 49.566406 437.75 52.707031 C 436.230469 55.851563 433.914063 58.515625 430.8125 60.703125 C 428.625 62.214844 426.03125 63.292969 423.027344 63.941406 C 420.023438 64.585938 415.003906 64.910156 407.960938 64.910156 L 406.320313 64.910156 "/>
<path style=" stroke:none;fill-rule:nonzero;fill:rgb(0%,21.199036%,43.099976%);fill-opacity:1;" d="M 455.964844 55.183594 L 469.476563 55.183594 L 467.953125 64.910156 L 442.777344 64.910156 L 449.667969 21.234375 L 474.847656 21.234375 L 473.265625 31.320313 L 459.753906 31.320313 L 458.648438 38.449219 L 471.179688 38.449219 L 469.714844 47.933594 L 457.128906 47.933594 "/>
<path style=" stroke:none;fill-rule:nonzero;fill:rgb(0%,21.199036%,43.099976%);fill-opacity:1;" d="M 474.789063 64.910156 L 481.679688 21.234375 L 493.433594 21.234375 L 488.152344 54.46875 L 502.59375 54.46875 L 500.949219 64.910156 "/>
<path style=" stroke:none;fill-rule:nonzero;fill:rgb(0%,21.199036%,43.099976%);fill-opacity:1;" d="M 538.777344 46.949219 L 547.996094 46.949219 L 545.996094 36.75 C 545.800781 35.734375 545.648438 34.828125 545.550781 34.03125 C 545.449219 33.238281 545.390625 32.492188 545.371094 31.796875 C 544.953125 32.988281 544.570313 34.039063 544.222656 34.941406 C 543.875 35.847656 543.601563 36.519531 543.402344 36.957031 Z M 517.507813 64.910156 L 539.375 21.234375 L 553.992188 21.234375 L 563.269531 64.910156 L 551.425781 64.910156 L 549.667969 56.675781 L 534.394531 56.675781 L 530.214844 64.910156 "/>
<path style=" stroke:none;fill-rule:nonzero;fill:rgb(0%,21.199036%,43.099976%);fill-opacity:1;" d="M 570.726563 21.234375 L 582.453125 21.234375 L 578.960938 43.164063 C 578.683594 44.832031 578.496094 46.140625 578.394531 47.085938 C 578.296875 48.027344 578.246094 48.859375 578.246094 49.578125 C 578.246094 51.445313 578.773438 52.902344 579.828125 53.945313 C 580.882813 54.988281 582.351563 55.511719 584.242188 55.511719 C 588.738281 55.511719 591.929688 49.527344 593.820313 37.554688 L 593.878906 37.132813 L 596.382813 21.234375 L 608.109375 21.234375 L 604.203125 46.023438 L 604.203125 46.054688 C 603.347656 51.425781 602.269531 55.222656 600.980469 57.453125 C 599.347656 60.296875 597.046875 62.464844 594.074219 63.957031 C 591.097656 65.445313 587.59375 66.191406 583.554688 66.191406 C 578.347656 66.191406 574.167969 64.945313 571.027344 62.449219 C 567.882813 59.953125 566.3125 56.636719 566.3125 52.5 C 566.3125 51.265625 566.433594 49.613281 566.671875 47.546875 C 566.910156 45.476563 567.269531 42.914063 567.746094 39.851563 "/>
<path style=" stroke:none;fill-rule:nonzero;fill:rgb(0%,21.199036%,43.099976%);fill-opacity:1;" d="M 612.644531 49.875 C 614.472656 51.84375 616.21875 53.273438 617.878906 54.167969 C 619.539063 55.066406 621.257813 55.511719 623.027344 55.511719 C 624.496094 55.511719 625.671875 55.15625 626.546875 54.4375 C 627.421875 53.722656 627.859375 52.777344 627.859375 51.605469 C 627.859375 50.015625 626.089844 48.292969 622.546875 46.441406 C 622.210938 46.265625 621.941406 46.125 621.742188 46.023438 C 618.300781 44.234375 615.945313 42.515625 614.671875 40.863281 C 613.398438 39.214844 612.765625 37.203125 612.765625 34.839844 C 612.765625 30.523438 614.21875 26.992188 617.132813 24.246094 C 620.046875 21.503906 623.800781 20.132813 628.394531 20.132813 C 630.820313 20.132813 633.152344 20.558594 635.390625 21.414063 C 637.628906 22.269531 639.742188 23.53125 641.730469 25.203125 L 636.71875 33.824219 C 635.148438 32.472656 633.714844 31.46875 632.421875 30.8125 C 631.128906 30.15625 629.9375 29.824219 628.84375 29.824219 C 627.648438 29.824219 626.65625 30.167969 625.859375 30.855469 C 625.0625 31.542969 624.667969 32.382813 624.667969 33.375 C 624.667969 34.609375 626.15625 35.992188 629.140625 37.523438 C 630.195313 38.0625 631.011719 38.496094 631.585938 38.835938 C 634.648438 40.527344 636.777344 42.25 637.972656 44.011719 C 639.164063 45.773438 639.761719 47.976563 639.761719 50.621094 C 639.761719 55.292969 638.140625 59.027344 634.898438 61.820313 C 631.65625 64.617188 627.25 66.015625 621.683594 66.015625 C 618.757813 66.015625 616.023438 65.390625 613.480469 64.148438 C 610.933594 62.90625 608.636719 61.0625 606.589844 58.613281 "/>
<path style=" stroke:none;fill-rule:nonzero;fill:rgb(0%,21.199036%,43.099976%);fill-opacity:1;" d="M 648.589844 64.910156 L 653.902344 31.378906 L 644.117188 31.378906 L 645.789063 21.234375 L 676.632813 21.234375 L 674.964844 31.378906 L 665.625 31.378906 L 660.316406 64.910156 "/>
<path style=" stroke:none;fill-rule:nonzero;fill:rgb(0%,21.199036%,43.099976%);fill-opacity:1;" d="M 689.9375 41.191406 L 693.609375 41.191406 C 695.914063 41.191406 697.683594 40.667969 698.917969 39.609375 C 700.152344 38.558594 700.769531 37.035156 700.769531 35.046875 C 700.769531 33.175781 700.191406 31.820313 699.039063 30.972656 C 697.882813 30.128906 696.035156 29.707031 693.488281 29.707031 L 691.757813 29.707031 Z M 686.210938 64.910156 L 674.605469 64.910156 L 681.496094 21.234375 L 693.132813 21.234375 C 696.632813 21.234375 699.238281 21.359375 700.949219 21.609375 C 702.65625 21.855469 704.140625 22.277344 705.390625 22.875 C 707.601563 23.910156 709.269531 25.367188 710.40625 27.246094 C 711.539063 29.125 712.105469 31.378906 712.105469 34.003906 C 712.105469 37.625 711.027344 40.652344 708.867188 43.085938 C 706.710938 45.523438 703.742188 47.050781 699.964844 47.667969 L 710.585938 64.910156 L 697.277344 64.910156 L 688.835938 48.234375 "/>
<g clip-path="url(#clip3)" clip-rule="nonzero">
<path style=" stroke:none;fill-rule:nonzero;fill:rgb(0%,21.199036%,43.099976%);fill-opacity:1;" d="M 739.847656 30.929688 C 736.289063 30.929688 733.304688 32.210938 730.898438 34.777344 C 728.492188 37.34375 727.289063 40.527344 727.289063 44.324219 C 727.289063 47.6875 728.25 50.371094 730.167969 52.378906 C 732.085938 54.386719 734.648438 55.394531 737.851563 55.394531 C 741.351563 55.394531 744.324219 54.066406 746.769531 51.410156 C 749.214844 48.753906 750.441406 45.519531 750.441406 41.699219 C 750.441406 38.558594 749.445313 35.976563 747.457031 33.957031 C 745.46875 31.941406 742.933594 30.929688 739.847656 30.929688 M 737.164063 66.074219 C 734.039063 66.074219 731.203125 65.644531 728.648438 64.789063 C 726.089844 63.933594 723.820313 62.652344 721.828125 60.941406 C 719.742188 59.113281 718.109375 56.855469 716.9375 54.167969 C 715.765625 51.484375 715.175781 48.628906 715.175781 45.609375 C 715.175781 42.347656 715.679688 39.296875 716.683594 36.464844 C 717.6875 33.628906 719.183594 31.058594 721.175781 28.753906 C 723.5 26.007813 726.339844 23.90625 729.691406 22.441406 C 733.042969 20.980469 736.675781 20.25 740.59375 20.25 C 747.160156 20.25 752.464844 22.140625 756.511719 25.917969 C 760.558594 29.699219 762.582031 34.609375 762.582031 40.65625 C 762.582031 43.898438 762.070313 46.945313 761.046875 49.800781 C 760.019531 52.65625 758.523438 55.222656 756.554688 57.511719 C 754.148438 60.316406 751.304688 62.445313 748.023438 63.894531 C 744.742188 65.347656 741.121094 66.074219 737.164063 66.074219 "/>
</g>
</g>
</svg>
