<?xml version="1.0" encoding="utf-8"?>
<!-- Generator: Adobe Illustrator 24.1.0, SVG Export Plug-In . SVG Version: 6.00 Build 0)  -->
<svg version="1.1" id="Capa_1" xmlns="http://www.w3.org/2000/svg" xmlns:xlink="http://www.w3.org/1999/xlink" x="0px" y="0px"
	 width="749px" height="95px" viewBox="0 0 749 95" style="enable-background:new 0 0 749 95;" xml:space="preserve">
<style type="text/css">
	.st0{fill:#008B96;}
</style>
<path class="st0" d="M233.9,70.2h-0.3C233.7,70.2,233.7,70.2,233.9,70.2L233.9,70.2"/>
<path class="st0" d="M118.5,77.7l20.8,0.1c7.6,0,21.1-2.2,21.1-17.3c0-7.3-5.5-12.7-13.7-13.6v0c7.1-1.3,11.9-6.3,11.9-13.3
	c0-13.1-11.6-15.3-19.3-15.2l-20.9,0V77.7 M130.5,27.6h4.6c5.5,0,11.6,0.6,11.6,7.6c0,6.1-6.3,7.2-11.4,7.2l-4.8-0.1V27.6z
	 M130.5,51.2h5.6c6.1,0,12.4,1.1,12.4,8.9c0,6.9-6.8,8.2-12.4,8.2l-5.6,0.1V51.2z"/>
<path class="st0" d="M166.9,45.9c3.8-2.8,8.7-4.8,13.5-4.8c6.6,0,9.9,2.4,9.9,9.5h-6.4c-4.7,0-10.3,0.5-14.7,2.6
	c-4.3,2.1-7.6,5.9-7.6,12.5c0,8.3,7.6,13.1,15.5,13c5.1,0.1,10.9-2.7,13.6-7.5l0.3-0.1c0,1.4,0,4.4,0.4,6.7h9.9
	c-0.2-3.4-0.4-6.5-0.5-9.9c0-3.2-0.1-6.5-0.1-11v-5.6c0-13.1-5.5-18.6-19-18.6c-4.8,0-10.8,1.3-15.2,3.3L166.9,45.9 M172.5,65.1
	c0-6.7,7.6-7.6,12.8-7.6h4.9c0.1,3.4-0.4,6.6-2.4,9c-1.8,2.4-4.5,4-8,4C175.7,70.5,172.6,68.8,172.5,65.1"/>
<path class="st0" d="M206.8,33.8l10.8,0.1v5.9h0.2c3.6-4.9,8.4-6.9,14.4-6.9c10.4,0,14.8,7.3,14.8,17.3v27.7h-11.4l0-23.5
	c0-5.4,0-12.6-7.4-12.6c-8.3,0-10,9-10.1,14.6l0.1,21.6l-11.4-0.1L206.8,33.8"/>
<path class="st0" d="M282.3,43.3c-2.1-1-4.2-1.6-7.7-1.7c-7.2,0-11.7,5.6-11.7,14c0,8.1,3.9,14.4,11.9,14.3c3.2,0.1,6.8-1.2,8.7-2
	l0.6,9.5c-3.3,1-6.7,1.5-11.4,1.5c-14.5,0-21.7-9.9-21.7-23.2c0-12.7,7.5-22.8,21.3-22.8c4.5-0.1,7.9,0.5,11,1.4L282.3,43.3"/>
<path class="st0" d="M283.7,56.1c0,12.6,8.4,22.6,22.9,22.7c14.6,0,23-10.1,23-22.7c0-14.5-10.1-23.4-23-23.4
	C293.7,32.9,283.7,41.6,283.7,56.1 M295.6,54.8c0-6.6,3.5-13.1,11-13.1c7.5,0,11,6.4,11,13.1c0,7.3-2.3,15.2-11.1,15.2
	C297.9,69.9,295.6,62,295.6,54.8"/>
<path class="st0" d="M355.2,77.8l20.9-0.1c7.6,0,21-2.2,21-17.2c0-7.3-5.5-12.7-13.6-13.6v0c7-1.3,11.7-6.3,11.7-13.3
	c0-13.1-11.5-15.3-19.2-15.3l-20.9,0L355.2,77.8 M367.1,27.6l4.6,0.1c5.5-0.1,11.7,0.5,11.7,7.4c-0.1,6.1-6.4,7.3-11.4,7.1l-4.9,0.1
	V27.6z M367,51.2l5.9-0.1c5.9,0,12.3,1.2,12.3,9c0,6.9-6.8,8.3-12.3,8.3l-5.9-0.1V51.2z"/>
<path class="st0" d="M398.3,56.2c0,12.5,8.6,22.6,23,22.6c14.5,0,23-10,23-22.6c0-14.5-9.9-23.4-23.1-23.3
	C408.3,32.8,398.3,41.6,398.3,56.2 M410.3,54.8c0-6.6,3.6-13.1,11-13.1c7.5,0,11.1,6.4,11.1,13.1c0,7.3-2.3,15.2-11.1,15.2
	C412.6,69.9,410.3,62,410.3,54.8"/>
<polyline class="st0" points="448.6,13.8 459.9,13.8 459.9,77.7 448.6,77.8 448.6,13.8 "/>
<path class="st0" d="M467,15l11.4,0l0,11H467V15 M467,33.9l11.5-0.1l0,44L467,77.8V33.9z"/>
<polyline class="st0" points="480.6,33.9 492.8,33.9 503.7,65.8 503.8,65.8 514.4,33.9 525.8,33.9 509.7,77.8 496.8,77.7 
	480.6,33.9 "/>
<path class="st0" d="M529.9,46c3.8-2.9,8.7-4.9,13.6-4.9c6.7-0.1,9.9,2.4,9.9,9.5h-6.3c-4.8,0-10.5,0.4-14.8,2.6
	c-4.3,2.1-7.6,6-7.6,12.5c0,8.3,7.6,13.1,15.4,13c5.3,0.1,11-2.7,13.6-7.5l0.2-0.1c0,1.4,0.1,4.4,0.6,6.7h10
	c-0.3-3.4-0.5-6.5-0.5-9.9c-0.2-3.2-0.3-6.5-0.3-11l0-5.6c0-12.9-5.5-18.6-18.9-18.5c-4.8-0.1-10.9,1.3-15.3,3.3L529.9,46
	 M535.7,65.1c0-6.8,7.6-7.6,12.7-7.6h4.9c0,3.4-0.5,6.5-2.4,9c-1.7,2.4-4.5,3.9-8.1,3.9C538.9,70.5,535.7,68.8,535.7,65.1"/>
<path class="st0" d="M570.2,33.9h10l0,9.9h0.1c0.6-4.1,5.3-11,12.2-11c1,0,2.2,0,3.4,0.4v11.4c-1-0.6-3-0.9-5-0.9
	c-9.4,0-9.3,11.6-9.3,17.9v16.1h-11.4L570.2,33.9"/>
<path class="st0" d="M598.2,14.9h11.4v11l-11.4,0V14.9 M598.2,33.8l11.4,0.1v43.9l-11.4,0.1V33.8z"/>
<path class="st0" d="M618.8,45.9c3.9-3,8.7-4.8,13.6-4.8c6.7,0,9.9,2.5,9.9,9.5H636c-4.8,0-10.4,0.4-14.7,2.7
	c-4.4,2.1-7.6,5.9-7.6,12.4c0,8.3,7.6,13,15.4,13c5.3,0,10.9-2.7,13.5-7.5l0.2-0.1c0,1.4,0.1,4.4,0.5,6.6h9.9
	c-0.1-3.3-0.4-6.3-0.5-9.8c0-3.2-0.2-6.5-0.2-10.9v-5.7c0-13-5.5-18.6-18.9-18.6c-4.8,0-10.8,1.3-15.2,3.4L618.8,45.9 M624.7,65.1
	c0-6.8,7.5-7.6,12.6-7.6h5c0,3.4-0.5,6.6-2.4,9.1c-1.7,2.4-4.6,3.9-8.1,3.9C627.8,70.5,624.7,68.8,624.7,65.1"/>
<path class="st0" d="M658.8,33.9h10.9l-0.1,5.9h0.2c3.6-4.9,8.5-6.9,14.5-7c10.3,0,14.9,7.3,14.9,17.3l-0.1,27.6l-11.4,0.1V54.3
	c0-5.4,0-12.7-7.4-12.7c-8.2,0-10.1,9-10.1,14.6v21.5l-11.4,0.1V33.9"/>
<path class="st0" d="M702.9,56.1c0.1,12.6,8.6,22.7,23,22.6c14.6,0,23.1-10,23.1-22.6c0-14.5-10-23.3-23.1-23.4
	C712.9,32.8,703,41.6,702.9,56.1 M714.9,54.8c0-6.6,3.7-13.1,11-13.1c7.5,0,11.1,6.4,11.1,13.1c0,7.3-2.3,15.1-11.1,15.2
	C717.2,70,715,62,714.9,54.8"/>
<path class="st0" d="M44.8,58.6c0-5.5-2.9-10.3-7.2-13.1c-0.6-0.3-1.1-0.7-1.7-0.9c0.9-0.3,1.7-0.8,2.4-1.4c3-2.1,5-5.7,5-9.9
	c0-6.5-5.2-11.7-11.7-12.1l0.1,52.5C39.1,72.6,44.8,66.3,44.8,58.6"/>
<path class="st0" d="M58.5,74H48c8.5,0,15.4-6.9,15.4-15.4c0-5.5-2.9-10.3-7.2-13c-0.5-0.4-1.1-0.7-1.8-0.9c0.9-0.4,1.8-1,2.5-1.5
	c3.1-2.2,5-5.6,5-9.9c0-6.7-5.5-12.1-12.2-12.1h10.6c6.8,0,12.2,5.4,12.2,12.1c0,5.2-3.1,9.5-7.5,11.4c5.3,2.4,8.9,7.8,8.9,13.9
	C74,67.1,67.1,74,58.5,74 M31.7,74l0.1-0.3c-0.8,0.1-1.6,0.3-2.3,0.3h-8.3V21.2h10c0.2,0,0.4,0,0.5,0.1v-0.1h10.1
	c6.7,0,12.2,5.4,12.2,12.2c0,5.1-3.2,9.4-7.6,11.2c5.2,2.4,8.9,7.8,8.9,13.9C55.3,67.1,48.5,74,40,74H31.7z M95.1,0.1h-95v95.1h95
	V0.1z"/>
</svg>
