<?xml version="1.0" encoding="UTF-8"?>
<svg xmlns="http://www.w3.org/2000/svg" xmlns:xlink="http://www.w3.org/1999/xlink" width="778.47pt" height="141.82pt" viewBox="0 0 778.47 141.82" version="1.1">
<defs>
<clipPath id="clip1">
  <path d="M 66 0 L 76 0 L 76 141.820313 L 66 141.820313 Z M 66 0 "/>
</clipPath>
<clipPath id="clip2">
  <path d="M 742 51 L 778.46875 51 L 778.46875 112 L 742 112 Z M 742 51 "/>
</clipPath>
</defs>
<g id="surface1">
<path style=" stroke:none;fill-rule:nonzero;fill:rgb(100%,50.59967%,0%);fill-opacity:1;" d="M 17.957031 57.515625 L 39.871094 57.515625 L 39.871094 48.691406 L 17.957031 48.691406 Z M 17.957031 57.515625 "/>
<path style=" stroke:none;fill-rule:nonzero;fill:rgb(100%,50.59967%,0%);fill-opacity:1;" d="M 17.957031 92.820313 L 39.871094 92.820313 L 39.871094 83.996094 L 17.957031 83.996094 Z M 17.957031 92.820313 "/>
<path style=" stroke:none;fill-rule:nonzero;fill:rgb(100%,50.59967%,0%);fill-opacity:1;" d="M 0 75.320313 L 39.867188 75.320313 L 39.867188 66.496094 L 0 66.496094 Z M 0 75.320313 "/>
<path style=" stroke:none;fill-rule:nonzero;fill:rgb(100%,50.59967%,0%);fill-opacity:1;" d="M 102.257813 57.515625 L 124.171875 57.515625 L 124.171875 48.691406 L 102.257813 48.691406 Z M 102.257813 57.515625 "/>
<path style=" stroke:none;fill-rule:nonzero;fill:rgb(100%,50.59967%,0%);fill-opacity:1;" d="M 102.257813 92.820313 L 124.171875 92.820313 L 124.171875 83.996094 L 102.257813 83.996094 Z M 102.257813 92.820313 "/>
<path style=" stroke:none;fill-rule:nonzero;fill:rgb(100%,50.59967%,0%);fill-opacity:1;" d="M 102.257813 75.320313 L 142.128906 75.320313 L 142.128906 66.496094 L 102.257813 66.496094 Z M 102.257813 75.320313 "/>
<g clip-path="url(#clip1)" clip-rule="nonzero">
<path style=" stroke:none;fill-rule:nonzero;fill:rgb(100%,50.59967%,0%);fill-opacity:1;" d="M 66.652344 141.820313 L 75.78125 141.820313 L 75.78125 -0.00390625 L 66.652344 -0.00390625 Z M 66.652344 141.820313 "/>
</g>
<path style=" stroke:none;fill-rule:nonzero;fill:rgb(100%,50.59967%,0%);fill-opacity:1;" d="M 84.605469 124.167969 L 93.738281 124.167969 L 93.738281 17.648438 L 84.605469 17.648438 Z M 84.605469 124.167969 "/>
<path style=" stroke:none;fill-rule:nonzero;fill:rgb(100%,50.59967%,0%);fill-opacity:1;" d="M 49.304688 124.167969 L 58.433594 124.167969 L 58.433594 17.648438 L 49.304688 17.648438 Z M 49.304688 124.167969 "/>
<path style=" stroke:none;fill-rule:nonzero;fill:rgb(40.39917%,29.798889%,28.599548%);fill-opacity:1;" d="M 188.730469 35.214844 C 189.433594 35.300781 190.351563 35.34375 191.578125 35.34375 C 195.039063 35.34375 198.109375 34.03125 198.109375 30.394531 C 198.109375 26.976563 195.128906 25.574219 191.402344 25.574219 L 188.730469 25.574219 Z M 188.730469 21.628906 L 191.492188 21.628906 C 195.214844 21.628906 197.320313 19.878906 197.320313 17.378906 C 197.320313 14.621094 195.214844 13.347656 191.796875 13.347656 C 190.21875 13.347656 189.300781 13.433594 188.730469 13.566406 Z M 183.382813 9.972656 C 185.09375 9.621094 188.203125 9.359375 191.230469 9.359375 C 195.214844 9.359375 197.671875 9.84375 199.6875 11.246094 C 201.527344 12.339844 202.753906 14.269531 202.753906 16.765625 C 202.753906 19.480469 201.046875 21.980469 197.84375 23.164063 L 197.84375 23.25 C 200.957031 24.039063 203.804688 26.496094 203.804688 30.566406 C 203.804688 33.199219 202.664063 35.257813 200.957031 36.660156 C 198.855469 38.5 195.390625 39.421875 190.003906 39.421875 C 187.023438 39.421875 184.742188 39.203125 183.382813 39.027344 "/>
<path style=" stroke:none;fill-rule:nonzero;fill:rgb(40.39917%,29.798889%,28.599548%);fill-opacity:1;" d="M 232.863281 39.113281 L 232.863281 9.578125 L 238.996094 9.578125 L 246.621094 22.242188 C 248.59375 25.53125 250.304688 28.945313 251.660156 32.144531 L 251.75 32.144531 C 251.398438 28.203125 251.265625 24.390625 251.265625 19.878906 L 251.265625 9.578125 L 256.261719 9.578125 L 256.261719 39.113281 L 250.699219 39.113281 L 242.984375 26.144531 C 241.101563 22.898438 239.128906 19.261719 237.683594 15.933594 L 237.550781 15.976563 C 237.769531 19.789063 237.816406 23.6875 237.816406 28.554688 L 237.816406 39.113281 "/>
<path style=" stroke:none;fill-rule:nonzero;fill:rgb(40.39917%,29.798889%,28.599548%);fill-opacity:1;" d="M 281.898438 38.238281 C 280.628906 38.894531 277.824219 39.550781 274.273438 39.550781 C 264.898438 39.550781 259.203125 33.679688 259.203125 24.695313 C 259.203125 14.96875 265.949219 9.097656 274.976563 9.097656 C 278.527344 9.097656 281.066406 9.84375 282.164063 10.410156 L 280.980469 14.707031 C 279.578125 14.09375 277.648438 13.566406 275.195313 13.566406 C 269.191406 13.566406 264.855469 17.335938 264.855469 24.433594 C 264.855469 30.917969 268.667969 35.082031 275.152344 35.082031 C 277.34375 35.082031 279.621094 34.644531 281.023438 33.988281 "/>
<path style=" stroke:none;fill-rule:nonzero;fill:rgb(40.39917%,29.798889%,28.599548%);fill-opacity:1;" d="M 287.773438 24.476563 C 287.773438 30.480469 290.800781 35.257813 295.96875 35.257813 C 301.183594 35.257813 304.121094 30.4375 304.121094 24.257813 C 304.121094 18.695313 301.359375 13.433594 295.96875 13.433594 C 290.625 13.433594 287.773438 18.386719 287.773438 24.476563 M 309.816406 24.039063 C 309.816406 33.941406 303.8125 39.59375 295.664063 39.59375 C 287.339844 39.59375 282.078125 33.242188 282.078125 24.566406 C 282.078125 15.496094 287.773438 9.097656 296.101563 9.097656 C 304.734375 9.097656 309.816406 15.625 309.816406 24.039063 "/>
<path style=" stroke:none;fill-rule:nonzero;fill:rgb(40.39917%,29.798889%,28.599548%);fill-opacity:1;" d="M 202.996094 39.113281 L 213.34375 9.097656 L 219.632813 9.097656 L 230.386719 39.113281 L 223.386719 39.113281 L 216.691406 15.0625 L 209.539063 39.113281 "/>
<path style=" stroke:none;fill-rule:nonzero;fill:rgb(40.39917%,29.798889%,28.599548%);fill-opacity:1;" d="M 181.394531 111.953125 L 192.476563 111.953125 L 192.476563 51.230469 L 181.394531 51.230469 Z M 181.394531 111.953125 "/>
<path style=" stroke:none;fill-rule:nonzero;fill:rgb(40.39917%,29.798889%,28.599548%);fill-opacity:1;" d="M 201.574219 111.953125 L 201.574219 51.230469 L 214.183594 51.230469 L 229.863281 77.265625 C 233.914063 84.023438 237.429688 91.054688 240.222656 97.628906 L 240.402344 97.628906 C 239.679688 89.519531 239.410156 81.683594 239.410156 72.402344 L 239.410156 51.230469 L 249.679688 51.230469 L 249.679688 111.953125 L 238.238281 111.953125 L 222.382813 85.285156 C 218.511719 78.617188 214.453125 71.140625 211.484375 64.292969 L 211.210938 64.386719 C 211.664063 72.222656 211.753906 80.242188 211.753906 90.242188 L 211.753906 111.953125 "/>
<path style=" stroke:none;fill-rule:nonzero;fill:rgb(40.39917%,29.798889%,28.599548%);fill-opacity:1;" d="M 270.488281 60.511719 L 253.191406 60.511719 L 253.191406 51.230469 L 299.046875 51.230469 L 299.046875 60.511719 L 281.570313 60.511719 L 281.570313 111.953125 L 270.488281 111.953125 "/>
<path style=" stroke:none;fill-rule:nonzero;fill:rgb(40.39917%,29.798889%,28.599548%);fill-opacity:1;" d="M 336.523438 85.015625 L 313.640625 85.015625 L 313.640625 102.855469 L 339.226563 102.855469 L 339.226563 111.953125 L 302.558594 111.953125 L 302.558594 51.230469 L 337.871094 51.230469 L 337.871094 60.332031 L 313.640625 60.332031 L 313.640625 76.007813 L 336.523438 76.007813 "/>
<path style=" stroke:none;fill-rule:nonzero;fill:rgb(40.39917%,29.798889%,28.599548%);fill-opacity:1;" d="M 356.339844 78.890625 L 362.914063 78.890625 C 370.394531 78.890625 375.078125 74.925781 375.078125 68.890625 C 375.078125 62.222656 370.394531 59.160156 363.1875 59.160156 C 359.671875 59.160156 357.421875 59.429688 356.339844 59.699219 Z M 345.347656 52.042969 C 349.492188 51.320313 355.707031 50.78125 362.105469 50.78125 C 370.84375 50.78125 376.789063 52.222656 380.84375 55.644531 C 384.175781 58.4375 386.066406 62.671875 386.066406 67.808594 C 386.066406 75.648438 380.753906 80.960938 375.078125 83.035156 L 375.078125 83.304688 C 379.402344 84.925781 382.015625 89.160156 383.546875 95.015625 C 385.4375 102.582031 387.0625 109.613281 388.320313 111.953125 L 376.878906 111.953125 C 375.980469 110.152344 374.539063 105.195313 372.824219 97.628906 C 371.113281 89.699219 368.230469 87.179688 361.925781 86.996094 L 356.339844 86.996094 L 356.339844 111.953125 L 345.347656 111.953125 "/>
<path style=" stroke:none;fill-rule:nonzero;fill:rgb(40.39917%,29.798889%,28.599548%);fill-opacity:1;" d="M 393.003906 111.953125 L 393.003906 51.230469 L 405.613281 51.230469 L 421.289063 77.265625 C 425.34375 84.023438 428.859375 91.054688 431.648438 97.628906 L 431.832031 97.628906 C 431.109375 89.519531 430.839844 81.683594 430.839844 72.402344 L 430.839844 51.230469 L 441.109375 51.230469 L 441.109375 111.953125 L 429.667969 111.953125 L 413.8125 85.285156 C 409.9375 78.617188 405.886719 71.140625 402.910156 64.292969 L 402.640625 64.386719 C 403.089844 72.222656 403.183594 80.242188 403.183594 90.242188 L 403.183594 111.953125 "/>
<path style=" stroke:none;fill-rule:nonzero;fill:rgb(40.39917%,29.798889%,28.599548%);fill-opacity:1;" d="M 545.605469 110.152344 C 542.996094 111.503906 537.226563 112.855469 529.929688 112.855469 C 510.652344 112.855469 498.9375 100.78125 498.9375 82.3125 C 498.9375 62.3125 512.8125 50.238281 531.371094 50.238281 C 538.671875 50.238281 543.894531 51.773438 546.148438 52.941406 L 543.714844 61.773438 C 540.832031 60.511719 536.867188 59.429688 531.824219 59.429688 C 519.480469 59.429688 510.5625 67.175781 510.5625 81.773438 C 510.5625 95.105469 518.398438 103.664063 531.730469 103.664063 C 536.238281 103.664063 540.921875 102.761719 543.804688 101.414063 "/>
<path style=" stroke:none;fill-rule:nonzero;fill:rgb(40.39917%,29.798889%,28.599548%);fill-opacity:1;" d="M 551.460938 111.953125 L 562.539063 111.953125 L 562.539063 51.230469 L 551.460938 51.230469 Z M 551.460938 111.953125 "/>
<path style=" stroke:none;fill-rule:nonzero;fill:rgb(40.39917%,29.798889%,28.599548%);fill-opacity:1;" d="M 580.195313 81.863281 C 580.195313 94.207031 586.414063 104.023438 597.046875 104.023438 C 607.765625 104.023438 613.800781 94.113281 613.800781 81.410156 C 613.800781 69.96875 608.125 59.160156 597.046875 59.160156 C 586.050781 59.160156 580.195313 69.339844 580.195313 81.863281 M 625.511719 80.960938 C 625.511719 101.324219 613.171875 112.945313 596.414063 112.945313 C 579.296875 112.945313 568.484375 99.882813 568.484375 82.042969 C 568.484375 63.394531 580.195313 50.238281 597.3125 50.238281 C 615.0625 50.238281 625.511719 63.664063 625.511719 80.960938 "/>
<path style=" stroke:none;fill-rule:nonzero;fill:rgb(40.39917%,29.798889%,28.599548%);fill-opacity:1;" d="M 631.453125 111.953125 L 631.453125 51.230469 L 644.066406 51.230469 L 659.742188 77.265625 C 663.796875 84.023438 667.308594 91.054688 670.105469 97.628906 L 670.28125 97.628906 C 669.5625 89.519531 669.292969 81.683594 669.292969 72.402344 L 669.292969 51.230469 L 679.5625 51.230469 L 679.5625 111.953125 L 668.121094 111.953125 L 652.265625 85.285156 C 648.390625 78.617188 644.339844 71.140625 641.363281 64.292969 L 641.09375 64.386719 C 641.546875 72.222656 641.636719 80.242188 641.636719 90.242188 L 641.636719 111.953125 "/>
<g clip-path="url(#clip2)" clip-rule="nonzero">
<path style=" stroke:none;fill-rule:nonzero;fill:rgb(40.39917%,29.798889%,28.599548%);fill-opacity:1;" d="M 742.4375 51.230469 L 753.519531 51.230469 L 753.519531 102.675781 L 778.472656 102.675781 L 778.472656 111.953125 L 742.4375 111.953125 "/>
</g>
<path style=" stroke:none;fill-rule:nonzero;fill:rgb(40.39917%,29.798889%,28.599548%);fill-opacity:1;" d="M 445.402344 111.953125 L 467.46875 50.242188 L 481.773438 50.242188 L 501.859375 111.953125 L 488.925781 111.953125 L 473.632813 60.257813 L 458.183594 111.953125 "/>
<path style=" stroke:none;fill-rule:nonzero;fill:rgb(40.39917%,29.798889%,28.599548%);fill-opacity:1;" d="M 682.484375 111.953125 L 704.550781 50.242188 L 718.855469 50.242188 L 738.941406 111.953125 L 726.007813 111.953125 L 710.714844 60.257813 L 695.269531 111.953125 "/>
</g>
</svg>
