<?xml version="1.0" encoding="UTF-8"?>
<svg xmlns="http://www.w3.org/2000/svg" xmlns:xlink="http://www.w3.org/1999/xlink" width="748.56pt" height="132.25pt" viewBox="0 0 748.56 132.25" version="1.1">
<defs>
<clipPath id="clip1">
  <path d="M 708 38 L 748.558594 38 L 748.558594 83 L 708 83 Z M 708 38 "/>
</clipPath>
<clipPath id="clip2">
  <path d="M 540 106 L 558 106 L 558 132.25 L 540 132.25 Z M 540 106 "/>
</clipPath>
<clipPath id="clip3">
  <path d="M 562 113 L 579 113 L 579 132.25 L 562 132.25 Z M 562 113 "/>
</clipPath>
<clipPath id="clip4">
  <path d="M 509 113 L 529 113 L 529 132.25 L 509 132.25 Z M 509 113 "/>
</clipPath>
<clipPath id="clip5">
  <path d="M 621 113 L 637 113 L 637 132.25 L 621 132.25 Z M 621 113 "/>
</clipPath>
<clipPath id="clip6">
  <path d="M 603 113 L 617 113 L 617 132.25 L 603 132.25 Z M 603 113 "/>
</clipPath>
<clipPath id="clip7">
  <path d="M 649 106 L 667 106 L 667 132.25 L 649 132.25 Z M 649 106 "/>
</clipPath>
<clipPath id="clip8">
  <path d="M 671 113 L 688 113 L 688 132.25 L 671 132.25 Z M 671 113 "/>
</clipPath>
<clipPath id="clip9">
  <path d="M 730 113 L 746 113 L 746 132.25 L 730 132.25 Z M 730 113 "/>
</clipPath>
<clipPath id="clip10">
  <path d="M 712 113 L 726 113 L 726 132.25 L 712 132.25 Z M 712 113 "/>
</clipPath>
</defs>
<g id="surface1">
<path style=" stroke:none;fill-rule:nonzero;fill:rgb(0%,57.598877%,80.39856%);fill-opacity:1;" d="M 152.84375 48.425781 C 156.625 48.425781 160.296875 48.488281 163.960938 48.390625 C 165.027344 48.359375 166.132813 48 167.132813 47.578125 C 169.296875 46.667969 170.214844 44.882813 170.179688 42.589844 C 170.144531 40.328125 169.035156 38.726563 166.824219 37.980469 C 165.683594 37.59375 164.449219 37.335938 163.246094 37.300781 C 160.058594 37.203125 156.867188 37.253906 153.679688 37.253906 C 153.410156 37.253906 153.140625 37.328125 152.84375 37.371094 C 152.84375 41.078125 152.84375 44.710938 152.84375 48.425781 Z M 152.871094 70.601563 C 153.082031 70.644531 153.234375 70.707031 153.386719 70.707031 C 157.273438 70.695313 161.15625 70.738281 165.039063 70.628906 C 166.195313 70.597656 167.378906 70.246094 168.480469 69.84375 C 170.101563 69.257813 171.21875 68.082031 171.644531 66.363281 C 172.597656 62.503906 170.832031 59.203125 166.890625 58.722656 C 162.335938 58.171875 157.691406 58.347656 153.085938 58.214844 C 153.023438 58.214844 152.960938 58.304688 152.871094 58.371094 C 152.871094 62.425781 152.871094 66.496094 152.871094 70.601563 Z M 141.6875 81.230469 C 141.6875 62.996094 141.6875 44.921875 141.6875 26.78125 C 142.113281 26.757813 142.472656 26.722656 142.832031 26.722656 C 149.257813 26.71875 155.683594 26.683594 162.109375 26.730469 C 166.171875 26.761719 170.1875 27.164063 173.949219 28.894531 C 178.761719 31.113281 181.214844 34.957031 181.476563 40.171875 C 181.5625 41.90625 181.4375 43.695313 181.105469 45.402344 C 180.546875 48.316406 178.738281 50.464844 176.34375 52.140625 C 175.984375 52.390625 175.625 52.636719 175.230469 52.910156 C 176.503906 53.777344 177.765625 54.523438 178.902344 55.425781 C 184.414063 59.808594 184.203125 67.570313 181.132813 72.707031 C 178.28125 77.476563 173.777344 79.753906 168.511719 80.707031 C 166.632813 81.046875 164.699219 81.1875 162.785156 81.207031 C 156.238281 81.265625 149.6875 81.226563 143.140625 81.230469 C 142.695313 81.230469 142.25 81.230469 141.6875 81.230469 "/>
<path style=" stroke:none;fill-rule:nonzero;fill:rgb(0%,57.598877%,80.39856%);fill-opacity:1;" d="M 314.308594 60.128906 C 314.421875 61.59375 314.484375 63.023438 314.644531 64.441406 C 315.09375 68.402344 317.199219 71.011719 320.574219 71.609375 C 322.007813 71.863281 323.507813 71.949219 324.957031 71.851563 C 328.792969 71.597656 331.070313 69.757813 331.902344 66.089844 C 332.808594 62.101563 332.785156 58.0625 331.808594 54.074219 C 331.109375 51.234375 329.253906 49.46875 326.378906 48.914063 C 325.1875 48.683594 323.9375 48.582031 322.726563 48.648438 C 317.886719 48.914063 315.507813 51.03125 314.699219 55.769531 C 314.453125 57.214844 314.433594 58.695313 314.308594 60.128906 Z M 303.347656 61.957031 C 303.464844 56.355469 303.949219 52.28125 305.78125 48.476563 C 308.726563 42.367188 313.773438 39.320313 320.339844 38.507813 C 323.738281 38.085938 327.117188 38.289063 330.4375 39.136719 C 336.601563 40.710938 340.550781 44.667969 342.207031 50.738281 C 344.042969 57.460938 344.148438 64.242188 341.632813 70.84375 C 339.101563 77.496094 334.058594 81.046875 327.074219 81.980469 C 323.304688 82.484375 319.578125 82.285156 315.917969 81.222656 C 309.851563 79.460938 306.117188 75.355469 304.582031 69.335938 C 303.851563 66.46875 303.59375 63.480469 303.347656 61.957031 "/>
<g clip-path="url(#clip1)" clip-rule="nonzero">
<path style=" stroke:none;fill-rule:nonzero;fill:rgb(0%,57.598877%,80.39856%);fill-opacity:1;" d="M 719.308594 60.128906 C 719.421875 61.59375 719.484375 63.023438 719.644531 64.441406 C 720.09375 68.402344 722.199219 71.011719 725.574219 71.609375 C 727.007813 71.863281 728.507813 71.949219 729.957031 71.851563 C 733.792969 71.597656 736.070313 69.757813 736.902344 66.089844 C 737.808594 62.101563 737.785156 58.0625 736.808594 54.074219 C 736.109375 51.234375 734.253906 49.46875 731.378906 48.914063 C 730.1875 48.683594 728.9375 48.582031 727.726563 48.648438 C 722.886719 48.914063 720.507813 51.03125 719.699219 55.769531 C 719.453125 57.214844 719.433594 58.695313 719.308594 60.128906 Z M 708.347656 61.957031 C 708.464844 56.355469 708.949219 52.28125 710.78125 48.476563 C 713.726563 42.367188 718.769531 39.320313 725.339844 38.507813 C 728.738281 38.085938 732.117188 38.289063 735.4375 39.136719 C 741.601563 40.710938 745.550781 44.667969 747.207031 50.738281 C 749.042969 57.460938 749.148438 64.242188 746.632813 70.84375 C 744.101563 77.496094 739.058594 81.046875 732.074219 81.980469 C 728.304688 82.484375 724.578125 82.285156 720.917969 81.222656 C 714.851563 79.460938 711.117188 75.355469 709.582031 69.335938 C 708.851563 66.46875 708.59375 63.480469 708.347656 61.957031 "/>
</g>
<path style=" stroke:none;fill-rule:nonzero;fill:rgb(0%,57.598877%,80.39856%);fill-opacity:1;" d="M 210.164063 64.03125 C 206.84375 64.03125 203.625 63.871094 200.433594 64.085938 C 198.257813 64.234375 197.234375 65.753906 197.152344 68.09375 C 197.058594 70.792969 197.921875 72.160156 200.15625 72.710938 C 200.859375 72.886719 201.605469 72.964844 202.332031 72.976563 C 204.964844 73.019531 207.59375 73 210.164063 72.304688 C 210.164063 69.445313 210.164063 66.714844 210.164063 64.03125 Z M 189.015625 40.332031 C 194.375 38.945313 199.6875 38.007813 205.175781 38.402344 C 208.21875 38.621094 211.167969 39.15625 213.894531 40.59375 C 217.882813 42.703125 220.015625 46.117188 220.707031 50.484375 C 220.917969 51.808594 220.992188 53.167969 220.996094 54.511719 C 221.023438 62.492188 221.003906 70.472656 221.019531 78.449219 C 221.023438 79.167969 220.960938 79.648438 220.109375 79.890625 C 212.269531 82.128906 204.332031 83.050781 196.257813 81.460938 C 189.855469 80.203125 186.496094 76.058594 186.300781 69.519531 C 186.183594 65.707031 186.886719 62.179688 189.808594 59.449219 C 192.109375 57.296875 194.957031 56.238281 198.007813 55.976563 C 201.421875 55.679688 204.867188 55.707031 208.296875 55.597656 C 208.863281 55.582031 209.429688 55.597656 209.976563 55.597656 C 210.796875 50.972656 209.578125 48.8125 204.546875 48.347656 C 200.152344 47.945313 195.816406 48.449219 191.613281 49.863281 C 191.3125 49.964844 190.996094 50.027344 190.597656 50.128906 C 190.066406 46.832031 189.546875 43.621094 189.015625 40.332031 "/>
<path style=" stroke:none;fill-rule:nonzero;fill:rgb(0%,57.598877%,80.39856%);fill-opacity:1;" d="M 238 81.195313 C 234.28125 81.195313 230.765625 81.195313 227.160156 81.195313 C 227.160156 67.804688 227.160156 54.441406 227.160156 40.75 C 229.933594 40.179688 232.773438 39.429688 235.664063 39.046875 C 240.367188 38.421875 245.101563 37.976563 249.855469 38.503906 C 255.070313 39.082031 259.644531 40.8125 262.382813 45.695313 C 263.707031 48.0625 264.324219 50.667969 264.347656 53.335938 C 264.425781 62.464844 264.382813 71.59375 264.386719 80.71875 C 264.386719 80.835938 264.347656 80.953125 264.3125 81.148438 C 260.78125 81.148438 257.246094 81.148438 253.59375 81.148438 C 253.59375 80.671875 253.59375 80.234375 253.59375 79.792969 C 253.59375 71.773438 253.597656 63.75 253.589844 55.726563 C 253.589844 51.171875 251.898438 49.074219 247.367188 48.753906 C 244.625 48.558594 241.835938 49.027344 239.066406 49.179688 C 238.164063 49.226563 237.972656 49.6875 237.980469 50.53125 C 238.019531 55.15625 238 59.78125 238 64.40625 C 238 69.523438 238 74.640625 238 79.757813 C 238 80.199219 238 80.640625 238 81.195313 "/>
<path style=" stroke:none;fill-rule:nonzero;fill:rgb(0%,57.598877%,80.39856%);fill-opacity:1;" d="M 300.863281 40.332031 C 300.296875 43.8125 299.75 47.152344 299.238281 50.304688 C 296.65625 49.761719 294.179688 49.042969 291.65625 48.777344 C 289.785156 48.578125 287.800781 48.742188 285.960938 49.15625 C 282.890625 49.851563 281.101563 52.050781 280.355469 55.046875 C 279.554688 58.277344 279.585938 61.546875 280.398438 64.765625 C 281.527344 69.242188 284.847656 71.734375 289.628906 71.910156 C 293.148438 72.039063 296.515625 71.304688 299.9375 70.175781 C 300.492188 73.570313 301.042969 76.90625 301.628906 80.46875 C 299.449219 80.941406 297.335938 81.5 295.183594 81.839844 C 290.601563 82.570313 286.039063 82.4375 281.632813 80.867188 C 275.921875 78.832031 272.039063 74.914063 270.191406 69.117188 C 268.242188 63.007813 268.292969 56.863281 270.46875 50.828125 C 273.132813 43.441406 278.644531 39.539063 286.289063 38.535156 C 291.238281 37.882813 296.050781 38.570313 300.863281 40.332031 "/>
<path style=" stroke:none;fill-rule:nonzero;fill:rgb(0%,57.598877%,80.39856%);fill-opacity:1;" d="M 391.386719 62.050781 C 391.386719 59.054688 391.355469 56.058594 391.40625 53.066406 C 391.421875 52.242188 391.203125 51.746094 390.371094 51.652344 C 388.464844 51.433594 386.535156 50.980469 384.640625 51.097656 C 380.425781 51.351563 378.34375 53.035156 377.539063 56.539063 C 376.839844 59.601563 376.820313 62.710938 377.320313 65.804688 C 377.847656 69.089844 379.445313 71.566406 382.914063 72.316406 C 385.425781 72.859375 387.949219 72.710938 390.476563 72.253906 C 391.277344 72.105469 391.40625 71.746094 391.398438 71.039063 C 391.367188 68.042969 391.386719 65.046875 391.386719 62.050781 Z M 366.761719 60.089844 C 367.136719 58.046875 367.339844 55.957031 367.914063 53.972656 C 370.484375 45.085938 377.882813 40.890625 386.664063 41.535156 C 388.203125 41.648438 389.722656 41.96875 391.363281 42.207031 C 391.363281 37.164063 391.363281 32.0625 391.363281 26.898438 C 394.769531 26.898438 398.054688 26.898438 401.472656 26.898438 C 401.492188 27.246094 401.53125 27.605469 401.53125 27.96875 C 401.535156 44.863281 401.535156 61.757813 401.535156 78.648438 C 401.535156 79.210938 401.632813 79.753906 400.859375 80 C 393.722656 82.25 386.46875 83.167969 379.152344 81.191406 C 372.363281 79.355469 368.804688 74.4375 367.457031 67.753906 C 367.128906 66.132813 366.988281 64.46875 366.761719 62.824219 C 366.761719 61.914063 366.761719 61 366.761719 60.089844 "/>
<path style=" stroke:none;fill-rule:nonzero;fill:rgb(0%,57.598877%,80.39856%);fill-opacity:1;" d="M 433 57.285156 C 433.410156 54.6875 432.269531 52.269531 430.023438 51.175781 C 427.4375 49.917969 424.75 49.882813 422.117188 50.996094 C 419.757813 51.996094 418.445313 54.855469 419.085938 57.285156 C 423.726563 57.285156 428.367188 57.285156 433 57.285156 Z M 441.84375 65.570313 C 434.269531 65.570313 426.652344 65.570313 419.050781 65.570313 C 418.632813 68.003906 419.917969 70.253906 422.414063 71.460938 C 425.109375 72.761719 428 72.894531 430.871094 72.488281 C 433.925781 72.058594 436.9375 71.355469 440.0625 70.753906 C 440.519531 73.511719 441.023438 76.449219 441.453125 79.394531 C 441.488281 79.636719 441.085938 80.136719 440.808594 80.210938 C 438.507813 80.800781 436.210938 81.484375 433.863281 81.824219 C 429.527344 82.453125 425.183594 82.425781 420.886719 81.339844 C 414.269531 79.667969 410.433594 75.378906 409.121094 68.785156 C 407.945313 62.84375 408.0625 56.929688 410.316406 51.234375 C 412.667969 45.300781 417.238281 42.28125 423.503906 41.605469 C 426.40625 41.292969 429.269531 41.445313 432.078125 42.183594 C 437.554688 43.625 440.800781 47.277344 442.105469 52.695313 C 443.058594 56.65625 443.070313 60.652344 442.199219 64.640625 C 442.15625 64.824219 442.113281 65.011719 442.054688 65.1875 C 442.019531 65.292969 441.945313 65.386719 441.84375 65.570313 "/>
<path style=" stroke:none;fill-rule:nonzero;fill:rgb(0%,57.598877%,80.39856%);fill-opacity:1;" d="M 465.734375 72.128906 C 466.226563 75.191406 466.703125 78.164063 467.203125 81.292969 C 466.417969 81.488281 465.667969 81.757813 464.898438 81.84375 C 460.609375 82.324219 456.503906 82.042969 453.40625 78.5 C 451.128906 75.890625 450.632813 72.667969 450.628906 69.351563 C 450.613281 55.566406 450.621094 41.78125 450.621094 27.996094 C 450.621094 27.660156 450.621094 27.324219 450.621094 26.90625 C 453.972656 26.90625 457.253906 26.90625 460.734375 26.90625 C 460.734375 27.367188 460.734375 27.839844 460.734375 28.3125 C 460.734375 40.921875 460.730469 53.527344 460.738281 66.136719 C 460.742188 67.238281 460.789063 68.339844 460.875 69.4375 C 461.066406 71.90625 462.226563 72.789063 464.65625 72.363281 C 464.980469 72.304688 465.300781 72.222656 465.734375 72.128906 "/>
<path style=" stroke:none;fill-rule:nonzero;fill:rgb(0%,57.598877%,80.39856%);fill-opacity:1;" d="M 500.664063 54.027344 C 505.96875 53.796875 511.179688 53.832031 516.324219 53.265625 C 520.320313 52.828125 522.421875 49.933594 522.558594 45.882813 C 522.742188 40.578125 521.144531 37.464844 516.796875 36.808594 C 511.511719 36.015625 506.101563 36.078125 500.664063 35.765625 C 500.664063 42.078125 500.664063 47.84375 500.664063 54.027344 Z M 500.550781 62.707031 C 500.550781 69.023438 500.550781 75.003906 500.550781 81.125 C 497.464844 81.125 494.472656 81.125 491.3125 81.125 C 491.3125 63.242188 491.3125 45.324219 491.3125 27.292969 C 491.726563 27.25 492.15625 27.164063 492.589844 27.164063 C 499.289063 27.15625 505.988281 27.050781 512.683594 27.222656 C 515.421875 27.289063 518.214844 27.699219 520.851563 28.433594 C 527.804688 30.371094 531.871094 35.796875 532.128906 43.484375 C 532.214844 46.085938 531.949219 48.792969 531.285156 51.300781 C 529.640625 57.515625 524.199219 61.679688 516.929688 62.285156 C 512.320313 62.667969 507.671875 62.585938 503.042969 62.703125 C 502.285156 62.722656 501.527344 62.707031 500.550781 62.707031 "/>
<path style=" stroke:none;fill-rule:nonzero;fill:rgb(0%,57.598877%,80.39856%);fill-opacity:1;" d="M 559.96875 62.933594 C 556.109375 63.128906 552.4375 63.128906 548.820313 63.558594 C 546.070313 63.882813 544.691406 65.949219 544.726563 68.792969 C 544.765625 71.765625 546.035156 73.410156 548.855469 73.972656 C 552.582031 74.71875 556.25 74.242188 559.96875 73.4375 C 559.96875 70.015625 559.96875 66.691406 559.96875 62.933594 Z M 560.050781 56.023438 C 560.050781 55.050781 560.0625 54.285156 560.050781 53.519531 C 560 50.027344 558.421875 48.203125 554.941406 47.644531 C 550.40625 46.914063 545.976563 47.503906 541.589844 48.695313 C 541.046875 48.84375 540.503906 48.992188 539.785156 49.191406 C 539.332031 46.378906 538.898438 43.691406 538.441406 40.859375 C 545.402344 39.058594 552.285156 38.0625 559.265625 39.910156 C 565.179688 41.476563 568.71875 45.511719 568.945313 51.644531 C 569.28125 60.582031 569.183594 69.535156 569.1875 78.484375 C 569.191406 78.976563 568.5625 79.785156 568.078125 79.921875 C 560.703125 82.042969 553.183594 82.992188 545.597656 81.472656 C 538.652344 80.082031 535.273438 75.566406 535.527344 68.734375 C 535.785156 61.71875 539.585938 57.417969 546.726563 56.585938 C 550.605469 56.132813 554.554688 56.246094 558.472656 56.105469 C 558.914063 56.089844 559.351563 56.058594 560.050781 56.023438 "/>
<path style=" stroke:none;fill-rule:nonzero;fill:rgb(0%,57.598877%,80.39856%);fill-opacity:1;" d="M 655.910156 21.8125 C 655.433594 24.8125 655 27.519531 654.621094 29.898438 C 651.335938 29.6875 648.265625 29.183594 645.242188 29.382813 C 641.839844 29.605469 640.585938 31.195313 640.140625 34.570313 C 639.449219 39.816406 639.449219 39.816406 644.570313 39.816406 C 647.714844 39.816406 650.855469 39.816406 654.132813 39.816406 C 654.132813 42.714844 654.132813 45.449219 654.132813 48.386719 C 649.523438 48.386719 644.921875 48.386719 640.101563 48.386719 C 640.101563 59.371094 640.101563 70.160156 640.101563 81.105469 C 636.921875 81.105469 633.953125 81.105469 630.769531 81.105469 C 630.769531 80.371094 630.769531 79.675781 630.769531 78.980469 C 630.769531 65.203125 630.75 51.421875 630.792969 37.640625 C 630.800781 35.53125 630.949219 33.394531 631.296875 31.3125 C 632.308594 25.261719 635.933594 21.710938 641.992188 20.8125 C 646.609375 20.128906 651.1875 20.414063 655.910156 21.8125 "/>
<path style=" stroke:none;fill-rule:nonzero;fill:rgb(0%,57.598877%,80.39856%);fill-opacity:1;" d="M 606.363281 40.9375 C 605.890625 43.839844 605.445313 46.609375 604.992188 49.402344 C 602.710938 48.863281 600.582031 48.109375 598.402344 47.914063 C 596.132813 47.710938 593.757813 47.765625 591.523438 48.207031 C 588.230469 48.855469 585.867188 51.101563 585.339844 54.367188 C 584.792969 57.746094 584.5 61.328125 585.023438 64.675781 C 586.042969 71.167969 590.75 74.1875 597.757813 73.378906 C 600.410156 73.070313 603.023438 72.421875 605.816406 71.898438 C 606.261719 74.570313 606.722656 77.328125 607.210938 80.257813 C 599.867188 82.4375 592.652344 83.308594 585.511719 80.046875 C 580.714844 77.855469 577.769531 73.949219 576.335938 68.960938 C 574.71875 63.335938 574.722656 57.640625 576.4375 52.035156 C 579.09375 43.355469 586.425781 38.46875 595.945313 39.007813 C 598.5 39.148438 601.042969 39.59375 603.574219 40.003906 C 604.5 40.152344 605.378906 40.597656 606.363281 40.9375 "/>
<path style=" stroke:none;fill-rule:nonzero;fill:rgb(0%,57.598877%,80.39856%);fill-opacity:1;" d="M 704.851563 40.941406 C 704.359375 43.933594 703.914063 46.648438 703.460938 49.394531 C 701.207031 48.863281 699.078125 48.117188 696.902344 47.917969 C 694.628906 47.714844 692.253906 47.761719 690.023438 48.199219 C 686.730469 48.84375 684.355469 51.078125 683.824219 54.347656 C 683.273438 57.722656 682.972656 61.308594 683.496094 64.65625 C 684.507813 71.152344 689.207031 74.179688 696.210938 73.378906 C 698.867188 73.074219 701.480469 72.429688 704.292969 71.90625 C 704.734375 74.554688 705.195313 77.308594 705.691406 80.269531 C 698.089844 82.460938 690.648438 83.402344 683.328125 79.699219 C 678.875 77.449219 676.179688 73.675781 674.820313 68.980469 C 673.195313 63.359375 673.203125 57.664063 674.90625 52.058594 C 677.550781 43.378906 684.878906 38.480469 694.402344 39.003906 C 696.957031 39.144531 699.496094 39.589844 702.027344 39.996094 C 702.953125 40.148438 703.835938 40.589844 704.851563 40.941406 "/>
<path style=" stroke:none;fill-rule:nonzero;fill:rgb(0%,57.598877%,80.39856%);fill-opacity:1;" d="M 613.019531 39.914063 C 616.046875 39.914063 618.980469 39.914063 622.027344 39.914063 C 622.027344 53.691406 622.027344 67.367188 622.027344 81.15625 C 619.035156 81.15625 616.101563 81.15625 613.019531 81.15625 C 613.019531 67.488281 613.019531 53.8125 613.019531 39.914063 "/>
<path style=" stroke:none;fill-rule:nonzero;fill:rgb(0%,57.598877%,80.39856%);fill-opacity:1;" d="M 668.160156 81.21875 C 665.101563 81.21875 662.214844 81.21875 659.171875 81.21875 C 659.171875 67.503906 659.171875 53.828125 659.171875 39.984375 C 662.085938 39.984375 665.0625 39.984375 668.160156 39.984375 C 668.160156 53.671875 668.160156 67.351563 668.160156 81.21875 "/>
<path style=" stroke:none;fill-rule:nonzero;fill:rgb(0%,57.598877%,80.39856%);fill-opacity:1;" d="M 669.167969 26.695313 C 669.191406 29.875 666.773438 32.320313 663.605469 32.316406 C 660.480469 32.3125 657.925781 29.765625 657.964844 26.695313 C 658 23.714844 660.515625 21.1875 663.507813 21.117188 C 666.59375 21.046875 669.144531 23.558594 669.167969 26.695313 "/>
<path style=" stroke:none;fill-rule:nonzero;fill:rgb(0%,57.598877%,80.39856%);fill-opacity:1;" d="M 613.359375 34.484375 C 615.589844 30.648438 617.613281 27.117188 619.710938 23.628906 C 619.914063 23.285156 620.554688 23.039063 620.996094 23.03125 C 623.488281 22.972656 625.984375 23.003906 628.910156 23.003906 C 628.359375 23.808594 628.015625 24.359375 627.625 24.878906 C 625.628906 27.554688 623.550781 30.171875 621.65625 32.914063 C 620.777344 34.1875 619.789063 34.625 618.3125 34.511719 C 616.800781 34.394531 615.277344 34.484375 613.359375 34.484375 "/>
<path style=" stroke:none;fill-rule:nonzero;fill:rgb(0%,57.598877%,80.39856%);fill-opacity:1;" d="M 89.480469 67.910156 C 90.121094 73.378906 88.691406 78.339844 85.445313 82.757813 C 82.835938 86.304688 79.425781 88.847656 75.234375 90.183594 C 69.964844 91.863281 64.84375 91.835938 59.945313 89.542969 C 55.019531 87.210938 52.246094 83.484375 52.246094 83.484375 C 50.238281 86 48.109375 87.664063 46.839844 88.53125 C 43.554688 90.78125 39.863281 91.65625 35.957031 91.507813 C 27.128906 91.171875 20.632813 87.03125 16.839844 79.042969 C 12.460938 69.820313 15.703125 58.496094 24.15625 52.738281 C 27.796875 50.261719 31.8125 49.007813 36.21875 49.011719 C 39.582031 49.011719 42.945313 49.011719 46.308594 49.011719 C 47.425781 49.011719 47.429688 49.003906 47.429688 47.898438 C 47.425781 44.660156 47.425781 41.425781 47.425781 38.191406 C 47.792969 33.441406 49.589844 25.167969 57.328125 20.25 C 57.714844 20 58.097656 19.746094 58.476563 19.492188 C 61.164063 17.863281 64.023438 17.09375 67.078125 16.925781 C 70.554688 16.738281 73.910156 17.273438 77.113281 18.683594 C 80.316406 20.09375 83.015625 22.164063 85.183594 24.898438 C 87.980469 28.421875 89.621094 32.445313 89.746094 36.941406 C 89.933594 43.691406 87.625 49.496094 82.574219 54.210938 C 86.917969 57.785156 88.855469 62.546875 89.480469 67.910156 Z M 104.523438 29.3125 C 103.367188 19.628906 98.78125 11.9375 90.929688 6.21875 C 85.785156 2.472656 79.976563 0.472656 73.613281 0.117188 C 73.351563 0.101563 73.089844 0.0351563 72.828125 -0.00390625 C 67.855469 -0.00390625 62.882813 -0.00390625 57.914063 -0.00390625 C 57.71875 -0.00390625 57.523438 -0.00390625 57.328125 -0.00390625 L 47.4375 -0.00390625 C 46.078125 -0.00390625 44.714844 -0.00390625 43.351563 -0.00390625 C 28.902344 -0.00390625 14.453125 -0.00390625 0 -0.00390625 C 0 25.382813 0 50.773438 0 76.164063 C 0.175781 77.390625 0.3125 78.628906 0.539063 79.851563 C 1.933594 87.375 5.542969 93.660156 11.296875 98.679688 C 16.976563 103.632813 23.625 106.304688 31.15625 106.765625 C 31.371094 106.78125 31.585938 106.851563 31.804688 106.898438 C 36.246094 106.898438 40.691406 106.898438 45.136719 106.898438 C 45.902344 106.898438 46.671875 106.898438 47.4375 106.898438 L 57.191406 106.898438 C 58.425781 106.898438 59.65625 106.898438 60.890625 106.898438 C 75.515625 106.898438 90.140625 106.898438 104.765625 106.898438 C 104.765625 81.257813 104.765625 55.660156 104.765625 30.0625 C 104.679688 29.8125 104.554688 29.570313 104.523438 29.3125 "/>
<path style=" stroke:none;fill-rule:nonzero;fill:rgb(0%,57.598877%,80.39856%);fill-opacity:1;" d="M 47.394531 60.515625 C 47.390625 59.691406 47.324219 59.625 46.519531 59.621094 C 43.070313 59.617188 39.617188 59.585938 36.164063 59.617188 C 29.441406 59.683594 24.4375 65.414063 25.238281 72.097656 C 25.898438 77.613281 30.652344 81.777344 36.257813 81.757813 C 41.894531 81.734375 46.765625 77.460938 47.277344 71.929688 C 47.464844 69.921875 47.308594 67.882813 47.308594 65.859375 C 47.335938 65.859375 47.367188 65.859375 47.394531 65.859375 C 47.394531 64.078125 47.402344 62.296875 47.394531 60.515625 "/>
<path style=" stroke:none;fill-rule:nonzero;fill:rgb(0%,57.598877%,80.39856%);fill-opacity:1;" d="M 68.03125 26.679688 C 62.058594 27.050781 57.4375 31.683594 57.355469 37.449219 C 57.308594 40.941406 57.355469 44.4375 57.335938 47.933594 C 57.332031 48.570313 57.566406 48.796875 58.199219 48.789063 C 60.066406 48.765625 61.9375 48.78125 63.808594 48.78125 C 63.808594 48.777344 63.808594 48.777344 63.808594 48.777344 C 65.367188 48.777344 66.925781 48.78125 68.480469 48.777344 C 75.339844 48.761719 80.449219 42.847656 79.46875 36.070313 C 78.660156 30.492188 73.589844 26.332031 68.03125 26.679688 "/>
<path style=" stroke:none;fill-rule:nonzero;fill:rgb(0%,57.598877%,80.39856%);fill-opacity:1;" d="M 68.585938 59.457031 C 66.941406 59.4375 65.292969 59.453125 63.648438 59.453125 C 61.800781 59.453125 59.953125 59.449219 58.105469 59.453125 C 57.261719 59.457031 57.199219 59.515625 57.199219 60.371094 C 57.195313 63.6875 57.199219 67.003906 57.195313 70.316406 C 57.179688 76.984375 62.667969 82.050781 69.328125 81.515625 C 75.257813 81.039063 79.609375 76.019531 79.394531 69.894531 C 79.195313 64.199219 74.355469 59.519531 68.585938 59.457031 "/>
<path style=" stroke:none;fill-rule:nonzero;fill:rgb(0%,57.598877%,80.39856%);fill-opacity:1;" d="M 490.027344 106.410156 C 490.363281 106.351563 490.703125 106.246094 491.039063 106.246094 C 496.972656 106.234375 502.902344 106.253906 508.835938 106.222656 C 509.617188 106.21875 509.863281 106.46875 509.828125 107.226563 C 509.777344 108.363281 509.789063 109.503906 509.824219 110.644531 C 509.851563 111.507813 509.304688 111.457031 508.722656 111.464844 C 508.128906 111.476563 507.6875 111.417969 507.742188 110.632813 C 507.796875 109.878906 507.753906 109.121094 507.753906 108.335938 C 507.488281 108.285156 507.292969 108.222656 507.097656 108.222656 C 505.316406 108.214844 503.53125 108.222656 501.75 108.214844 C 501.3125 108.210938 501.03125 108.289063 501.035156 108.832031 C 501.046875 115.753906 501.046875 122.679688 501.054688 129.605469 C 501.054688 129.6875 501.101563 129.765625 501.160156 129.941406 C 501.804688 129.941406 502.472656 129.976563 503.132813 129.933594 C 503.863281 129.886719 504.03125 130.25 504.019531 130.886719 C 504.007813 131.472656 503.980469 131.882813 503.183594 131.863281 C 501.023438 131.8125 498.859375 131.820313 496.695313 131.863281 C 496 131.875 495.851563 131.570313 495.867188 130.972656 C 495.882813 130.414063 495.859375 129.894531 496.664063 129.9375 C 497.335938 129.972656 498.007813 129.945313 498.792969 129.945313 C 498.8125 129.601563 498.847656 129.296875 498.847656 128.992188 C 498.847656 122.386719 498.835938 115.78125 498.867188 109.179688 C 498.867188 108.394531 498.632813 108.175781 497.871094 108.199219 C 496.265625 108.253906 494.65625 108.214844 493.050781 108.21875 C 492.765625 108.222656 492.484375 108.261719 492.128906 108.289063 C 492.128906 108.976563 492.128906 109.585938 492.128906 110.195313 C 492.128906 111.457031 491.429688 111.871094 490.234375 111.308594 C 490.15625 111.269531 490.097656 111.203125 490.027344 111.148438 C 490.027344 109.566406 490.027344 107.988281 490.027344 106.410156 "/>
<g clip-path="url(#clip2)" clip-rule="nonzero">
<path style=" stroke:none;fill-rule:nonzero;fill:rgb(0%,57.598877%,80.39856%);fill-opacity:1;" d="M 555.929688 123.203125 C 555.820313 121.859375 555.777344 120.808594 555.640625 119.769531 C 555.3125 117.296875 553.6875 115.664063 551.480469 115.527344 C 548.515625 115.339844 546.730469 116.425781 546.105469 119.015625 C 545.464844 121.660156 545.449219 124.351563 546.183594 126.988281 C 546.800781 129.207031 548.515625 130.320313 550.960938 130.269531 C 553.273438 130.21875 554.953125 128.957031 555.453125 126.726563 C 555.734375 125.484375 555.800781 124.195313 555.929688 123.203125 Z M 543.609375 108.144531 C 542.921875 108.144531 542.308594 108.117188 541.699219 108.148438 C 540.964844 108.1875 540.914063 107.746094 540.921875 107.1875 C 540.929688 106.65625 540.910156 106.195313 541.679688 106.226563 C 542.730469 106.273438 543.785156 106.273438 544.835938 106.226563 C 545.492188 106.195313 545.695313 106.429688 545.6875 107.078125 C 545.660156 109.824219 545.679688 112.574219 545.679688 115.320313 C 545.679688 115.601563 545.679688 115.878906 545.679688 116.160156 C 546.773438 114.644531 548.1875 113.769531 550 113.601563 C 554.554688 113.179688 556.984375 115.042969 557.703125 119.613281 C 558.117188 122.226563 558.085938 124.851563 557.421875 127.441406 C 556.8125 129.796875 555.496094 131.527344 553.007813 132.003906 C 550.261719 132.53125 547.6875 132.289063 545.945313 129.664063 C 545.917969 129.625 545.851563 129.609375 545.675781 129.515625 C 545.675781 130.113281 545.660156 130.648438 545.679688 131.183594 C 545.699219 131.667969 545.507813 131.863281 545.011719 131.855469 C 543.871094 131.832031 542.730469 131.828125 541.59375 131.855469 C 540.925781 131.871094 540.917969 131.457031 540.929688 130.988281 C 540.941406 130.496094 540.828125 129.933594 541.609375 129.941406 C 542.25 129.949219 542.890625 129.945313 543.609375 129.945313 C 543.609375 122.675781 543.609375 115.476563 543.609375 108.144531 "/>
</g>
<path style=" stroke:none;fill-rule:nonzero;fill:rgb(0%,57.598877%,80.39856%);fill-opacity:1;" d="M 595.15625 129.941406 C 595.15625 126.269531 595.304688 122.761719 595.105469 119.269531 C 594.957031 116.71875 593.316406 115.507813 590.726563 115.496094 C 588.234375 115.488281 586.375 116.976563 586.007813 119.300781 C 585.917969 119.875 585.867188 120.460938 585.867188 121.039063 C 585.851563 123.957031 585.859375 126.875 585.859375 129.945313 C 586.566406 129.945313 587.195313 129.972656 587.820313 129.9375 C 588.617188 129.894531 588.613281 130.394531 588.628906 130.964844 C 588.640625 131.566406 588.503906 131.875 587.804688 131.859375 C 585.84375 131.820313 583.886719 131.820313 581.929688 131.859375 C 581.234375 131.875 581.082031 131.578125 581.101563 130.96875 C 581.117188 130.402344 581.097656 129.894531 581.898438 129.9375 C 582.507813 129.972656 583.117188 129.945313 583.8125 129.945313 C 583.832031 129.585938 583.867188 129.304688 583.867188 129.023438 C 583.871094 124.933594 583.847656 120.839844 583.886719 116.75 C 583.894531 115.914063 583.617188 115.632813 582.832031 115.738281 C 582.601563 115.769531 582.363281 115.722656 582.132813 115.746094 C 581.410156 115.835938 581.082031 115.617188 581.085938 114.800781 C 581.085938 114.003906 581.433594 113.871094 582.097656 113.894531 C 583.089844 113.925781 584.085938 113.933594 585.074219 113.890625 C 585.695313 113.867188 585.917969 114.097656 585.867188 114.703125 C 585.828125 115.15625 585.859375 115.617188 585.9375 116.117188 C 586.847656 114.882813 587.96875 114.003906 589.457031 113.710938 C 593.324219 112.945313 596.953125 114.515625 597.230469 119.292969 C 597.410156 122.410156 597.316406 125.542969 597.34375 128.667969 C 597.347656 129.042969 597.34375 129.421875 597.34375 129.945313 C 598.011719 129.945313 598.613281 129.972656 599.210938 129.9375 C 599.988281 129.886719 600.039063 130.347656 600.039063 130.941406 C 600.039063 131.515625 599.96875 131.875 599.242188 131.859375 C 597.285156 131.820313 595.324219 131.816406 593.367188 131.863281 C 592.628906 131.878906 592.570313 131.507813 592.574219 130.945313 C 592.578125 130.371094 592.59375 129.878906 593.390625 129.933594 C 593.992188 129.976563 594.601563 129.941406 595.15625 129.941406 "/>
<g clip-path="url(#clip3)" clip-rule="nonzero">
<path style=" stroke:none;fill-rule:nonzero;fill:rgb(0%,57.598877%,80.39856%);fill-opacity:1;" d="M 573.542969 123.371094 C 571.894531 123.371094 570.351563 123.328125 568.808594 123.386719 C 567.972656 123.417969 567.121094 123.539063 566.316406 123.765625 C 564.863281 124.171875 564.144531 125.167969 564.078125 126.640625 C 564.007813 128.285156 564.664063 129.40625 566.117188 129.945313 C 567.984375 130.636719 569.851563 130.542969 571.628906 129.644531 C 572.703125 129.101563 573.414063 128.183594 573.523438 126.972656 C 573.621094 125.816406 573.542969 124.644531 573.542969 123.371094 Z M 575.617188 129.941406 C 576.308594 129.941406 576.863281 129.984375 577.40625 129.933594 C 578.203125 129.855469 578.316406 130.261719 578.3125 130.929688 C 578.308594 131.5625 578.203125 131.914063 577.445313 131.863281 C 576.488281 131.800781 575.515625 131.796875 574.554688 131.863281 C 573.78125 131.914063 573.570313 131.582031 573.636719 130.894531 C 573.664063 130.582031 573.640625 130.261719 573.640625 129.671875 C 572.515625 131.25 571.121094 132.015625 569.492188 132.09375 C 568.117188 132.160156 566.664063 132.125 565.355469 131.75 C 562.953125 131.066406 561.914063 129.054688 562.132813 126.132813 C 562.300781 123.953125 563.859375 122.226563 566.332031 121.894531 C 568.289063 121.628906 570.289063 121.699219 572.269531 121.628906 C 572.671875 121.613281 573.070313 121.625 573.667969 121.625 C 573.554688 120.164063 573.582031 118.8125 573.308594 117.523438 C 572.972656 115.964844 571.609375 115.46875 570.222656 115.429688 C 568.871094 115.394531 567.507813 115.636719 566.15625 115.796875 C 565.523438 115.875 565.183594 116.242188 565.296875 116.945313 C 565.34375 117.257813 565.269531 117.589844 565.308594 117.90625 C 565.414063 118.679688 565.105469 118.894531 564.335938 118.910156 C 563.5 118.925781 563.257813 118.640625 563.324219 117.855469 C 563.382813 117.21875 563.398438 116.566406 563.320313 115.929688 C 563.21875 115.066406 563.628906 114.679688 564.375 114.394531 C 566.875 113.4375 569.433594 113.261719 572.027344 113.8125 C 574.074219 114.25 575.347656 115.75 575.46875 117.917969 C 575.597656 120.277344 575.585938 122.644531 575.613281 125.011719 C 575.636719 126.613281 575.617188 128.214844 575.617188 129.941406 "/>
</g>
<g clip-path="url(#clip4)" clip-rule="nonzero">
<path style=" stroke:none;fill-rule:nonzero;fill:rgb(0%,57.598877%,80.39856%);fill-opacity:1;" d="M 525.828125 129.941406 C 526.535156 129.941406 527.140625 129.976563 527.742188 129.933594 C 528.523438 129.882813 528.578125 130.347656 528.574219 130.9375 C 528.574219 131.492188 528.523438 131.898438 527.78125 131.859375 C 526.734375 131.808594 525.679688 131.816406 524.628906 131.859375 C 524.011719 131.882813 523.773438 131.660156 523.808594 131.054688 C 523.835938 130.601563 523.816406 130.140625 523.738281 129.640625 C 522.222656 131.820313 520.089844 132.398438 517.65625 132.179688 C 514.601563 131.902344 512.550781 129.519531 512.503906 126.148438 C 512.453125 122.992188 512.464844 119.835938 512.496094 116.679688 C 512.503906 115.953125 512.289063 115.648438 511.558594 115.738281 C 511.296875 115.769531 511.03125 115.746094 510.769531 115.742188 C 509.765625 115.738281 509.714844 115.652344 509.730469 114.636719 C 509.742188 114.054688 509.992188 113.882813 510.535156 113.894531 C 511.558594 113.921875 512.582031 113.941406 513.605469 113.890625 C 514.304688 113.855469 514.511719 114.113281 514.507813 114.792969 C 514.480469 117.917969 514.484375 121.046875 514.503906 124.175781 C 514.507813 125.019531 514.511719 125.878906 514.660156 126.707031 C 515.054688 128.894531 516.304688 130.042969 518.390625 130.25 C 520.65625 130.480469 522.632813 129.441406 523.355469 127.488281 C 523.660156 126.660156 523.777344 125.726563 523.792969 124.839844 C 523.847656 122.152344 523.789063 119.460938 523.828125 116.773438 C 523.84375 115.988281 523.636719 115.609375 522.804688 115.738281 C 522.605469 115.769531 522.394531 115.746094 522.191406 115.742188 C 521.136719 115.742188 520.785156 115.285156 521.117188 114.289063 C 521.171875 114.125 521.4375 113.929688 521.609375 113.925781 C 522.835938 113.894531 524.066406 113.910156 525.292969 113.90625 C 525.949219 113.90625 525.828125 114.390625 525.828125 114.777344 C 525.832031 119.457031 525.828125 124.132813 525.828125 128.808594 C 525.828125 129.148438 525.828125 129.492188 525.828125 129.941406 "/>
</g>
<g clip-path="url(#clip5)" clip-rule="nonzero">
<path style=" stroke:none;fill-rule:nonzero;fill:rgb(0%,57.598877%,80.39856%);fill-opacity:1;" d="M 634.296875 122.90625 C 633.988281 121.363281 633.859375 119.796875 633.34375 118.371094 C 632.605469 116.34375 630.917969 115.492188 628.785156 115.5 C 626.609375 115.507813 624.9375 116.488281 624.253906 118.417969 C 623.210938 121.371094 623.214844 124.390625 624.257813 127.335938 C 624.9375 129.253906 626.671875 130.292969 628.800781 130.265625 C 630.902344 130.234375 632.621094 129.40625 633.347656 127.359375 C 633.847656 125.957031 633.988281 124.425781 634.296875 122.90625 Z M 636.261719 123.050781 C 636.082031 124.265625 635.980469 125.671875 635.65625 127.027344 C 634.675781 131.136719 631.148438 132.699219 627.488281 132.101563 C 624.0625 131.542969 622.339844 129.625 621.699219 125.792969 C 621.304688 123.445313 621.347656 121.078125 621.953125 118.75 C 622.84375 115.339844 625.46875 113.386719 628.96875 113.511719 C 632.695313 113.648438 635.191406 115.730469 635.820313 119.296875 C 636.027344 120.472656 636.101563 121.671875 636.261719 123.050781 "/>
</g>
<g clip-path="url(#clip6)" clip-rule="nonzero">
<path style=" stroke:none;fill-rule:nonzero;fill:rgb(0%,57.598877%,80.39856%);fill-opacity:1;" d="M 616.910156 116.980469 C 616.910156 117.359375 616.867188 117.746094 616.917969 118.117188 C 617.03125 118.976563 616.671875 119.238281 615.839844 119.207031 C 615.160156 119.179688 614.839844 118.992188 614.949219 118.289063 C 614.953125 118.261719 614.949219 118.230469 614.949219 118.203125 C 614.933594 115.992188 614.890625 115.890625 612.699219 115.59375 C 611.785156 115.46875 610.816406 115.457031 609.910156 115.601563 C 607.78125 115.945313 606.507813 117.300781 606.023438 119.363281 C 605.5 121.582031 605.503906 123.832031 605.9375 126.058594 C 606.617188 129.5625 609.128906 130.554688 612.519531 130.207031 C 612.660156 130.191406 612.800781 130.140625 612.945313 130.121094 C 614.921875 129.824219 614.945313 129.792969 614.949219 127.871094 C 614.949219 126.71875 614.949219 126.75 616.109375 126.734375 C 616.714844 126.722656 616.960938 126.90625 616.917969 127.53125 C 616.875 128.167969 616.910156 128.8125 616.910156 129.457031 C 616.910156 130.917969 616.921875 130.953125 615.542969 131.476563 C 613.300781 132.328125 610.988281 132.472656 608.660156 131.921875 C 606.21875 131.347656 604.710938 129.722656 604.097656 127.339844 C 603.378906 124.554688 603.371094 121.722656 603.976563 118.921875 C 604.738281 115.390625 607.488281 113.351563 611.300781 113.542969 C 612.765625 113.617188 614.21875 114.011719 615.660156 114.34375 C 616.578125 114.558594 617.117188 115.144531 616.917969 116.191406 C 616.867188 116.445313 616.910156 116.71875 616.910156 116.980469 "/>
</g>
<g clip-path="url(#clip7)" clip-rule="nonzero">
<path style=" stroke:none;fill-rule:nonzero;fill:rgb(0%,57.598877%,80.39856%);fill-opacity:1;" d="M 664.894531 123.203125 C 664.785156 121.859375 664.742188 120.808594 664.605469 119.769531 C 664.277344 117.296875 662.652344 115.664063 660.441406 115.527344 C 657.476563 115.339844 655.695313 116.425781 655.070313 119.015625 C 654.429688 121.660156 654.410156 124.351563 655.144531 126.988281 C 655.765625 129.207031 657.476563 130.320313 659.925781 130.269531 C 662.238281 130.21875 663.914063 128.957031 664.417969 126.726563 C 664.695313 125.484375 664.765625 124.195313 664.894531 123.203125 Z M 652.570313 108.144531 C 651.882813 108.144531 651.273438 108.117188 650.664063 108.148438 C 649.929688 108.1875 649.878906 107.746094 649.886719 107.1875 C 649.894531 106.65625 649.875 106.195313 650.640625 106.226563 C 651.691406 106.273438 652.746094 106.273438 653.796875 106.226563 C 654.453125 106.195313 654.660156 106.429688 654.652344 107.078125 C 654.625 109.824219 654.640625 112.574219 654.640625 115.320313 C 654.640625 115.601563 654.640625 115.878906 654.640625 116.160156 C 655.738281 114.644531 657.152344 113.769531 658.964844 113.601563 C 663.519531 113.179688 665.949219 115.042969 666.667969 119.613281 C 667.078125 122.226563 667.050781 124.851563 666.382813 127.441406 C 665.777344 129.796875 664.457031 131.527344 661.972656 132.003906 C 659.222656 132.53125 656.652344 132.289063 654.910156 129.664063 C 654.882813 129.625 654.816406 129.609375 654.640625 129.515625 C 654.640625 130.113281 654.625 130.648438 654.644531 131.183594 C 654.664063 131.667969 654.472656 131.863281 653.976563 131.855469 C 652.835938 131.832031 651.695313 131.828125 650.554688 131.855469 C 649.886719 131.871094 649.882813 131.457031 649.890625 130.988281 C 649.902344 130.496094 649.792969 129.933594 650.574219 129.941406 C 651.214844 129.949219 651.855469 129.945313 652.570313 129.945313 C 652.570313 122.675781 652.570313 115.476563 652.570313 108.144531 "/>
</g>
<path style=" stroke:none;fill-rule:nonzero;fill:rgb(0%,57.598877%,80.39856%);fill-opacity:1;" d="M 704.117188 129.941406 C 704.117188 126.269531 704.269531 122.761719 704.066406 119.269531 C 703.921875 116.71875 702.28125 115.507813 699.691406 115.496094 C 697.199219 115.488281 695.339844 116.976563 694.972656 119.300781 C 694.882813 119.875 694.832031 120.460938 694.828125 121.039063 C 694.816406 123.957031 694.820313 126.875 694.820313 129.945313 C 695.527344 129.945313 696.15625 129.972656 696.785156 129.9375 C 697.578125 129.894531 697.578125 130.394531 697.589844 130.964844 C 697.605469 131.566406 697.464844 131.875 696.765625 131.859375 C 694.808594 131.820313 692.851563 131.820313 690.894531 131.859375 C 690.199219 131.875 690.046875 131.578125 690.066406 130.96875 C 690.082031 130.402344 690.058594 129.894531 690.863281 129.9375 C 691.46875 129.972656 692.082031 129.945313 692.773438 129.945313 C 692.796875 129.585938 692.828125 129.304688 692.828125 129.023438 C 692.832031 124.933594 692.808594 120.839844 692.851563 116.75 C 692.859375 115.914063 692.582031 115.632813 691.796875 115.738281 C 691.566406 115.769531 691.324219 115.722656 691.09375 115.746094 C 690.371094 115.835938 690.046875 115.617188 690.046875 114.800781 C 690.046875 114.003906 690.394531 113.871094 691.058594 113.894531 C 692.050781 113.925781 693.046875 113.933594 694.039063 113.890625 C 694.660156 113.867188 694.882813 114.097656 694.828125 114.703125 C 694.789063 115.15625 694.820313 115.617188 694.898438 116.117188 C 695.808594 114.882813 696.933594 114.003906 698.417969 113.710938 C 702.285156 112.945313 705.917969 114.515625 706.191406 119.292969 C 706.371094 122.410156 706.277344 125.542969 706.308594 128.667969 C 706.308594 129.042969 706.308594 129.421875 706.308594 129.945313 C 706.976563 129.945313 707.578125 129.972656 708.175781 129.9375 C 708.953125 129.886719 709.003906 130.347656 709.003906 130.941406 C 709.003906 131.515625 708.933594 131.875 708.203125 131.859375 C 706.246094 131.820313 704.289063 131.816406 702.332031 131.863281 C 701.59375 131.878906 701.535156 131.507813 701.535156 130.945313 C 701.539063 130.371094 701.554688 129.878906 702.351563 129.933594 C 702.957031 129.976563 703.5625 129.941406 704.117188 129.941406 "/>
<g clip-path="url(#clip8)" clip-rule="nonzero">
<path style=" stroke:none;fill-rule:nonzero;fill:rgb(0%,57.598877%,80.39856%);fill-opacity:1;" d="M 682.507813 123.371094 C 680.855469 123.371094 679.3125 123.328125 677.773438 123.386719 C 676.9375 123.417969 676.085938 123.539063 675.28125 123.765625 C 673.824219 124.171875 673.105469 125.167969 673.042969 126.640625 C 672.972656 128.285156 673.625 129.40625 675.082031 129.945313 C 676.949219 130.636719 678.8125 130.542969 680.589844 129.644531 C 681.667969 129.101563 682.378906 128.183594 682.484375 126.972656 C 682.585938 125.816406 682.507813 124.644531 682.507813 123.371094 Z M 684.582031 129.941406 C 685.269531 129.941406 685.824219 129.984375 686.371094 129.933594 C 687.167969 129.855469 687.277344 130.261719 687.273438 130.929688 C 687.269531 131.5625 687.164063 131.914063 686.410156 131.863281 C 685.449219 131.800781 684.480469 131.796875 683.519531 131.863281 C 682.742188 131.914063 682.535156 131.582031 682.597656 130.894531 C 682.628906 130.582031 682.601563 130.261719 682.601563 129.671875 C 681.480469 131.25 680.085938 132.015625 678.453125 132.09375 C 677.078125 132.160156 675.628906 132.125 674.320313 131.75 C 671.914063 131.066406 670.875 129.054688 671.097656 126.132813 C 671.261719 123.953125 672.824219 122.226563 675.296875 121.894531 C 677.25 121.628906 679.253906 121.699219 681.234375 121.628906 C 681.632813 121.613281 682.035156 121.625 682.632813 121.625 C 682.515625 120.164063 682.546875 118.8125 682.269531 117.523438 C 681.9375 115.964844 680.574219 115.46875 679.183594 115.429688 C 677.832031 115.394531 676.472656 115.636719 675.117188 115.796875 C 674.488281 115.875 674.148438 116.242188 674.257813 116.945313 C 674.308594 117.257813 674.230469 117.589844 674.273438 117.90625 C 674.378906 118.679688 674.070313 118.894531 673.300781 118.910156 C 672.464844 118.925781 672.21875 118.640625 672.289063 117.855469 C 672.34375 117.21875 672.359375 116.566406 672.285156 115.929688 C 672.183594 115.066406 672.589844 114.679688 673.335938 114.394531 C 675.835938 113.4375 678.398438 113.261719 680.992188 113.8125 C 683.039063 114.25 684.308594 115.75 684.429688 117.917969 C 684.558594 120.277344 684.550781 122.644531 684.578125 125.011719 C 684.597656 126.613281 684.582031 128.214844 684.582031 129.941406 "/>
</g>
<g clip-path="url(#clip9)" clip-rule="nonzero">
<path style=" stroke:none;fill-rule:nonzero;fill:rgb(0%,57.598877%,80.39856%);fill-opacity:1;" d="M 743.261719 122.90625 C 742.949219 121.363281 742.824219 119.796875 742.308594 118.371094 C 741.570313 116.34375 739.882813 115.492188 737.75 115.5 C 735.570313 115.507813 733.898438 116.488281 733.21875 118.417969 C 732.171875 121.371094 732.179688 124.390625 733.222656 127.335938 C 733.902344 129.253906 735.632813 130.292969 737.765625 130.265625 C 739.867188 130.234375 741.582031 129.40625 742.3125 127.359375 C 742.8125 125.957031 742.949219 124.425781 743.261719 122.90625 Z M 745.222656 123.050781 C 745.046875 124.265625 744.945313 125.671875 744.621094 127.027344 C 743.636719 131.136719 740.113281 132.699219 736.453125 132.101563 C 733.023438 131.542969 731.300781 129.625 730.660156 125.792969 C 730.269531 123.445313 730.3125 121.078125 730.917969 118.75 C 731.808594 115.339844 734.433594 113.386719 737.933594 113.511719 C 741.660156 113.648438 744.15625 115.730469 744.785156 119.296875 C 744.992188 120.472656 745.066406 121.671875 745.222656 123.050781 "/>
</g>
<g clip-path="url(#clip10)" clip-rule="nonzero">
<path style=" stroke:none;fill-rule:nonzero;fill:rgb(0%,57.598877%,80.39856%);fill-opacity:1;" d="M 725.871094 116.980469 C 725.871094 117.359375 725.832031 117.746094 725.882813 118.117188 C 725.996094 118.976563 725.636719 119.238281 724.800781 119.207031 C 724.125 119.179688 723.804688 118.992188 723.910156 118.289063 C 723.914063 118.261719 723.910156 118.230469 723.910156 118.203125 C 723.894531 115.992188 723.851563 115.890625 721.664063 115.59375 C 720.746094 115.46875 719.78125 115.457031 718.871094 115.601563 C 716.742188 115.945313 715.472656 117.300781 714.984375 119.363281 C 714.460938 121.582031 714.464844 123.832031 714.898438 126.058594 C 715.582031 129.5625 718.089844 130.554688 721.480469 130.207031 C 721.625 130.191406 721.765625 130.140625 721.910156 130.121094 C 723.882813 129.824219 723.910156 129.792969 723.910156 127.871094 C 723.914063 126.71875 723.914063 126.75 725.074219 126.734375 C 725.675781 126.722656 725.925781 126.90625 725.882813 127.53125 C 725.839844 128.167969 725.871094 128.8125 725.871094 129.457031 C 725.871094 130.917969 725.886719 130.953125 724.503906 131.476563 C 722.265625 132.328125 719.949219 132.472656 717.625 131.921875 C 715.179688 131.347656 713.675781 129.722656 713.058594 127.339844 C 712.339844 124.554688 712.335938 121.722656 712.941406 118.921875 C 713.703125 115.390625 716.453125 113.351563 720.265625 113.542969 C 721.730469 113.617188 723.183594 114.011719 724.621094 114.34375 C 725.539063 114.558594 726.078125 115.144531 725.878906 116.191406 C 725.832031 116.445313 725.871094 116.71875 725.871094 116.980469 "/>
</g>
</g>
</svg>
