<?xml version="1.0" encoding="UTF-8" standalone="no"?>
<svg
   xmlns:dc="http://purl.org/dc/elements/1.1/"
   xmlns:cc="http://creativecommons.org/ns#"
   xmlns:rdf="http://www.w3.org/1999/02/22-rdf-syntax-ns#"
   xmlns:svg="http://www.w3.org/2000/svg"
   xmlns="http://www.w3.org/2000/svg"
   viewBox="0 0 1066.6667 200"
   height="200"
   width="1066.6667"
   xml:space="preserve"
   id="svg2"
   version="1.1"><metadata
     id="metadata8"><rdf:RDF><cc:Work
         rdf:about=""><dc:format>image/svg+xml</dc:format><dc:type
           rdf:resource="http://purl.org/dc/dcmitype/StillImage" /></cc:Work></rdf:RDF></metadata><defs
     id="defs6"><clipPath
       id="clipPath20"
       clipPathUnits="userSpaceOnUse"><path
         id="path18"
         d="M 0,150 H 800 V 0 H 0 Z" /></clipPath></defs><g
     transform="matrix(1.3333333,0,0,-1.3333333,0,200)"
     id="g10"><path
       id="path12"
       style="fill:#ffde00;fill-opacity:1;fill-rule:nonzero;stroke:none"
       d="M 0,0 H 800 V 150 H 0 Z" /><g
       id="g14"><g
         clip-path="url(#clipPath20)"
         id="g16"><g
           transform="translate(15.1494,109.1372)"
           id="g22"><path
             id="path24"
             style="fill:#042955;fill-opacity:1;fill-rule:nonzero;stroke:none"
             d="m 0,0 h 68.918 v -69.319 h -46.88 c 0,0 -18.231,0.2 -22.038,20.436 z" /></g><g
           transform="translate(49.6084,96.9165)"
           id="g26"><path
             id="path28"
             style="fill:#ffde00;fill-opacity:1;fill-rule:nonzero;stroke:none"
             d="M 0,0 H 23.24 V -22.438 H 12.822 V -9.817 L 0,-9.817 Z" /></g><g
           transform="translate(120.4536,70.8604)"
           id="g30"><path
             id="path32"
             style="fill:#042955;fill-opacity:1;fill-rule:nonzero;stroke:none"
             d="m 0,0 v -12.144 h 13.72 c 0,0 6.299,0.789 6.747,6.578 0,0 -0.225,5.566 -5.848,5.566 z M 0,18.218 V 7.76 h 14.169 c 0,0 4.949,1.126 4.724,5.229 0,0 -0.45,5.229 -5.173,5.229 z m 18.555,8.434 C 28.339,24.967 28.339,14.845 28.339,14.845 29.688,9.448 23.278,3.711 23.278,3.711 c 6.41,-1.686 6.41,-10.794 6.41,-10.794 0.675,-11.809 -12.819,-13.832 -12.819,-13.832 h -26.99 v 47.567 z" /></g><g
           transform="translate(178.0303,83.8496)"
           id="g34"><path
             id="path36"
             style="fill:#042955;fill-opacity:1;fill-rule:nonzero;stroke:none"
             d="M 0,0 -6.747,-15.914 H 6.748 Z M -5.173,13.663 H 4.948 L 23.616,-33.904 H 13.27 l -3.823,9.781 H -8.996 l -4.499,-9.781 h -10.12 z" /></g><g
           transform="translate(766.9756,84.1836)"
           id="g38"><path
             id="path40"
             style="fill:#042955;fill-opacity:1;fill-rule:nonzero;stroke:none"
             d="M 0,0 -6.747,-15.912 H 6.748 Z M -5.171,13.665 H 4.951 L 23.617,-33.902 H 13.271 l -3.823,9.783 H -8.994 l -4.499,-9.783 h -10.119 z" /></g><g
           transform="translate(300.3823,64.7871)"
           id="g42"><path
             id="path44"
             style="fill:#042955;fill-opacity:1;fill-rule:nonzero;stroke:none"
             d="m 0,0 6.072,-6.07 c 0,0 -5.398,-8.772 -19.343,-8.772 0,0 -24.29,-3.261 -26.314,23.784 0,0 -1.576,24.347 26.314,25.47 0,0 12.144,0.45 18.217,-8.096 l -6.747,-6.297 c 0,0 -3.542,5.285 -12.313,5.285 0,0 -13.664,0.218 -14.675,-15.578 0,0 -0.675,-14.954 15.011,-16.134 0,0 9.337,-0.673 13.778,6.408" /></g><g
           transform="translate(495.5508,64.7891)"
           id="g46"><path
             id="path48"
             style="fill:#042955;fill-opacity:1;fill-rule:nonzero;stroke:none"
             d="m 0,0 6.071,-6.07 c 0,0 -5.399,-8.772 -19.342,-8.772 0,0 -24.292,-3.262 -26.316,23.782 0,0 -1.575,24.347 26.316,25.471 0,0 12.144,0.449 18.217,-8.097 l -6.749,-6.297 c 0,0 -3.543,5.285 -12.312,5.285 0,0 -13.664,0.219 -14.676,-15.578 0,0 -0.674,-14.953 15.012,-16.132 0,0 9.337,-0.675 13.779,6.408" /></g><g
           transform="translate(678.5264,64.7891)"
           id="g50"><path
             id="path52"
             style="fill:#042955;fill-opacity:1;fill-rule:nonzero;stroke:none"
             d="m 0,0 6.074,-6.07 c 0,0 -5.397,-8.772 -19.344,-8.772 0,0 -24.289,-3.262 -26.314,23.782 0,0 -1.573,24.347 26.314,25.471 0,0 12.147,0.449 18.218,-8.097 l -6.746,-6.297 c 0,0 -3.542,5.285 -12.313,5.285 0,0 -13.665,0.219 -14.677,-15.578 0,0 -0.672,-14.953 15.012,-16.132 0,0 9.338,-0.675 13.776,6.408" /></g><g
           transform="translate(362.1938,74.1689)"
           id="g54"><path
             id="path56"
             style="fill:#042955;fill-opacity:1;fill-rule:nonzero;stroke:none"
             d="m 0,0 c 0,13.979 -11.332,25.312 -25.312,25.312 -13.98,0 -25.311,-11.333 -25.311,-25.312 0,-13.979 11.331,-25.312 25.311,-25.312 C -11.332,-25.312 0,-13.979 0,0 m -25.312,-15.855 c -8.757,0 -15.856,7.097 -15.856,15.855 0,8.757 7.099,15.856 15.856,15.856 8.757,0 15.856,-7.099 15.856,-15.856 0,-8.758 -7.099,-15.855 -15.856,-15.855" /></g><path
           id="path58"
           style="fill:#042955;fill-opacity:1;fill-rule:nonzero;stroke:none"
           d="m 574.332,49.819 h -9.275 v 48.482 h 9.275 z" /><path
           id="path60"
           style="fill:#042955;fill-opacity:1;fill-rule:nonzero;stroke:none"
           d="m 446.137,49.819 h -9.278 v 48.482 h 9.278 z" /><g
           transform="translate(399.0732,89.1924)"
           id="g62"><path
             id="path64"
             style="fill:#042955;fill-opacity:1;fill-rule:nonzero;stroke:none"
             d="m 0,0 v -14.68 h 11.977 c 0,0 6.931,1.349 6.921,7.34 0,0 0.501,7.003 -6.079,7.34 z M -9.447,-39.373 V 9.109 h 24.291 c 0,0 14.337,-1.855 13.664,-16.193 0,0 1.179,-12.481 -13.326,-16.025 H 0 v -16.264 z" /></g><g
           transform="translate(511.0771,98.3018)"
           id="g66"><path
             id="path68"
             style="fill:#042955;fill-opacity:1;fill-rule:nonzero;stroke:none"
             d="m 0,0 v -48.482 h 9.615 v 20.143 h 21.424 v -20.143 h 9.277 V 0 h -6.243 c 0,0 -3.034,-0.169 -3.034,-3.374 V -18.555 H 9.277 L 9.277,0 Z" /></g><g
           transform="translate(694.6016,98.3018)"
           id="g70"><path
             id="path72"
             style="fill:#042955;fill-opacity:1;fill-rule:nonzero;stroke:none"
             d="m 0,0 v -48.482 h 9.616 v 20.143 h 21.423 v -20.143 h 9.279 V 0 h -6.245 c 0,0 -3.034,-0.169 -3.034,-3.374 V -18.555 H 9.279 V 0 Z" /></g><g
           transform="translate(209.3486,49.9453)"
           id="g74"><path
             id="path76"
             style="fill:#042955;fill-opacity:1;fill-rule:nonzero;stroke:none"
             d="m 0,0 v 47.567 h 10.965 c 0,0 2.193,-0.505 3.373,-2.699 L 32.557,14.842 v 32.725 h 9.276 V 0 H 32.05 c 0,0 -1.687,-0.168 -3.205,2.359 L 10.458,32.554 V 0 Z" /></g><g
           transform="translate(587.3887,49.8223)"
           id="g78"><path
             id="path80"
             style="fill:#042955;fill-opacity:1;fill-rule:nonzero;stroke:none"
             d="m 0,0 v 47.569 h 10.963 c 0,0 2.193,-0.506 3.374,-2.697 L 32.554,14.845 v 32.724 h 9.28 V 0 h -9.787 c 0,0 -1.685,-0.165 -3.204,2.363 L 10.457,32.557 V 0 Z" /></g></g></g></g></svg>