<?xml version="1.0" encoding="utf-8"?>
<!-- Generator: Adobe Illustrator 25.0.0, SVG Export Plug-In . SVG Version: 6.00 Build 0)  -->
<svg version="1.1" id="Capa_1" xmlns="http://www.w3.org/2000/svg" xmlns:xlink="http://www.w3.org/1999/xlink" x="0px" y="0px"
	 viewBox="0 0 45 45" style="enable-background:new 0 0 45 45;" xml:space="preserve">
<style type="text/css">
	.st0{fill:#CCC48B;}
</style>
<path class="st0" d="M28.1,20.1c-0.8,0.9-2.1,1-3.1,0.3c-0.9-0.5-1.6-1.3-2-2.3c-0.1-0.2-0.1-0.3-0.4-0.1c-1.2,1.2-2.5,2.4-3.8,3.6
	c-1.5,1.6-3.1,2.9-4.9,4.1c-0.9,0.6-1.9,0.9-2.9,1c-0.7,0-1.4-0.2-1.9-0.6c-1.9-1.2-3.7-2.5-5.4-4c-0.2-0.2-0.1-0.3,0-0.4l3.4-2.8
	c2-1.8,4.1-3.5,6.1-5.3c1.3-1.2,2.7-2.3,4.1-3.4c1.1-0.8,2.5-1.2,3.8-1.1c1,0.1,2,0.3,3,0.4l7.9,1.1c0.7,0.1,1.3,0.2,2,0.3
	c1.1,0.2,1.9,1.2,1.8,2.3c0,0.3-0.1,0.7-0.2,1c-0.3,1-1.3,1.5-2.3,1.3c0,0,0,0,0,0c-2.5-0.4-5-0.7-7.4-1.1c-0.3,0-0.6-0.2-0.7-0.5
	c-0.5-1.3-1.5-1.9-3.3-1.6c-0.9,0.2-1.7,0.7-2.3,1.3l-2.8,2.3c-0.3,0.3-0.6,0.6-0.7,1c-0.2,0.4,0,0.8,0.3,1c0.3,0.2,0.7,0.1,0.9-0.1
	l3.7-3.1c0.4-0.4,0.9-0.6,1.4-0.7c0.5-0.1,1.1,0.1,1.4,0.5c0.1,0.1,0.2,0.2,0.4,0.2c1.2-0.1,2.3,0.5,3,1.5c0.4,0.6,1,0.9,1.7,1
	c2.5,0.4,4.3,2.4,4.5,4.9c0.2,1.6-0.4,3.3-1.6,4.4c-0.4,0.4-0.4,0.4,0.1,0.7c0.3,0.2,0.6,0.3,0.9,0.5c0.5,0.3,0.4,0.7-0.1,0.9
	L32,28.7c-0.2,0-0.3,0.2-0.3,0.4c0,0,0,0.1,0,0.1c0.7,1.8,1.3,3.6,1.9,5.5c0.5,1.4,1,2.8,1.5,4.3c0.2,0.8,0.1,1.6-0.4,2.3
	c-0.1,0.2-0.3,0.3-0.5,0.2c0,0-0.1,0-0.1-0.1c-0.8-0.4-1.5-0.8-2.3-1.3c-0.4-0.3-0.6-0.8-0.5-1.3c0.1-0.3,0.2-0.6,0.3-0.9
	c0.1-0.2,0-0.3-0.1-0.4c0,0,0,0-0.1,0c-0.4-0.2-0.8-0.4-1.2-0.6c-0.4-0.3-0.7-0.8-0.5-1.3c0.1-0.4,0.3-0.8,0.5-1.1s0.1-0.5-0.2-0.6
	s-0.8-0.4-1.2-0.6c-0.2-0.1-0.3-0.2-0.1-0.4c0.5-0.7,0.6-1.7,0.1-2.5c-0.1-0.3-0.2-0.4-0.5-0.2s-0.8,0.3-1.3,0.4s-0.5-0.1-0.4-0.4
	c0.1-0.5,0.1-1,0.3-1.5c0.1-0.3-0.1-0.4-0.3-0.4c-1.2,0-2.3-0.5-3.3-1.2c-1.2-0.9-1.9-2.4-1.9-3.9c-0.1-1.4,0.3-2.9,1.2-4
	c0.3-0.4,0.3-0.4,0.6,0c0.5,0.8,1.3,1.4,2.1,1.7c0.2,0.1,0.3,0.2,0.5,0.3c0.7,0.5,1.6,0.3,2-0.4C28,20.6,28.1,20.4,28.1,20.1z
	 M26.5,19.8c0.5,0,0.9-0.3,0.9-0.8c0,0,0,0,0,0c0-0.2-0.1-0.4-0.3-0.5c0,0,0,0,0,0c-0.4-0.1-0.7,0-1.1,0.1c-0.5,0.3-0.5,0.3-1-0.2
	c-0.1-0.2-0.3-0.3-0.4-0.5c-0.2-0.2-0.2-0.4,0.1-0.5c0.5-0.2,1.1-0.4,1.6-0.6c0.1,0,0.3-0.1,0.1-0.3c-0.4-0.6-1.1-1-1.7-1.1
	c-0.2-0.1-0.4,0-0.4,0.3c-0.1,0.4-0.3,0.7-0.5,1c-0.1,0.1-0.1,0.3-0.1,0.5c0.3,1.1,1.1,2,2.1,2.4C26,19.7,26.3,19.8,26.5,19.8z"/>
<path class="st0" d="M22.1,8.1c1.4-0.3,2.8-0.6,4.2-0.9c1.3-0.3,2.6-0.5,3.9-0.6c1,0,1.3,0.1,1.6,1.3c0.1,0.3,0.1,0.5,0.1,0.8
	c0,0.3-0.1,0.4-0.4,0.4l-2.8-0.2L24,8.4l-1.9-0.2V8.1z"/>
</svg>
