<?xml version="1.0" encoding="utf-8"?>
<!-- Generator: Adobe Illustrator 25.0.0, SVG Export Plug-In . SVG Version: 6.00 Build 0)  -->
<svg version="1.1" id="Capa_1" xmlns="http://www.w3.org/2000/svg" xmlns:xlink="http://www.w3.org/1999/xlink" x="0px" y="0px"
	 viewBox="0 0 45 45" style="enable-background:new 0 0 45 45;" xml:space="preserve">
<style type="text/css">
	.st0{fill:#CCC48B;}
</style>
<path class="st0" d="M10.6,22.4h3.7c0.3,0,0.5,0,0.5,0.4s0.1,0.3,0.4,0.3c1.9-0.4,3.9-0.4,5.8-0.2c2,0.2,3.9,0.7,5.7,1.6
	c1.1,0.5,2,1.2,2.9,2c0.3,0.3,0.6,0.6,0.7,1c0.1,0.2,0.1,0.2,0.3,0c0.7-0.8,1.6-1.6,2.3-2.3c1.1-1.1,2.8-1.2,4-0.3
	c1.3,0.9,1.7,2.7,0.8,4.1c-0.4,0.5-0.8,1-1.2,1.5c-1.1,1.1-2.2,2.2-3.3,3.3c-1.7,1.6-3.8,2.7-6.1,3.1c-2.8,0.4-5.7-0.2-8.1-1.7
	c-0.8-0.5-1.6-0.9-2.5-1.1c-0.4-0.1-0.9-0.1-1.3-0.1c-0.1,0-0.2,0.1-0.2,0.3c0,0.5-0.1,0.9-0.1,1.3c0,0.2-0.1,0.3-0.3,0.3H6.8
	c-0.2,0-0.3-0.1-0.3-0.3c-0.3-2.6-0.4-5.2-0.3-7.8c0-1.7,0.1-3.4,0.3-5c0-0.2,0.2-0.3,0.3-0.3L10.6,22.4z M25.6,35.4
	c0.8,0,1.6-0.2,2.3-0.4c1.6-0.4,3.1-1.3,4.3-2.5c1.3-1.4,2.6-2.6,3.9-3.9c0.5-0.4,0.7-1.1,0.5-1.7c-0.2-0.9-1.1-1.4-1.9-1.2
	c-0.2,0-0.4,0.1-0.5,0.2c-1.1,1-2.2,2.1-3.2,3.2c-0.2,0.2-0.4,0.5-0.6,0.8c-0.6,1.5-2.2,2.4-3.7,2c-1.4-0.3-2.8-0.7-4.1-1.2
	c-0.2-0.1-0.2-0.1-0.1-0.3s0.2-0.6,0.3-0.9s0.2-0.3,0.4-0.2c0.7,0.2,1.4,0.5,2.1,0.7c0.7,0.3,1.4,0.4,2.2,0.4c0.7,0,1.2-0.4,1.5-1
	c0.3-0.6,0.1-1.3-0.4-1.8c-0.2-0.2-0.4-0.4-0.7-0.6c-2.3-1.7-5.1-2.7-7.9-2.8c-1.6-0.1-3.2,0-4.8,0.3c-0.3,0.1-0.4,0.2-0.4,0.5
	c0,0.7,0.1,1.3,0.1,2c0,1.1,0.1,2.3,0,3.4c0,0.6,0,1.2-0.1,1.8c0,0.2,0,0.2,0.2,0.2c1.6,0,3.2,0.4,4.5,1.3
	C21.4,34.9,23.5,35.4,25.6,35.4L25.6,35.4z"/>
<path class="st0" d="M28.1,23.5c-5.1,0-9.3-4.2-9.2-9.4c0-5.1,4.2-9.3,9.4-9.2c5.1,0,9.2,4.2,9.2,9.3c0,5.1-4.1,9.3-9.2,9.3
	C28.1,23.6,28.1,23.6,28.1,23.5z M20.5,14.2c0,4.2,3.4,7.6,7.6,7.6c4.2,0,7.6-3.4,7.6-7.6c0-3.9-3-7.2-6.9-7.6
	c-4.2-0.4-7.9,2.6-8.3,6.8C20.5,13.7,20.5,14,20.5,14.2z"/>
<path class="st0" d="M30.9,11.6c0,0.3,0,0.6,0,0.9s-0.1,0.3-0.3,0.3h-1.1c-0.2,0-0.3-0.1-0.4-0.2c-0.4-0.5-1.1-0.7-1.8-0.6
	c-0.3,0-0.5,0.2-0.6,0.5c-0.1,0.3,0.1,0.6,0.3,0.7c0.4,0.2,0.8,0.3,1.2,0.3c0.8,0.1,1.5,0.4,2.1,0.9c0.8,0.8,0.9,2.1,0.1,2.9
	c-0.2,0.2-0.5,0.4-0.8,0.5C29.6,18,29.5,18,29.3,18c-0.4,0-0.6,0.1-0.6,0.6c0,0.1-0.1,0.2-0.2,0.2h-1.2c-0.1,0-0.2-0.1-0.2-0.2
	c0,0,0,0,0,0c0-0.1,0-0.3,0-0.4c0-0.1-0.1-0.3-0.2-0.3c-0.2-0.1-0.1,0.1-0.2,0.2c0,0.1-0.1,0.1-0.2,0.1c-0.4,0-0.8,0-1.1,0
	c-0.2,0-0.2-0.1-0.2-0.2V16c0-0.2,0.1-0.2,0.2-0.2h1.1c0.1,0,0.3,0.1,0.3,0.2c0.5,0.5,1.3,0.7,2,0.5c0.2,0,0.4-0.1,0.5-0.4
	c0-0.3-0.1-0.5-0.3-0.6c-0.5-0.3-1.1-0.5-1.7-0.5c-0.7-0.1-1.4-0.5-1.8-1c-0.7-0.9-0.6-2.3,0.4-3c0.2-0.2,0.5-0.3,0.8-0.4
	c0.3-0.1,0.4-0.2,0.4-0.5s0.1-0.3,0.3-0.3c0.3,0,0.6,0,0.9,0c0.3,0,0.4,0.1,0.4,0.4s0,0.5,0.4,0.6c0.1,0,0.1,0.1,0.2,0
	c0-0.3,0.3-0.2,0.4-0.2h0.9c0.2,0,0.3,0.1,0.3,0.3S30.9,11.3,30.9,11.6z"/>
</svg>
