<svg id="Capa_1" fill="#CCC48B" data-name="Capa 1" xmlns="http://www.w3.org/2000/svg" viewBox="0 0 44.99 44.99"><path d="M30.73,38.66c-1.35-1.35-2.84-2.54-4.25-3.83a1.79,1.79,0,0,1-.14-.13A4.71,4.71,0,0,0,21.91,33c-1.69.14-3.4,0-5.09,0-.19,0-.43.06-.51-.15s.14-.29.26-.41c1.11-1.13,2.24-2.26,3.35-3.4a1.31,1.31,0,0,1,1-.36c2.52,0,5.05-.06,7.57,0A3.52,3.52,0,0,0,32.26,25c-.1-2.8,0-5.6,0-8.4,0-.74.13-.81.82-.53a4.05,4.05,0,0,1,2.56,3.83c0,3,0,6.07,0,9.11a4,4,0,0,1-3.34,4c-.61.12-.82.34-.75,1,.12,1.2.17,2.41.26,3.62a1.25,1.25,0,0,1-.28,1Z"/><path d="M7.8,12.41a4.2,4.2,0,0,1,4.28-3.23H26a4.15,4.15,0,0,1,4.38,4.22c.06,3,.06,6.07,0,9.11A4.18,4.18,0,0,1,26,26.72c-2,0-4.11,0-6.17,0a1.87,1.87,0,0,0-1.37.51c-1.78,1.56-3.57,3.08-5.36,4.62-.31.27-.64.53-1.08.32s-.45-.63-.42-1c.09-1.27.18-2.54.26-3.81,0-.29,0-.54-.38-.6A4.39,4.39,0,0,1,7.8,23.5Zm5.42,17.34C14.9,28.31,16.45,27,18,25.65a1.58,1.58,0,0,1,1.15-.42h6.69a2.71,2.71,0,0,0,3-3q0-4.32,0-8.66a2.66,2.66,0,0,0-3-2.94H12.2a2.71,2.71,0,0,0-2.95,3q0,4.23,0,8.47c0,2,1.05,3.08,3.1,3.1.93,0,1.13.2,1.09,1.14S13.3,28.51,13.22,29.75Z"/><path d="M19.08,16.28H14.25c-.51,0-1-.05-1-.68s.32-.8,1-.8q4.87,0,9.73,0c.67,0,1.08.3,1,.77s-.48.72-1,.72Z"/><path d="M17.59,19.73c-1.14,0-2.29,0-3.44,0-.5,0-.91-.14-.92-.72s.4-.77.9-.77H21c.5,0,.89.19.94.74s-.35.74-1,.74Z"/></svg>