<?xml version="1.0" encoding="utf-8"?>
<!-- Generator: Adobe Illustrator 25.0.0, SVG Export Plug-In . SVG Version: 6.00 Build 0)  -->
<svg version="1.1" id="Capa_1" xmlns="http://www.w3.org/2000/svg" xmlns:xlink="http://www.w3.org/1999/xlink" x="0px" y="0px"
	 viewBox="0 0 45 45" style="enable-background:new 0 0 45 45;" xml:space="preserve">
<style type="text/css">
	.st0{fill:#CCC48B;}
</style>
<path class="st0" d="M24.7,21.3c0.1,1.9-0.6,3.7-1.9,5.1c-0.5,0.6-1.2,1-2,1.2c-0.8,0.2-1.7,0-2.4-0.5c-1-0.6-1.8-1.6-2.2-2.8
	c-0.9-2-0.8-4.2,0.1-6.1c0.7-1.6,2.3-2.6,4-2.4c1.7,0,3.2,1,3.9,2.6C24.5,19.3,24.7,20.3,24.7,21.3z"/>
<path class="st0" d="M5.8,20.6c-0.1-1,0.2-2.1,0.7-3c0.7-1.2,2-1.9,3.3-1.8c1.4,0,2.7,0.9,3.2,2.2c0.9,2.1,0.6,4.5-0.8,6.3
	c-0.4,0.6-1.1,1.1-1.8,1.3c-0.9,0.3-2,0.1-2.7-0.6c-1.1-0.9-1.8-2.2-1.9-3.6C5.9,21.1,5.8,20.9,5.8,20.6z"/>
<path class="st0" d="M34.4,20.8c0,1.4-0.5,2.7-1.4,3.7c-0.5,0.6-1.2,1.1-2,1.3c-0.5,0.1-1,0-1.5-0.2c-1.3-0.6-2.3-1.8-2.6-3.2
	c-0.5-1.5-0.4-3.2,0.4-4.7c0.6-1.3,2-2.1,3.4-1.9c1.5,0,2.8,1,3.2,2.4C34.3,19,34.4,19.9,34.4,20.8z"/>
<path class="st0" d="M16.1,34.1c-1.6,0-3.1,0-4.7,0c-0.5,0-0.7-0.1-0.7-0.6c0-0.8,0.1-1.6,0.3-2.4c0.1-0.6,0.6-1,1.1-1.2
	c1.5-0.4,2.8-1.1,4-2.1c0.4-0.3,0.5-0.3,0.9,0c1.8,1.4,4.2,1.4,6,0c0.4-0.3,0.5-0.3,0.9,0s0.5,0.4,0.8,0.6s0.2,0.2,0,0.3
	c-2.1,0.8-3.5,2.8-3.6,5.1c0,0.3-0.2,0.4-0.4,0.3L16.1,34.1z"/>
<path class="st0" d="M22.2,34.1c0-2.6,2.2-4.7,4.8-4.7s4.7,2.2,4.7,4.8c0,2.6-2.1,4.7-4.7,4.7C24.3,38.8,22.2,36.7,22.2,34.1z
	 M29.7,32.7c0-0.4-0.3-0.7-0.7-0.7c-0.3,0-0.6,0.2-0.7,0.4c-0.6,0.6-1.3,1.3-1.9,1.9c-0.2,0.2-0.4,0.2-0.5,0s-0.3-0.3-0.4-0.4
	c-0.3-0.3-0.8-0.3-1.1-0.1c0,0,0,0-0.1,0.1c-0.3,0.3-0.3,0.8,0.1,1.1c0,0,0,0,0,0l1.2,1.1c0.3,0.3,0.7,0.4,1,0.1
	c0,0,0.1-0.1,0.1-0.1c0.9-0.9,1.9-1.8,2.8-2.8C29.6,33.1,29.7,32.9,29.7,32.7z"/>
<path class="st0" d="M5.9,31.3H2.3c-0.5,0-0.6-0.1-0.5-0.6c0-0.6,0.1-1.2,0.2-1.8c0.1-0.6,0.5-1.1,1.2-1.3c1.2-0.3,2.3-0.9,3.2-1.6
	c0.4-0.3,0.5-0.3,0.9,0c1.1,0.8,2.5,1.1,3.8,0.6c0.4-0.2,0.8-0.4,1.2-0.7c0.2-0.2,0.5-0.2,0.7,0c0.6,0.5,1.3,1,2,1.3
	c0.3,0.1,0.1,0.2,0,0.3c-0.6,0.5-1.3,0.8-2.1,1.1l-1,0.3c-1,0.2-1.7,1-1.9,2c0,0.3-0.3,0.5-0.5,0.4c0,0,0,0,0,0
	C8.3,31.3,7.1,31.3,5.9,31.3z"/>
<path class="st0" d="M35.1,31.3h-2.8c-0.2,0-0.4-0.1-0.5-0.2c-1-1.7-2.9-2.7-4.9-2.8c-0.5-0.1-1-0.3-1.4-0.6c-0.5-0.3-0.6-0.3,0-0.6
	c0.6-0.3,1.1-0.6,1.6-1.1c0.4-0.3,0.5-0.4,1,0c1.4,1.1,3.4,1.1,4.9,0c0.4-0.3,0.5-0.3,0.9,0c0.9,0.8,2,1.3,3.1,1.6
	c0.7,0.1,1.2,0.7,1.3,1.4c0.1,0.6,0.1,1.2,0.2,1.8c0,0.4-0.1,0.5-0.5,0.5L35.1,31.3z"/>
</svg>
