<?xml version="1.0" encoding="utf-8"?>
<!-- Generator: Adobe Illustrator 25.0.0, SVG Export Plug-In . SVG Version: 6.00 Build 0)  -->
<svg version="1.1" id="Capa_1" xmlns="http://www.w3.org/2000/svg" xmlns:xlink="http://www.w3.org/1999/xlink" x="0px" y="0px"
	 viewBox="0 0 45 45" style="enable-background:new 0 0 45 45;" xml:space="preserve">
<style type="text/css">
	.st0{fill:#CCC48B;}
</style>
<path class="st0" d="M22.1,19.1c2,0,3.9,0,5.9,0c0.4,0,0.4,0,0.3,0.4c-2,5.5-4,11.1-6,16.6c0,0.1,0,0.3-0.2,0.3s-0.2-0.2-0.2-0.4
	c-2-5.5-4-11.1-6-16.6c-0.1-0.4-0.1-0.4,0.3-0.4C18.1,19.1,20.1,19.1,22.1,19.1z"/>
<path class="st0" d="M20.9,35.8l-1.4-1.7l-6.5-7.7c-2-2.3-4-4.7-6-7c0-0.1-0.2-0.1-0.1-0.2s0.2-0.1,0.3-0.1h7.6
	c0.2,0,0.4,0.1,0.4,0.3L19.2,31l1.6,4.5C20.9,35.6,20.9,35.7,20.9,35.8L20.9,35.8z"/>
<path class="st0" d="M23.1,35.8l0.6-1.7c1.7-4.8,3.5-9.7,5.2-14.5c0.1-0.3,0.3-0.5,0.6-0.4H37c0.1,0,0.3-0.1,0.3,0.1
	s-0.1,0.2-0.2,0.3l-6.5,7.6l-6.9,8.1C23.6,35.5,23.4,35.7,23.1,35.8z"/>
<path class="st0" d="M22.1,18.4h-5.5c-0.1,0-0.2,0.1-0.3-0.1s0.1-0.2,0.2-0.2c1.8-1.7,3.5-3.4,5.3-5.1c0.2-0.2,0.3-0.2,0.5,0
	c1.8,1.7,3.5,3.4,5.3,5.1c0.1,0.1,0.2,0.1,0.2,0.3s-0.2,0.1-0.3,0.1L22.1,18.4z"/>
<path class="st0" d="M16.3,12.6h4.4c0.1,0,0.3,0,0.3,0.1s-0.1,0.2-0.2,0.3c-1.8,1.7-3.5,3.4-5.3,5.1c-0.2,0.2-0.3,0.2-0.4,0
	c-1.2-1.7-2.3-3.4-3.5-5.1c0-0.1-0.2-0.1-0.1-0.2s0.2-0.1,0.3-0.1L16.3,12.6z"/>
<path class="st0" d="M27.9,12.6h4.4c0.1,0,0.3,0,0.3,0.1s-0.1,0.2-0.1,0.3c-1.1,1.7-2.3,3.3-3.4,5c-0.2,0.2-0.3,0.3-0.5,0.1l-5.2-5
	c-0.1-0.1-0.2-0.1-0.2-0.3s0.2-0.1,0.4-0.1L27.9,12.6z"/>
<path class="st0" d="M10.6,18.4H7c-0.1,0-0.2,0-0.3-0.1s0-0.2,0.1-0.2c1.2-1.7,2.4-3.3,3.6-5c0.2-0.2,0.2-0.2,0.4,0
	c1.1,1.7,2.3,3.3,3.4,5c0.1,0.1,0.2,0.2,0.1,0.3s-0.2,0-0.3,0L10.6,18.4z"/>
<path class="st0" d="M33.5,18.4h-3.6c-0.1,0-0.2,0-0.3-0.1s0-0.2,0.1-0.2l3.5-5c0.1-0.2,0.2-0.2,0.4,0l3.7,5c0,0.1,0.1,0.1,0.1,0.2
	s-0.2,0.1-0.3,0.1L33.5,18.4z"/>
</svg>
