<?xml version="1.0" encoding="utf-8"?>
<!-- Generator: Adobe Illustrator 25.0.0, SVG Export Plug-In . SVG Version: 6.00 Build 0)  -->
<svg version="1.1" id="Capa_1" xmlns="http://www.w3.org/2000/svg" xmlns:xlink="http://www.w3.org/1999/xlink" x="0px" y="0px"
	 viewBox="0 0 45 45" style="enable-background:new 0 0 45 45;" xml:space="preserve">
<style type="text/css">
	.st0{fill:#9A85D6;}
</style>
<path class="st0" d="M20,14.6h-9.4c-0.6,0-0.6,0-0.6,0.6v13.8c0,0.6,0,0.6,0.6,0.6H21c0.7,0,0.6,0,0.7,0.7c0,0.7,0.2,1.5,0.4,2.2
	c0.2,0.6,0.2,0.6-0.5,0.6H10.3c-0.5,0-1-0.1-1.5-0.2c-1.2-0.4-2.1-1.6-2.3-2.9c0-0.4,0-0.9,0-1.3c0-5.6,0-11.2,0-16.8
	c0-0.5,0-0.9,0.1-1.4c0.4-1.5,1.8-2.6,3.4-2.5c0.4,0,0.8,0,1.1,0s0.4-0.1,0.4-0.4c0-0.8,0-1.7,0-2.5c0-0.4,0.1-0.5,0.5-0.5
	c0.8,0,1.7,0,2.5,0c0.3,0,0.5,0.1,0.5,0.5c0,0.8,0,1.6,0,2.5c0,0.3,0.1,0.4,0.4,0.4c3,0,6,0,9.1,0c0.3,0,0.4-0.1,0.4-0.4
	c0-0.8,0-1.6,0-2.5c0-0.3,0.1-0.5,0.4-0.5c0.9,0,1.7,0,2.6,0c0.3,0,0.4,0.1,0.4,0.4c0,0.8,0,1.7,0,2.5c0,0.4,0.1,0.4,0.5,0.4
	c0.7-0.1,1.4,0,2.1,0.2c1.4,0.4,2.3,1.7,2.3,3.1c0,2.7,0,5.5,0,8.2c0,0.3-0.1,0.4-0.4,0.4c-0.9-0.1-1.8-0.1-2.6,0
	c-0.3,0-0.4-0.1-0.4-0.4c0-1.4,0-2.9,0-4.3c0-0.4-0.1-0.5-0.5-0.5L20,14.6z"/>
<path class="st0" d="M31.6,37.9c-4.6,0-8.4-3.7-8.4-8.4c0-4.6,3.7-8.4,8.4-8.4c4.6,0,8.4,3.7,8.4,8.4c0,0,0,0,0,0
	C40,34.2,36.2,37.9,31.6,37.9z M37.4,26.9l-0.2-0.2c-0.6-0.6-1.2-1.1-1.7-1.7c-0.2-0.3-0.4-0.2-0.6,0c-1.5,1.5-3.1,3.1-4.6,4.6
	c-0.2,0.2-0.4,0.2-0.6,0c-0.7-0.7-1.4-1.4-2.1-2.1c-0.2-0.2-0.3-0.2-0.4,0c-0.6,0.6-1.2,1.3-1.9,1.9c-0.2,0.2-0.2,0.3,0,0.4l4.5,4.5
	c0.2,0.2,0.3,0.2,0.4,0l7.1-7.1C37.3,27.2,37.4,27.1,37.4,26.9L37.4,26.9z"/>
<path class="st0" d="M24.9,20.3l-1.2,1.1c-0.4,0.4-0.8,0.7-1.2,1.1c-0.2,0.1-0.3,0.4-0.2,0.6c0.2,0.9,0.4,1.8,0.6,2.6
	c0,0.2,0,0.3,0,0.5c-0.3-0.1-0.6-0.3-0.8-0.5c-0.6-0.4-1.3-0.8-1.9-1.2c-0.2-0.2-0.5-0.2-0.7,0c-0.8,0.5-1.6,1-2.4,1.5
	c-0.1,0-0.2,0.2-0.3,0.1s0-0.2,0-0.3c0.2-0.9,0.4-1.8,0.6-2.6c0.1-0.3,0-0.7-0.3-0.9c-0.8-0.6-1.5-1.3-2.3-2
	c0.2-0.1,0.5-0.2,0.7-0.2c0.8-0.1,1.5-0.1,2.3-0.2c0.3,0,0.7-0.2,0.8-0.5c0.3-0.8,0.6-1.5,1-2.3c0-0.2,0.1-0.3,0.3-0.5
	c0.3,0.8,0.7,1.6,1,2.4c0.1,0.6,0.7,1,1.3,0.9c0.9,0,1.7,0.1,2.5,0.2L24.9,20.3z"/>
</svg>
