<?xml version="1.0" encoding="utf-8"?>
<!-- Generator: Adobe Illustrator 25.0.0, SVG Export Plug-In . SVG Version: 6.00 Build 0)  -->
<svg version="1.1" id="Capa_1" xmlns="http://www.w3.org/2000/svg" xmlns:xlink="http://www.w3.org/1999/xlink" x="0px" y="0px"
	 viewBox="0 0 45 45" style="enable-background:new 0 0 45 45;" xml:space="preserve">
<style type="text/css">
	.st0{fill:#CCC48B;}
</style>
<path class="st0" d="M21.4,22.8h-0.5c-0.1,0-0.1,0-0.1-0.1c0-0.1,0-0.3,0-0.4c0-0.2,0-0.2-0.2-0.2c-0.4-0.1-0.7-0.2-1.1-0.4
	c-0.2-0.2-0.5-0.4-0.7-0.6c0,0,0-0.1,0-0.1c0.3-0.2,0.5-0.4,0.8-0.6c0.1,0,0.1,0,0.2,0c0.3,0.2,0.6,0.4,0.9,0.5
	c0.6,0.2,1.2,0.1,1.8-0.1c0.5-0.2,0.7-0.7,0.6-1.1c0-0.2-0.2-0.4-0.4-0.5c-0.3-0.2-0.5-0.3-0.8-0.3c-0.4-0.1-0.9-0.2-1.3-0.3
	c-0.5-0.1-0.9-0.3-1.4-0.5c-0.9-0.5-1.2-1.6-0.9-2.6c0.2-0.5,0.5-0.9,0.9-1.1c0.4-0.2,0.8-0.4,1.3-0.5c0.1,0,0.1-0.1,0.1-0.2
	c0-0.1,0-0.3,0-0.4c0-0.1,0-0.1,0.1-0.1h1c0.1,0,0.1,0,0.1,0.1s0,0.3,0,0.4c0,0.1,0,0.1,0.1,0.1c0,0,0,0,0,0
	c0.4,0.1,0.8,0.3,1.2,0.5c0.2,0.2,0.4,0.3,0.6,0.5c0,0,0,0.1,0,0.1c0,0,0,0,0,0c-0.3,0.2-0.5,0.4-0.8,0.6c-0.1,0-0.1,0-0.2,0
	l-0.2-0.2c-0.3-0.2-0.7-0.3-1.1-0.4c-0.5-0.1-0.9,0-1.4,0.2c-0.5,0.2-0.8,0.8-0.6,1.3c0,0,0,0,0,0.1c0.1,0.2,0.2,0.3,0.4,0.4
	c0.3,0.1,0.5,0.3,0.8,0.3c0.5,0.1,0.9,0.2,1.4,0.3c0.5,0.1,1,0.3,1.4,0.6c0.5,0.4,0.8,1,0.8,1.7c0,0.9-0.6,1.7-1.4,2.1
	c-0.3,0.1-0.6,0.2-0.9,0.3c-0.1,0-0.1,0-0.1,0.1v0.4c0,0.1,0,0.1-0.1,0.1S21.5,22.8,21.4,22.8z"/>
<path class="st0" d="M32.2,10.4c0,0.4-0.1,0.9-0.1,1.3c-0.1,0.4,0.2,0.9,0.6,1.1c0.4,0.2,0.8,0.4,1.1,0.7c0.7,0.4,1,1.4,0.6,2.1
	c0,0-0.1,0.1-0.1,0.1c-0.1,0.1-0.2,0.3-0.2,0.4s-0.3,0.5-0.5,0.7c-0.3,0.3-0.3,0.8,0,1.2c0.3,0.4,0.5,0.9,0.8,1.3
	c0.4,0.7,0.2,1.6-0.5,2.1c0,0,0,0,0,0c-0.2,0.1-0.4,0.2-0.6,0.4l-0.7,0.5c-0.3,0.2-0.5,0.5-0.4,0.9c0,0.5,0.2,1,0.1,1.6
	c0.1,0.8-0.5,1.6-1.3,1.7c-0.1,0-0.1,0-0.2,0c-0.5,0.1-1,0.1-1.5,0.2c-0.3,0-0.6,0.2-0.7,0.5c-0.1,0.4-0.3,0.8-0.4,1.1l-0.1,0.2
	c-0.2,0.9-1.1,1.4-2,1.2c-0.1,0-0.2-0.1-0.3-0.1L24.7,29c-0.4-0.2-0.8-0.1-1.1,0.2c-0.4,0.5-0.8,0.9-1.3,1.2c-0.5,0.4-1.2,0.4-1.7,0
	c-0.5-0.3-0.9-0.7-1.2-1.2c-0.2-0.3-0.7-0.5-1.1-0.3c-0.4,0.1-0.8,0.3-1.1,0.4c-0.2,0.1-0.4,0.1-0.5,0.1c-0.7,0.2-1.5-0.3-1.7-1
	c-0.2-0.4-0.3-0.7-0.4-1.1c-0.1-0.6-0.6-1-1.2-0.9c-0.4,0-0.7-0.1-1.1-0.1c-0.8,0-1.5-0.7-1.5-1.6c0,0,0-0.1,0-0.1
	c0-0.5,0.1-1.1,0.1-1.6c0-0.3-0.1-0.7-0.4-0.8c-0.4-0.3-0.8-0.5-1.2-0.8c-0.8-0.4-1-1.4-0.6-2.1c0-0.1,0.1-0.1,0.1-0.2
	C9,18.8,9.2,18.4,9.5,18c0.3-0.4,0.3-0.8,0-1.2c-0.3-0.4-0.5-0.8-0.8-1.2c-0.4-0.7-0.2-1.5,0.4-2c0.4-0.3,0.9-0.6,1.3-0.9
	c0.3-0.2,0.5-0.5,0.5-0.9c0-0.6-0.2-1.1-0.1-1.6c-0.1-0.8,0.5-1.5,1.2-1.6c0.5-0.1,0.9-0.2,1.4-0.2c0.5,0,1-0.3,1.1-0.8
	c0.1-0.5,0.3-1,0.5-1.4c0.3-0.7,1-1,1.8-0.8c0.5,0.1,1,0.3,1.5,0.5c0.4,0.2,0.8,0.1,1.1-0.3l0.8-0.8c0.6-0.7,1.6-0.9,2.4-0.3
	c0.2,0.1,0.3,0.3,0.4,0.4c0.3,0.3,0.6,0.6,0.9,0.9c0.2,0.2,0.4,0.2,0.7,0.1c0.4-0.1,0.7-0.2,1.1-0.4c0.2-0.1,0.5-0.1,0.7-0.2
	C27,5.1,27.7,5.4,28,6.1c0.2,0.5,0.4,0.9,0.5,1.4c0.1,0.5,0.6,0.9,1.1,0.9c0.3,0,0.7,0.1,1,0.1c0.9,0,1.6,0.7,1.6,1.5
	C32.3,10.1,32.3,10.2,32.2,10.4z M31.2,10.5c0-0.7-0.1-0.9-0.6-0.9l-1.1-0.1c-0.9,0-1.6-0.6-1.9-1.5c-0.1-0.4-0.3-0.8-0.4-1.2
	s-0.4-0.5-0.9-0.4S25.4,6.7,25,6.8c-0.7,0.3-1.5,0.1-2-0.5l-0.4-0.4c-0.2-0.2-0.5-0.5-0.7-0.7c-0.2-0.2-0.5-0.2-0.7,0
	c-0.4,0.3-0.7,0.6-1.1,1c-0.5,0.6-1.3,0.8-2.1,0.5c-0.4-0.1-0.8-0.3-1.2-0.4c-0.6-0.2-0.8-0.1-1,0.5c-0.1,0.3-0.2,0.7-0.4,1
	c-0.2,0.9-1.1,1.5-2,1.5c-0.4,0-0.7,0.1-1.1,0.1s-0.6,0.2-0.6,0.7c0,0.3,0,0.7,0.1,1c0.3,1-0.2,2.1-1.2,2.5
	c-0.3,0.2-0.6,0.4-0.9,0.6c-0.2,0.1-0.4,0.4-0.2,0.7c0,0,0,0.1,0,0.1c0.1,0.2,0.2,0.3,0.3,0.4c0.2,0.3,0.4,0.6,0.6,1
	c0.3,0.6,0.3,1.3,0,1.8c-0.2,0.5-0.6,0.9-0.8,1.3s-0.2,0.6,0.2,0.9c0.4,0.2,0.7,0.5,1.1,0.7c0.7,0.3,1.1,1.1,1,1.8
	c0,0.5-0.1,1-0.1,1.5s0.1,0.6,0.6,0.7c0.3,0,0.6,0.1,0.9,0.1c1-0.1,1.9,0.6,2.1,1.6c0.1,0.3,0.2,0.6,0.3,1c0.2,0.5,0.4,0.6,0.9,0.4
	s1-0.4,1.5-0.5c0.6-0.1,1.2,0,1.6,0.4c0.4,0.4,0.8,0.8,1.2,1.1s0.5,0.3,0.9,0c0.3-0.2,0.6-0.5,0.8-0.8c0.6-0.8,1.7-1,2.6-0.6
	c0.3,0.1,0.7,0.3,1,0.4c0.5,0.1,0.7,0.1,0.9-0.4s0.3-0.9,0.5-1.4c0.2-0.7,0.9-1.2,1.6-1.2c0.5,0,1-0.1,1.5-0.2
	c0.4-0.1,0.5-0.2,0.5-0.6c0-0.4,0-0.8-0.1-1.1c-0.3-1,0.2-2,1.1-2.4c0.3-0.2,0.6-0.4,0.9-0.6s0.4-0.5,0.2-0.9s-0.6-0.9-0.9-1.4
	c-0.3-0.5-0.3-1.1,0-1.6c0.2-0.5,0.6-0.9,0.8-1.3s0.3-0.7-0.3-1.1l-1.2-0.8c-0.5-0.3-0.8-0.9-0.8-1.5C31.1,11.4,31.2,10.8,31.2,10.5
	L31.2,10.5z"/>
<path class="st0" d="M10.5,36.3c0.8-0.7,1.6-1.4,2.5-2c0.3-0.2,0.6-0.4,1-0.6c0.3-0.3,0.7-0.2,1,0.1c0.1,0.1,0.1,0.1,0.1,0.2
	c0.5,1.1,1.2,2.1,1.9,3c0.1,0.1,0.1,0.2,0.2,0.2l0.2-1c0.4-1.9,1.1-3.8,2-5.6c0.2-0.3,0.2-0.3,0.4-0.1c0.5,0.5,0.5,0.5,0.2,1.1
	c-1,2-1.6,4.1-1.9,6.3c0,0.3-0.2,0.6-0.5,0.7c-0.3,0.1-0.6,0-0.8-0.2c-0.7-0.8-1.3-1.6-1.9-2.5c-0.2-0.3-0.4-0.7-0.6-1
	c-0.1-0.2-0.2-0.2-0.4-0.1c-1,0.7-1.9,1.4-2.8,2.2c-0.2,0.2-0.5,0.4-0.7,0.7c-0.2,0.2-0.5,0.3-0.8,0.2c-0.3-0.1-0.5-0.5-0.4-0.8
	c0.2-1.5,0.5-2.9,0.9-4.4c0.5-1.9,1.2-3.7,2.1-5.4c0.1-0.2,0.1-0.4,0.3-0.4c0.3,0,0.6,0,0.9,0.1c0.1,0,0,0.2,0,0.2
	c-0.4,0.8-0.8,1.6-1.2,2.4C11.5,31.9,10.9,34.1,10.5,36.3z"/>
<path class="st0" d="M25.8,37.2c0.2-0.3,0.4-0.5,0.6-0.8c0.5-0.7,1-1.5,1.5-2.3c0.3-0.5,0.7-0.6,1.2-0.3c1.1,0.7,2.2,1.5,3.2,2.4
	l0.1,0.1c-0.1-0.9-0.3-1.8-0.5-2.7c-0.6-2.1-1.4-4.2-2.4-6.2c-0.2-0.4-0.2-0.4,0.3-0.5c0.6,0,0.6,0,0.9,0.5c1.3,2.5,2.1,5.2,2.6,7.9
	c0.1,0.5,0.2,1.1,0.2,1.7c0.1,0.3-0.1,0.7-0.4,0.8c-0.3,0.1-0.7,0-0.9-0.2c-1.1-1-2.2-2-3.5-2.8c-0.2-0.1-0.3,0-0.4,0.1
	c-0.6,1-1.2,2-1.9,2.8l-0.5,0.6c-0.2,0.3-0.6,0.4-0.9,0.2c-0.2-0.1-0.3-0.3-0.3-0.5c-0.1-1-0.3-2-0.6-3c-0.4-1.3-0.9-2.7-1.5-3.9
	c-0.1-0.2-0.1-0.4,0.1-0.5c0,0,0.1,0,0.1,0c0.5-0.4,0.5-0.4,0.8,0.2c1,1.9,1.6,4,2,6.1C25.7,37.1,25.7,37.1,25.8,37.2z"/>
<path class="st0" d="M21.5,8.1c5.2,0,9.3,4.2,9.3,9.4s-4.2,9.3-9.4,9.3c-5.2,0-9.3-4.2-9.3-9.4c0,0,0,0,0,0
	C12.1,12.2,16.3,8,21.5,8.1C21.5,8,21.5,8,21.5,8.1z M21.5,9.1c-4.6,0-8.3,3.7-8.3,8.3s3.7,8.3,8.3,8.3c4.6,0,8.3-3.7,8.3-8.3
	C29.8,12.8,26.1,9.1,21.5,9.1L21.5,9.1z"/>
</svg>
