<?xml version="1.0" encoding="utf-8"?>
<!-- Generator: Adobe Illustrator 25.0.0, SVG Export Plug-In . SVG Version: 6.00 Build 0)  -->
<svg version="1.1" id="Capa_1" xmlns="http://www.w3.org/2000/svg" xmlns:xlink="http://www.w3.org/1999/xlink" x="0px" y="0px"
	 viewBox="0 0 45 45" style="enable-background:new 0 0 45 45;" xml:space="preserve">
<style type="text/css">
	.st0{fill:#CCC48B;}
</style>
<path class="st0" d="M32.9,36.8H13.8c-0.1,0-0.1,0-0.1-0.1v-2.1h0.2c-0.1-0.1-0.2-0.3-0.1-0.5c0.1-0.2,0.2-0.2,0.4-0.2s0.6,0,0.9,0
	s0.3,0,0.3-0.3V10.4c0-0.2,0-0.2,0.2-0.2H31c0.3,0,0.3,0,0.3,0.3v23.3c0,0.2,0,0.2,0.2,0.2h1.1c0.2,0,0.4,0.1,0.4,0.3
	c0,0,0,0.1,0,0.1c0,0.1-0.1,0.2-0.2,0.2c0.2,0,0.2,0.1,0.2,0.2c0,0.3,0,0.7,0,1S32.9,36.4,32.9,36.8z M25.3,31.4v-2.3
	c0-0.1,0-0.1-0.1-0.1h-1.5c-0.2,0-0.2,0-0.2,0.2v4.5c0,0.2,0,0.2,0.2,0.2h1.4c0.2,0,0.2,0,0.2-0.2L25.3,31.4z M23.1,31.4
	c0-0.8,0-1.5,0-2.3c0-0.1,0-0.2-0.2-0.2h-1.5c-0.1,0-0.2,0-0.2,0.2c0,1.5,0,3,0,4.5c0,0.1,0,0.2,0.2,0.2h1.4c0.2,0,0.2,0,0.2-0.2
	L23.1,31.4z M27.1,25.7v1.1c0,0.1,0,0.1,0.1,0.1h2.1c0.1,0,0.1,0,0.1-0.2v-2.1c0-0.1,0-0.2-0.2-0.2c-0.7,0-1.4,0-2.1,0
	c-0.1,0-0.2,0-0.2,0.2V25.7z M23.8,25.7c0,0.4,0,0.7,0,1.1c0,0.1,0,0.2,0.1,0.2H26c0.1,0,0.1,0,0.1-0.1v-2.1c0-0.1,0-0.1-0.2-0.1
	c-0.7,0-1.4,0-2.1,0c-0.1,0-0.2,0-0.2,0.2C23.8,25,23.8,25.4,23.8,25.7L23.8,25.7z M20.4,25.7c0,0.4,0,0.7,0,1.1
	c0,0.1,0,0.2,0.1,0.2h2.1c0.1,0,0.1,0,0.1-0.1v-2.1c0-0.1,0-0.1-0.2-0.1c-0.7,0-1.4,0-2.1,0c-0.1,0-0.1,0-0.1,0.2
	C20.4,25,20.4,25.4,20.4,25.7L20.4,25.7z M18.2,26.9h1c0.1,0,0.2,0,0.2-0.2c0-0.7,0-1.4,0-2.1c0-0.1,0-0.1-0.2-0.1
	c-0.7,0-1.4,0-2.1,0c-0.1,0-0.2,0-0.2,0.2c0,0.7,0,1.4,0,2.1c0,0.1,0,0.2,0.2,0.2H18.2z M20.4,22.3c0,0.3,0,0.7,0,1
	c0,0.1,0,0.2,0.2,0.2h2c0.1,0,0.2,0,0.2-0.2v-2c0-0.1,0-0.2-0.2-0.2h-2c-0.1,0-0.2,0-0.2,0.2C20.4,21.6,20.4,22,20.4,22.3L20.4,22.3
	z M27.1,22.3c0,0.3,0,0.7,0,1c0,0.1,0,0.2,0.2,0.2h2c0.1,0,0.2,0,0.2-0.2v-2c0-0.1,0-0.2-0.2-0.2h-2c-0.1,0-0.2,0-0.2,0.2L27.1,22.3
	z M26.1,22.3v-1c0-0.1,0-0.2-0.1-0.2h-2c-0.1,0-0.1,0-0.1,0.1c0,0.7,0,1.4,0,2.1c0,0.1,0,0.1,0.1,0.1H26c0.1,0,0.1,0,0.1-0.1
	L26.1,22.3z M17,22.3c0,0.4,0,0.7,0,1.1c0,0.1,0,0.1,0.1,0.1h2.1c0.1,0,0.2,0,0.2-0.1c0-0.7,0-1.4,0-2.1c0-0.1,0-0.2-0.2-0.2h-2
	c-0.1,0-0.2,0-0.2,0.2C17.1,21.6,17.1,22,17,22.3L17,22.3z M17,15.5c0,0.3,0,0.7,0,1c0,0.1,0,0.2,0.2,0.2h2.1c0.1,0,0.2,0,0.2-0.1
	c0-0.7,0-1.4,0-2.1c0-0.1,0-0.2-0.2-0.2h-2c-0.1,0-0.2,0.1-0.2,0.2C17.1,14.9,17.1,15.2,17,15.5L17,15.5z M21.6,16.7h1
	c0.1,0,0.2,0,0.2-0.2v-2.1c0-0.1,0-0.2-0.2-0.2h-2c-0.1,0-0.2,0.1-0.2,0.2c0,0.7,0,1.4,0,2.1c0,0.1,0,0.2,0.2,0.2H21.6z M24.9,16.7
	h1c0.1,0,0.2,0,0.2-0.2v-2c0-0.1,0-0.2-0.2-0.2H24c-0.1,0-0.2,0-0.2,0.2c0,0.7,0,1.3,0,2c0,0.1,0,0.2,0.2,0.2
	C24.3,16.7,24.6,16.7,24.9,16.7L24.9,16.7z M28.3,16.7h1c0.1,0,0.2,0,0.2-0.2v-2.1c0-0.1,0-0.2-0.2-0.2h-2c-0.1,0-0.2,0-0.2,0.2v2.1
	c0,0.1,0,0.2,0.2,0.2H28.3z M19.4,18.9c0-0.3,0-0.7,0-1c0-0.1,0-0.2-0.2-0.2h-2c-0.1,0-0.2,0-0.2,0.2c0,0.7,0,1.4,0,2.1
	c0,0.1,0,0.1,0.1,0.2c0,0,0,0,0,0h2.1c0.1,0,0.2,0,0.2-0.2C19.5,19.6,19.5,19.3,19.4,18.9L19.4,18.9z M22.8,18.9v-1
	c0-0.1,0-0.2-0.2-0.2h-2c-0.1,0-0.2,0-0.2,0.2c0,0.7,0,1.4,0,2.1c0,0.1,0,0.1,0.1,0.2c0,0,0,0,0,0h2.1c0.1,0,0.2,0,0.2-0.2
	L22.8,18.9z M26.1,18.9c0-0.3,0-0.7,0-1c0-0.1,0-0.2-0.2-0.2h-2c-0.1,0-0.2,0-0.2,0.2c0,0.7,0,1.4,0,2c0,0.1,0,0.2,0.2,0.2h2
	c0.1,0,0.2,0,0.2-0.2L26.1,18.9z M27.1,18.9v1c0,0.1,0,0.2,0.1,0.2h2.1c0.1,0,0.2,0,0.2-0.2v-2c0-0.1,0-0.2-0.2-0.2h-2
	c-0.1,0-0.2,0-0.2,0.2L27.1,18.9z M22.6,13c0.1,0,0.1,0,0.2-0.1l0.5-0.3c0.1-0.1,0.1-0.1,0.2,0c0,0,0,0,0,0l0.5,0.4L24,13
	c-0.1-0.2-0.1-0.4-0.2-0.6c-0.1-0.1,0-0.2,0.1-0.3c0,0,0,0,0,0c0.2-0.1,0.4-0.3,0.5-0.4l0,0h-0.5c-0.4,0-0.3,0.1-0.5-0.3
	c-0.1-0.2-0.1-0.3-0.2-0.5l0,0c-0.1,0.2-0.1,0.3-0.2,0.5c-0.1,0.3-0.1,0.3-0.4,0.3h-0.5l0,0l0.6,0.4c0.1,0,0.1,0.2,0.1,0.2
	C22.7,12.5,22.7,12.8,22.6,13z M25.7,12.7l0.4-0.3c0.1,0,0.1,0,0.2,0l0.4,0.3c0-0.1-0.1-0.3-0.1-0.4c-0.1-0.1,0-0.2,0.1-0.3
	c0,0,0,0,0,0c0.1-0.1,0.2-0.2,0.3-0.3h-0.5c-0.1,0-0.2-0.1-0.2-0.1c0-0.1-0.1-0.3-0.1-0.4c-0.1,0.1-0.1,0.3-0.2,0.4
	c0,0.1-0.1,0.2-0.2,0.2c-0.1,0-0.3,0-0.5,0l0.4,0.3c0.1,0,0.1,0.1,0.1,0.2C25.8,12.4,25.7,12.5,25.7,12.7L25.7,12.7z M20.9,12.7
	L20.9,12.7c0-0.1-0.1-0.2-0.1-0.3c-0.1-0.3-0.1-0.2,0.1-0.4c0.1-0.1,0.2-0.1,0.3-0.2h-0.4c-0.1,0-0.2,0-0.2-0.1c0,0,0,0,0,0
	c0-0.1-0.1-0.3-0.1-0.4c-0.1,0.1-0.1,0.3-0.2,0.4c0,0.1-0.1,0.2-0.2,0.2c0,0,0,0,0,0c-0.1,0-0.3,0-0.5,0c0.1,0.1,0.2,0.2,0.4,0.3
	c0.1,0,0.1,0.2,0.1,0.3c0,0,0,0,0,0c-0.1,0.1-0.1,0.3-0.1,0.4c0.1-0.1,0.3-0.1,0.4-0.2c0.1-0.1,0.2-0.1,0.2,0c0,0,0,0,0,0
	C20.7,12.5,20.8,12.6,20.9,12.7L20.9,12.7z M29.3,11.8h-0.4c-0.1,0-0.2,0-0.2-0.1c0,0,0,0,0,0c0-0.1-0.1-0.2-0.1-0.3
	c0,0.1-0.1,0.2-0.1,0.3c0,0.1-0.1,0.2-0.3,0.2c-0.1,0-0.2,0-0.3,0l0.3,0.2c0.1,0,0.1,0.1,0.1,0.2c0,0,0,0,0,0c0,0.1-0.1,0.2-0.1,0.3
	c0.1,0,0.1-0.1,0.2-0.1c0.3-0.2,0.2-0.2,0.4,0c0.1,0,0.1,0.1,0.2,0.1c0-0.1-0.1-0.2-0.1-0.3c-0.1-0.1,0-0.2,0.1-0.2c0,0,0,0,0,0
	C29.1,11.9,29.2,11.8,29.3,11.8L29.3,11.8z M18.4,12.5c0-0.1-0.1-0.2-0.1-0.4c0-0.1,0-0.2,0.1-0.2c0.1-0.1,0.2-0.1,0.3-0.2h-0.3
	c-0.1,0-0.2,0-0.2-0.2c0,0,0,0,0,0c0-0.1-0.1-0.2-0.1-0.3c0,0.1-0.1,0.2-0.1,0.3s-0.1,0.1-0.2,0.1h-0.4l0.3,0.2
	c0.1,0,0.1,0.1,0.1,0.2c0,0,0,0,0,0c0,0.1-0.1,0.2-0.1,0.3l0.1-0.1c0.1-0.1,0.2-0.2,0.3-0.2S18.2,12.4,18.4,12.5L18.4,12.5z
	 M16.7,35.8c0-0.2-0.1-0.2-0.2-0.3c-0.1,0-0.2,0.1-0.2,0.2c0,0.1,0.1,0.2,0.2,0.3C16.6,36,16.7,35.9,16.7,35.8z"/>
<path class="st0" d="M16.7,35.8c0,0.1-0.1,0.2-0.2,0.3c-0.1,0-0.2-0.1-0.2-0.3c0-0.1,0.1-0.2,0.2-0.2C16.6,35.5,16.7,35.6,16.7,35.8
	z"/>
<path class="st0" d="M19.1,8.4v1.1c0,0.2,0,0.2-0.2,0.2h-0.5c-0.1,0-0.1,0-0.1-0.1s0-0.5,0-0.7s0-0.2-0.1-0.2h-0.6
	c-0.1,0-0.1,0-0.1,0.1v0.7c0,0.1,0,0.2-0.1,0.2h-0.5c-0.2,0-0.2,0-0.2-0.2V8.6c0-0.5,0-0.9,0-1.4c0-0.2,0-0.2,0.2-0.2h0.5
	c0.1,0,0.1,0,0.1,0.1s0,0.4,0,0.7c0,0.2,0,0.2,0.2,0.2H18c0.1,0,0.2,0,0.2-0.2s0-0.4,0-0.6s0-0.2,0.1-0.2h0.6C19,7,19,7,19,7.2
	C19,7.6,19.1,8,19.1,8.4z"/>
<path class="st0" d="M19.5,8.3c0-0.4,0.2-0.9,0.5-1.1C20.2,7.1,20.4,7,20.6,7c0.3-0.1,0.6-0.1,0.9,0c0.5,0.1,0.9,0.6,0.9,1.1
	c0,0.2,0,0.3,0,0.5c0,0.5-0.4,0.9-0.9,1c-0.3,0.1-0.6,0.1-0.9,0c-0.6-0.1-1-0.6-1-1.2L19.5,8.3z M21.5,8.3L21.5,8.3V8.1
	c0-0.3-0.3-0.5-0.5-0.5c0,0,0,0,0,0c-0.3,0-0.5,0.2-0.5,0.4c0,0,0,0,0,0c0,0.2,0,0.3,0,0.5c0,0.2,0.2,0.4,0.4,0.4
	c0.3,0.1,0.6-0.1,0.7-0.3c0-0.1,0-0.1,0-0.2V8.3z"/>
<path class="st0" d="M25.4,8.3V7.2c0-0.1,0-0.2,0.2-0.2h2c0.1,0,0.2,0,0.2,0.2c0,0.1,0,0.2,0,0.3c0,0.1,0,0.2-0.2,0.2h-1.1
	c-0.1,0-0.2,0-0.2,0.2S26.4,8,26.5,8h0.9c0.1,0,0.2,0,0.2,0.2v0.3c0,0.1,0,0.2-0.2,0.2h-0.9c-0.1,0-0.2,0-0.2,0.2s0,0.2,0.2,0.2h1.1
	c0.1,0,0.2,0.1,0.2,0.2c0,0.1,0,0.2,0,0.3c0,0.1,0,0.1-0.1,0.1h-2c-0.2,0-0.2,0-0.2-0.2L25.4,8.3z"/>
<path class="st0" d="M23.8,7h1.1c0.1,0,0.2,0,0.2,0.2c0,0.1,0,0.2,0,0.4c0,0.1-0.1,0.2-0.2,0.2h-0.5c-0.2,0-0.2,0-0.2,0.2v1.6
	c0,0.2,0,0.2-0.2,0.2h-0.5c-0.1,0-0.2-0.1-0.2-0.2V8c0-0.2,0-0.2-0.2-0.2h-0.5c-0.1,0-0.1,0-0.1-0.1V7.2c0-0.1,0-0.2,0.2-0.2L23.8,7
	z"/>
<path class="st0" d="M28.2,8.3c0-0.4,0-0.8,0-1.1c0-0.1,0-0.2,0.2-0.2h0.5c0.2,0,0.2,0,0.2,0.2v1.5c0,0.2,0,0.2,0.2,0.2h1
	c0.1,0,0.2,0,0.1,0.2v0.4c0,0.1,0,0.2-0.1,0.2h-1.9c-0.1,0-0.2,0-0.2-0.1C28.2,9.1,28.2,8.7,28.2,8.3z"/>
<path class="st0" d="M18,35.8c0-0.1,0.1-0.2,0.2-0.2c0.1,0,0.2,0.1,0.2,0.2c0,0.1-0.1,0.2-0.2,0.2S18,35.9,18,35.8z"/>
<path class="st0" d="M15,33.9h16.6c0.7,0,1.3,0.6,1.3,1.3v0.2c0,0.7-0.6,1.3-1.3,1.3H15c-0.7,0-1.3-0.6-1.3-1.3v-0.2
	C13.6,34.5,14.2,33.9,15,33.9z"/>
</svg>
