<svg id="Capa_1" fill="#CCC48B" data-name="Capa 1" xmlns="http://www.w3.org/2000/svg" viewBox="0 0 44.99 44.99"><path d="M27.59,36.18a10.08,10.08,0,0,1-2.46-.67,15.11,15.11,0,0,1-4.2-2.73,25.35,25.35,0,0,1-5.34-6.92,24.65,24.65,0,0,1-2.37-6,16.06,16.06,0,0,1-.5-4.58,8.79,8.79,0,0,1,1.49-4.84,7.36,7.36,0,0,1,1.11-1.19,3.6,3.6,0,0,1,2.05-.75l.86-.16A1.06,1.06,0,0,1,19.5,9c.57,1.47,1.12,2.94,1.71,4.41a2,2,0,0,1-.18,2l-.15.26a2.7,2.7,0,0,1-.93,1,2.67,2.67,0,0,0-1.17,2.25,7.29,7.29,0,0,0,.74,3.15A18.36,18.36,0,0,0,22,26.25,5.92,5.92,0,0,0,24.3,28.1,2.71,2.71,0,0,0,26.72,28a1.5,1.5,0,0,1,.83-.2,5.42,5.42,0,0,1,1.45.09,1.77,1.77,0,0,1,.82.57c1.05,1.3,2.1,2.59,3.15,3.9a1,1,0,0,1,0,1.37c-.39.46-.79.91-1.17,1.39a3.05,3.05,0,0,1-1.62.88c-.3.09-.62.14-.93.2Z"/><path d="M33,22.3a10.64,10.64,0,0,1-.32,2.33.62.62,0,0,1-.75.5.61.61,0,0,1-.46-.77,8.87,8.87,0,0,0,.25-2.46,8.22,8.22,0,0,0-5.64-7.45l-.46-.16a.6.6,0,0,1-.38-.77.61.61,0,0,1,.78-.39,9.14,9.14,0,0,1,2.56,1.12,9.44,9.44,0,0,1,4.18,5.94A10.83,10.83,0,0,1,33,22.3Z"/><path d="M30.58,22.22A5.46,5.46,0,0,1,30.41,24c-.13.48-.51.69-.89.51a.62.62,0,0,1-.33-.73,7.75,7.75,0,0,0,.18-1.59,5.87,5.87,0,0,0-3.93-5.44c-.16,0-.32-.1-.46-.16a.59.59,0,0,1-.36-.76.6.6,0,0,1,.76-.4A7,7,0,0,1,28,16.77a7.1,7.1,0,0,1,2.54,4.71A6.09,6.09,0,0,1,30.58,22.22Z"/><path d="M28.27,22.22a4,4,0,0,1-.17,1.24.61.61,0,0,1-.49.46A.62.62,0,0,1,27,23.7a.53.53,0,0,1-.12-.48,4.13,4.13,0,0,0,0-1.75A3.45,3.45,0,0,0,24.7,19l-.33-.13a.6.6,0,0,1-.36-.75.63.63,0,0,1,.76-.41,3.56,3.56,0,0,1,.89.34A4.75,4.75,0,0,1,28.27,22.22Z"/><path d="M24.63,22.44a1.1,1.1,0,0,0-.79-1.29.66.66,0,0,1-.45-.49.61.61,0,0,1,.79-.7,2.42,2.42,0,0,1,1.65,2.89.62.62,0,0,1-.74.45.59.59,0,0,1-.46-.64Z"/></svg>