<?xml version="1.0" encoding="utf-8"?>
<!-- Generator: Adobe Illustrator 25.0.0, SVG Export Plug-In . SVG Version: 6.00 Build 0)  -->
<svg version="1.1" id="Capa_1" xmlns="http://www.w3.org/2000/svg" xmlns:xlink="http://www.w3.org/1999/xlink" x="0px" y="0px"
	 viewBox="0 0 45 45" style="enable-background:new 0 0 45 45;" xml:space="preserve">
<style type="text/css">
	.st0{fill:#CCC48B;}
</style>
<path class="st0" d="M21.8,36H6.8c-0.6,0-0.6,0-0.6-0.5v-2c0-0.5,0-0.5,0.6-0.5h1.9c0.5,0,0.5,0,0.5-0.5V23c0-0.5,0-0.5,0.5-0.6
	c1-0.1,2.1-0.3,3.1-0.4c0.4,0,0.5-0.2,0.5-0.5c0-3.6,0-7.3,0-10.9c-0.1-0.3,0.1-0.6,0.5-0.7c0,0,0,0,0,0c3.5-1,7-2,10.5-3
	c0.2-0.1,0.3-0.1,0.5,0c3.1,1.3,6.3,2.6,9.5,3.9c0.3,0.1,0.5,0.4,0.4,0.7v20.9c0,0.6,0,0.6,0.6,0.6h1.8c0.3,0,0.4,0.1,0.4,0.4
	c0,0.8,0,1.6,0,2.4c0,0.3-0.1,0.3-0.4,0.3L21.8,36L21.8,36z M23.8,20.8V9.1c0-0.4,0-0.4-0.4-0.3c-2.7,0.8-5.4,1.6-8.1,2.3
	c-0.3,0-0.5,0.3-0.4,0.6c0,0,0,0,0,0c0,3.7,0,7.4,0,11.1c0,0.5,0,0.5-0.5,0.5c-1.1,0.1-2.2,0.3-3.3,0.4c-0.3,0-0.4,0.1-0.4,0.4
	c0,2.8,0,5.6,0,8.4c0,0.3,0.1,0.4,0.4,0.4h12c0.6,0,0.6,0,0.6-0.5L23.8,20.8z M26.2,12.4c0,0.2,0,0.5,0,0.8c0,0.2,0.1,0.3,0.2,0.4
	c0,0,0,0,0,0c0.3,0.1,0.6,0.1,1,0.2c1.7,0.4,3.5,0.8,5.2,1.2c0.3,0.1,0.4,0,0.3-0.3c0-0.4,0-0.8,0-1.2c0-0.2-0.1-0.4-0.3-0.4
	c0,0,0,0,0,0l-6.1-1.6c-0.2-0.1-0.3,0-0.3,0.2S26.1,12.2,26.2,12.4L26.2,12.4z M32.9,25.8c0-0.1,0-0.3,0-0.4s0-0.3-0.3-0.3
	c-2-0.2-4.1-0.3-6.1-0.5c-0.3,0-0.3,0.1-0.3,0.3c0,0.4,0,0.8,0,1.2s0,0.6,0.6,0.6l2,0.1l3.9,0.2c0.2,0,0.3-0.1,0.2-0.3
	S32.9,26.1,32.9,25.8z M32.9,21.8L32.9,21.8c0-0.1,0-0.1,0-0.2c0.1-0.3-0.1-0.4-0.4-0.5c-0.8-0.1-1.7-0.2-2.5-0.4l-3.5-0.5
	c-0.2,0-0.3,0-0.3,0.3c0,0.5,0,1,0,1.5c0,0.2,0.1,0.3,0.4,0.4s0.7,0.1,1,0.1l5.1,0.6c0.2,0,0.3,0,0.3-0.2S32.9,22.1,32.9,21.8z
	 M26.1,16.8c0,0.3,0,0.5,0,0.8s0.1,0.3,0.3,0.3l6.2,1.1c0.2,0,0.3,0,0.3-0.2c0-0.4,0-0.8,0-1.2s-0.1-0.4-0.3-0.5l-6.1-1.2
	c-0.2,0-0.4,0-0.3,0.2C26.2,16.4,26.1,16.6,26.1,16.8z M29.6,30.9h3.1c0.2,0,0.3,0,0.3-0.3c-0.1-0.4-0.1-0.8,0-1.2
	c0-0.3-0.1-0.4-0.3-0.4c-1-0.1-2.1,0-3.1-0.1s-2-0.1-3-0.1c-0.2,0-0.4,0.1-0.4,0.3c0,0.4,0,0.9,0,1.3s0.1,0.4,0.4,0.4
	C27.6,30.9,28.6,30.9,29.6,30.9z"/>
<path class="st0" d="M22.5,12.6c0,1.1,0,1.1-1,1.2c-0.7,0.1-0.7,0.1-0.7-0.6v-1c0-0.2,0-0.3,0.2-0.4l1.2-0.2c0.2,0,0.3,0,0.3,0.2
	S22.5,12.3,22.5,12.6z"/>
<path class="st0" d="M22.6,17c0,0.2,0,0.4,0,0.6s-0.1,0.5-0.4,0.5s-0.7,0.1-1.1,0.1s-0.3-0.1-0.3-0.3v-1.5c0-0.1,0.1-0.3,0.2-0.3
	c0,0,0,0,0,0l1.3-0.2c0.2,0,0.2,0.1,0.2,0.2L22.6,17L22.6,17z"/>
<path class="st0" d="M22.5,21.4c0,1.1,0,1.1-1,1.1c-0.8,0-0.7,0.1-0.7-0.6c0-0.4,0-0.7,0-1.1c0-0.2,0.1-0.3,0.2-0.3c0,0,0,0,0,0
	c0.4,0,0.8-0.1,1.2-0.1c0.2,0,0.2,0.1,0.2,0.2V21.4z"/>
<path class="st0" d="M22.6,25.8c0,1,0,1-1,1.1c-0.7,0-0.7,0-0.7-0.7c0-0.4,0-0.7,0-1c0-0.2,0.1-0.3,0.2-0.4c0,0,0.1,0,0.1,0
	c0.4,0,0.7,0,1.1-0.1s0.4,0.1,0.4,0.4S22.6,25.6,22.6,25.8z"/>
<path class="st0" d="M22.6,30.2c0,0.2,0,0.4,0,0.7s-0.1,0.4-0.4,0.4h-1.1c-0.2,0-0.3-0.1-0.3-0.3v-1.5c0-0.2,0.1-0.3,0.3-0.3
	c0.4,0,0.8,0,1.1-0.1s0.4,0.1,0.4,0.4S22.6,30,22.6,30.2z"/>
<path class="st0" d="M19.3,13.2c0,1,0,1-1,1.2c-0.7,0.1-0.7,0.1-0.7-0.6c0-0.3,0-0.6,0-1c0-0.2,0.1-0.3,0.3-0.4c0,0,0,0,0,0l1.1-0.2
	c0.2,0,0.3,0,0.3,0.2L19.3,13.2z"/>
<path class="st0" d="M17.6,17.6c0-0.9,0-1,0.9-1.1c0.8-0.1,0.8-0.3,0.8,0.6c0,0.3,0,0.7,0,1c0,0.2-0.1,0.3-0.2,0.3c0,0,0,0,0,0
	l-1.2,0.2c-0.2,0-0.2-0.1-0.2-0.3V17.6z"/>
<path class="st0" d="M19.3,21.7c0,1,0,1-1,1.1c-0.7,0.1-0.7,0.1-0.7-0.6c0-0.4,0-0.7,0-1c0-0.2,0.1-0.3,0.2-0.4c0,0,0.1,0,0.1,0
	l1.1-0.1c0.2,0,0.2,0.1,0.2,0.2S19.3,21.5,19.3,21.7z"/>
<path class="st0" d="M19.3,26v0.8c0,0.2-0.1,0.3-0.2,0.3l-1,0c-0.2,0-0.4-0.1-0.4-0.3c0-0.5,0-0.9,0-1.4c0-0.2,0-0.3,0.2-0.3l1,0
	c0.3,0,0.4,0.1,0.4,0.4S19.3,25.8,19.3,26L19.3,26z"/>
<path class="st0" d="M19.3,30.3c0,0.2,0.1,0.6-0.1,0.9s-0.6,0.1-0.9,0.1c-0.7,0-0.7,0-0.7-0.7c0-0.3,0-0.6,0-1s0.1-0.3,0.3-0.3
	l1.1,0c0.2,0,0.3,0.1,0.3,0.3S19.3,30,19.3,30.3z"/>
<path class="st0" d="M16.1,26.2v0.7c0,0.1-0.1,0.2-0.2,0.2l-1,0.1c-0.2,0-0.2,0-0.3-0.2c0-0.5,0-0.9,0-1.4c0-0.2,0.1-0.3,0.3-0.3
	s0.6,0,0.9-0.1c0.3-0.1,0.3,0.1,0.3,0.3S16.2,25.9,16.1,26.2L16.1,26.2z"/>
<path class="st0" d="M16.1,30.3V31c0,0.2,0,0.3-0.3,0.3h-1c-0.1,0-0.2,0-0.2-0.2c0-0.5,0-0.9,0-1.4c0-0.2,0.1-0.3,0.3-0.4
	C16,29.1,16.1,29.2,16.1,30.3z"/>
<path class="st0" d="M13.2,26.3c0,0.9,0,0.9-0.9,1H12c-0.2,0-0.3-0.1-0.3-0.2v-1.4c0-0.1,0.1-0.3,0.2-0.3c0,0,0,0,0.1,0h1
	c0.2,0,0.2,0.1,0.2,0.2L13.2,26.3z"/>
<path class="st0" d="M13.2,30.3V31c0,0.1-0.1,0.2-0.2,0.2h-1c-0.2,0-0.3-0.1-0.3-0.3v-1.3c0-0.2,0.1-0.3,0.3-0.3h0.9
	c0.2,0,0.3,0.1,0.3,0.3L13.2,30.3z"/>
</svg>
