<?xml version="1.0" encoding="utf-8"?>
<!-- Generator: Adobe Illustrator 25.0.0, SVG Export Plug-In . SVG Version: 6.00 Build 0)  -->
<svg version="1.1" id="Capa_1" xmlns="http://www.w3.org/2000/svg" xmlns:xlink="http://www.w3.org/1999/xlink" x="0px" y="0px"
	 viewBox="0 0 45 45" style="enable-background:new 0 0 45 45;" xml:space="preserve">
<style type="text/css">
	.st0{fill:#CCC48B;}
</style>
<path class="st0" d="M11.1,8.1c0.4,0.1,0.7,0.4,0.9,0.8C12.5,9.9,13,11,13.5,12c0.1,0.2,0.2,0.3,0.4,0.4c1.2,0.7,2.4,1.3,3.5,2
	c0.2,0.1,0.4,0.2,0.7,0.2h6.3c0.1,0,0.2-0.1,0.3,0.1s-0.1,0.2-0.1,0.2c-0.4,0.5-0.7,1.1-0.8,1.7c0,0.2-0.3,0.4-0.5,0.3
	c-0.5,0-0.5,0-0.5,0.5V23l0,0l1.2-3.4c0.4-1,0.7-2,1.1-3c0.3-0.9,1-1.6,1.8-1.9c0.2-0.1,0.5-0.1,0.7-0.1c1.2,0,2.3,0,3.5,0
	c1.3-0.1,2.5,0.7,2.9,2c0.7,1.8,1.3,3.5,1.9,5.3c0.3,0.8,0.6,1.6,0.9,2.4c0.2,0.6,0,1.2-0.6,1.5c-0.1,0-0.2,0.1-0.3,0.1
	c-0.6,0.1-1.1-0.2-1.3-0.8c-0.3-0.8-0.5-1.5-0.8-2.3c-0.4-1.2-0.8-2.4-1.3-3.5c0.5,2.6,1,5.3,1.5,7.9c0.1,0.4-0.1,0.8-0.5,0.9
	c-0.1,0-0.1,0-0.2,0c-0.7,0-0.7,0-0.7,0.7c0,2.4,0,4.9,0,7.3c0.1,0.5-0.1,1-0.5,1.3c-0.6,0.5-1.4,0.5-1.9-0.1
	c-0.2-0.2-0.3-0.5-0.3-0.7c0-0.3,0-0.6,0-0.9c0-0.9,0-1.7,0-2.6s0-1.7,0-2.5s0-1.5,0-2.2c0-0.2-0.1-0.3-0.3-0.3s-0.2,0.1-0.2,0.3
	c0,2.6,0,5.3,0,7.9c0.1,0.8-0.5,1.4-1.3,1.5c-0.8,0.1-1.4-0.5-1.5-1.3c0-0.8,0-1.7,0-2.5c0-0.3,0.2-0.2,0.3-0.2
	c0.9,0,1.7-0.6,1.9-1.5c0-0.1,0-0.2,0-0.3c0-1.6,0-3.3,0-4.9c0-0.9-0.6-1.6-1.5-1.8c-0.2,0-0.3-0.2-0.3-0.4c-0.1-0.6-0.4-1.2-1-1.5
	c-0.1-0.1-0.2-0.2-0.2-0.4c0.2-1.2,0.5-2.4,0.7-3.5c0-0.1,0-0.1,0-0.2c-0.2,0.6-0.5,1.3-0.7,1.9c-0.3,1-0.7,1.9-1,2.8
	c-0.1,0.2-0.1,0.3,0.2,0.3c0.3,0,0.6,0.3,0.7,0.6c0,0.4,0,0.8,0,1.2c0,0.3,0.1,0.4,0.4,0.3s0.4,0,0.6,0c0.6,0,0.8,0.3,0.8,0.8
	c0,0.9,0,1.8,0,2.7c0,0.5,0,1.1,0,1.7s-0.2,0.7-0.7,0.8s-0.8,0-1.2,0c-0.9,0-1.7,0-2.6,0c-1.1,0-2.2,0-3.3,0c-0.3,0-0.5-0.2-0.5-0.4
	c0-0.1,0-0.3,0-0.4c0-1.4,0-2.8,0-4.2c0-0.6,0.2-0.9,0.9-0.9c0.2,0,0.5,0,0.7,0s0.3,0,0.2-0.2c0-0.4,0-0.8,0-1.2
	c0-0.4,0.3-0.7,0.7-0.6c0.5,0.1,0.8-0.2,0.9-0.7c0.2-0.7,0.2-0.6-0.5-0.6c-0.6,0-1.1,0.1-1.6,0.4c-0.5,0.3-0.8,0.9-0.8,1.5
	c0,0.1-0.1,0.3-0.2,0.3c0,0,0,0,0,0c-0.1,0-0.2,0-0.3,0.1c-0.4,0.1-0.4,0.1-0.4-0.3c0-0.3,0-0.5,0-0.8c0-1.2-0.7-2.3-1.8-2.8
	c-0.2-0.1-0.3-0.2-0.2-0.4c0-1.4,0-2.7,0-4.1c0-0.2-0.1-0.4-0.3-0.5c-1.4-0.8-2.7-1.5-4-2.3c-0.3-0.2-0.5-0.4-0.7-0.7
	c-0.6-1.2-1.2-2.4-1.8-3.6c-0.4-0.6-0.2-1.3,0.3-1.7c0.1-0.1,0.2-0.1,0.3-0.2L11.1,8.1z M23.3,26.6h0.8c0.1,0,0.2,0,0.2-0.1
	c0.1-0.2,0.1-0.4,0-0.6c-0.1-0.2-0.2-0.1-0.4-0.1c-0.4,0.1-0.7,0.1-1.1,0c-0.5-0.1-0.5,0-0.5,0.5c0,0.2,0.1,0.3,0.3,0.2L23.3,26.6z"
	/>
<path class="st0" d="M10.9,30.5c0-2,0-4.1,0-6.2c0-0.2-0.1-0.4-0.3-0.5c-0.7-0.2-1.4-0.5-2.2-0.8c-0.3-0.1-0.5-0.4-0.6-0.7
	c-0.2-1-0.4-2.1-0.6-3.1c-0.1-0.4,0.1-0.9,0.5-1.1c0.4-0.2,1,0,1.2,0.4C9,18.6,9,18.7,9,18.8c0.1,0.7,0.3,1.4,0.4,2.1
	c0,0.5,0.3,0.9,0.8,1c0.5,0.1,0.9,0.3,1.4,0.5c0.1,0.1,0.3,0.1,0.4,0.1c1.1,0,2.3,0,3.4,0c0.9,0,1.8,0.6,2,1.5
	c0.1,0.2,0.1,0.4,0.1,0.7c0,2,0,4,0,6c0,0.5-0.3,0.9-0.8,0.9c-0.1,0-0.2,0-0.3,0c-0.3-0.1-0.6-0.4-0.6-0.8c0-1.2,0-2.3,0-3.5
	c0-0.8,0-1.7,0-2.5c0-0.1,0-0.3-0.1-0.3s-0.1,0.2-0.1,0.3v12.1c0,0.6-0.5,1-1,1s-1-0.5-1-1v-5.9c0-0.1,0-0.3-0.2-0.3
	S13,30.7,13,30.8v5.9c0,0.6-0.5,1-1,1s-1-0.5-1-1L10.9,30.5z"/>
<path class="st0" d="M22.1,11.4c0,1.3-1,2.4-2.3,2.4c0,0,0,0-0.1,0c-1.3,0-2.4-1.1-2.4-2.4S18.4,9,19.8,9
	C21.1,9,22.1,10.1,22.1,11.4C22.2,11.4,22.2,11.4,22.1,11.4z"/>
<path class="st0" d="M29.6,14c-1.3,0-2.4-1-2.4-2.3c0-1.3,1-2.4,2.3-2.4c1.3,0,2.4,1,2.4,2.3c0,0,0,0,0,0C31.9,12.9,30.9,14,29.6,14
	z"/>
<path class="st0" d="M13.2,17.5c1.2,0,2.2,1,2.2,2.2c0,0,0,0,0,0c-0.1,1.2-1.1,2.1-2.3,2c-1.1-0.1-2-0.9-2-2
	C11,18.4,12,17.5,13.2,17.5C13.2,17.5,13.2,17.5,13.2,17.5z"/>
<path class="st0" d="M16.7,34.8c0-0.6,0-1.2,0-1.8c0-0.2,0.1-0.3,0.3-0.3c0.2,0,0.5-0.1,0.7-0.2c0.1-0.1,0.2,0,0.2,0.1
	c0.2,0.6,0.7,1.1,1.4,1.3c0.1,0,0.2,0.1,0.2,0.2c0,0,0,0,0,0c0,0.8,0,1.7,0,2.6c-0.1,0.8-0.8,1.3-1.6,1.2c-0.6-0.1-1.1-0.6-1.2-1.2
	C16.7,36,16.7,35.3,16.7,34.8z"/>
<path class="st0" d="M20,35.3c0-0.4,0-0.8,0-1.2c0-0.2,0.1-0.3,0.3-0.3h2.3c0.2,0,0.3,0,0.3,0.2c0,0.8,0,1.7,0,2.5
	c-0.1,0.7-0.7,1.3-1.5,1.2c-0.7,0-1.3-0.6-1.3-1.4C20,36.1,20,35.7,20,35.3z"/>
</svg>
