<?xml version="1.0" encoding="utf-8"?>
<!-- Generator: Adobe Illustrator 25.0.0, SVG Export Plug-In . SVG Version: 6.00 Build 0)  -->
<svg version="1.1" id="Capa_1" xmlns="http://www.w3.org/2000/svg" xmlns:xlink="http://www.w3.org/1999/xlink" x="0px" y="0px"
	 viewBox="0 0 45 45" style="enable-background:new 0 0 45 45;" xml:space="preserve">
<style type="text/css">
	.st0{fill:#CCC48B;}
</style>
<g id="Layer_2">
	<path class="st0" d="M24.3,33.7l-0.7,0.1c-0.6,0.1-1,0.7-0.9,1.2c0,0,0,0,0,0c0.1,0.5,0.6,0.9,1.1,0.9c0,0,0.1,0,0.1,0
		c0.3,0,0.5-0.1,0.8-0.2c0.5-0.3,0.7-0.9,0.5-1.4C25.1,34,24.7,33.7,24.3,33.7L24.3,33.7z"/>
	<path class="st0" d="M32.1,19.5c0.2,0.5,0.9,0.8,1.4,0.5c0.4-0.2,0.7-0.7,0.6-1.2c-0.1-0.3-0.2-0.5-0.3-0.8
		c-0.2-0.6-0.8-0.8-1.4-0.6s-0.8,0.8-0.6,1.4C32,19.1,32,19.3,32.1,19.5z"/>
	<path class="st0" d="M27.7,32.2c-0.2,0.1-0.4,0.2-0.6,0.3c-0.5,0.3-0.7,0.9-0.4,1.5c0.1,0.1,0.2,0.2,0.3,0.3c0.3,0.2,0.8,0.3,1.1,0
		l0.7-0.4c0.5-0.3,0.6-1,0.3-1.5c0,0,0,0,0,0C28.9,32,28.2,31.9,27.7,32.2C27.7,32.2,27.7,32.2,27.7,32.2z"/>
	<path class="st0" d="M34.8,22.5c0-0.6-0.4-1.1-1-1.1c-0.6,0-1.1,0.4-1.1,1c0,0.1,0,0.1,0,0.2c0,0.2,0,0.5,0,0.7
		c0,0.4,0.2,0.7,0.5,0.9c0.2,0.1,0.4,0.2,0.6,0.2c0.6,0,1-0.4,1.1-1C34.8,23,34.8,22.7,34.8,22.5z"/>
	<path class="st0" d="M31.9,29.4c-0.5-0.3-1.1-0.2-1.5,0.2L30,30.1c-0.4,0.4-0.4,1,0,1.4c0,0,0.1,0.1,0.1,0.1c0,0,0,0,0.1,0.1
		c0.4,0.3,1.1,0.2,1.4-0.2c0.2-0.2,0.3-0.4,0.5-0.6C32.5,30.4,32.4,29.8,31.9,29.4z"/>
	<path class="st0" d="M33.5,25.6c-0.6-0.2-1.1,0.1-1.3,0.7c0,0,0,0,0,0c-0.1,0.2-0.1,0.4-0.2,0.6c-0.2,0.5,0,1,0.4,1.2
		c0.1,0,0.1,0.1,0.2,0.1c0.5,0.2,1.2-0.1,1.4-0.6c0,0,0,0,0,0c0.1-0.2,0.2-0.5,0.3-0.8C34.4,26.3,34.1,25.8,33.5,25.6z"/>
	<path class="st0" d="M19.7,33.8c-0.9-0.2-1.8-0.5-2.7-0.8l0,0c-0.2-0.1-0.4-0.2-0.6-0.3l0,0c-0.4-0.2-0.7-0.4-1.1-0.7
		c-5-3.5-6.2-10.4-2.8-15.4c0,0,0,0,0,0c0.7-1.1,1.7-2,2.7-2.7l0,0c3.7-2.6,8.6-2.6,12.4-0.1L26.9,15c-0.2,0.3-0.1,0.6,0.3,0.5
		l3.6-0.3c0.3,0,0.6-0.3,0.6-0.6c0-0.1,0-0.1,0-0.2l-1-3.4c-0.1-0.4-0.4-0.4-0.6-0.1L29,12.1c-2.8-1.9-6.2-2.6-9.6-2
		c-0.3,0.1-0.7,0.1-1,0.2h0c-2.9,0.7-5.5,2.4-7.2,4.9v0.1L11,15.4c-0.1,0.1-0.2,0.3-0.3,0.4l0,0c-1.5,2.3-2.2,5-2.1,7.7l0,0
		c0,0.3,0,0.5,0.1,0.8v0c0,0.3,0.1,0.5,0.1,0.8c0.5,2.7,1.7,5.2,3.7,7.1l0,0l0,0c0.5,0.5,1.1,1,1.7,1.4c1.6,1.1,3.4,1.9,5.2,2.2
		c0.6,0.1,1.1-0.3,1.2-0.9C20.7,34.4,20.3,33.9,19.7,33.8L19.7,33.8z"/>
	<path class="st0" d="M21,14.4c-0.5,0-0.9,0.4-0.9,0.8c0,0,0,0,0,0v8.5l7.8,4c0.1,0.1,0.3,0.1,0.4,0.1c0.5,0,0.9-0.4,0.8-0.9
		c0-0.3-0.2-0.6-0.5-0.7l-6.9-3.6v-7.5C21.8,14.8,21.5,14.4,21,14.4z"/>
</g>
</svg>
