<?xml version="1.0" encoding="utf-8"?>
<!-- Generator: Adobe Illustrator 25.0.0, SVG Export Plug-In . SVG Version: 6.00 Build 0)  -->
<svg version="1.1" id="Capa_1" xmlns="http://www.w3.org/2000/svg" xmlns:xlink="http://www.w3.org/1999/xlink" x="0px" y="0px"
	 viewBox="0 0 45 45" style="enable-background:new 0 0 45 45;" xml:space="preserve">
<style type="text/css">
	.st0{fill:#CCC48B;}
</style>
<path class="st0" d="M19.3,19.9v-4.1c0-0.7,0.4-1.3,1-1.4c0.8-0.2,1.6,0.2,1.8,1c0,0.1,0.1,0.3,0.1,0.4c0,1,0,2,0,3.1
	c0,0.2,0,0.2,0.2,0.3c0.3,0.1,0.6,0.2,0.8,0.5c0,0.1,0.1,0.1,0.2,0.1c0.4,0,0.7,0.2,1,0.5c0,0.1,0.1,0.1,0.2,0.1
	c0.8,0,1.5,0.6,1.6,1.4c0,0,0,0,0,0.1c0,1,0,2,0,3c0,0.8-0.2,1.6-0.6,2.4c-0.1,0.2-0.2,0.5-0.4,0.7c-0.1,0.2-0.1,0.4-0.2,0.5
	c0,0.4-0.4,0.7-0.7,0.7h-3.8c-0.4,0-0.7-0.3-0.7-0.7c0,0,0,0,0,0c0-0.6-0.2-1.2-0.6-1.7c-0.6-0.9-1-1.8-1.4-2.9
	c-0.1-0.3-0.3-0.7-0.5-1c-0.3-0.5-0.5-1-0.6-1.5c-0.2-0.6,0.1-1.1,0.5-1.5c0.5-0.4,1.1-0.4,1.7-0.1L19.3,19.9z M20.4,18.7L20.4,18.7
	v2.8c0,0.1,0,0.3-0.1,0.4c-0.1,0.1-0.2,0.3-0.4,0.3c-0.3,0.1-0.6-0.1-0.7-0.4c0-0.2-0.1-0.3-0.2-0.5c-0.1-0.3-0.3-0.5-0.6-0.6
	c-0.1-0.1-0.3-0.1-0.5,0c-0.1,0.1-0.2,0.2-0.1,0.4c0,0.1,0,0.2,0,0.2c0.1,0.2,0.1,0.4,0.2,0.6c0.4,0.7,0.7,1.5,1,2.3
	c0.3,0.7,0.6,1.4,1.1,2.1c0.3,0.5,0.5,1,0.6,1.6c0,0.1,0,0.1,0.1,0.1c1,0,2,0,3,0c0.1,0,0.1,0,0.1-0.1c0.2-0.5,0.4-0.9,0.6-1.3
	c0.3-0.5,0.4-1,0.4-1.5v-3.3c0-0.4-0.3-0.5-0.6-0.4l-0.4,0.2c-0.1,0.1-0.2,0.1-0.2-0.1s-0.1-0.2-0.1-0.4c-0.1-0.2-0.3-0.4-0.5-0.3
	c0,0-0.1,0-0.1,0c-0.1,0.1-0.3,0.1-0.5,0.2s-0.1,0-0.2-0.1s-0.1-0.3-0.1-0.5c0-0.2-0.3-0.4-0.5-0.4c0,0-0.1,0-0.1,0l-0.5,0.2
	c-0.2,0.1-0.2,0.1-0.2-0.2V16c0-0.3-0.1-0.5-0.4-0.5s-0.4,0.2-0.4,0.5L20.4,18.7z"/>
<path class="st0" d="M35.6,24.4c-1.4,0-2.6-1.2-2.6-2.6c0-1.5,1.3-2.6,2.7-2.6c1.3,0,2.5,1.1,2.6,2.4c0.1,1.4-1,2.7-2.5,2.8
	C35.7,24.3,35.7,24.4,35.6,24.4z M35.6,23.3c0.9,0.1,1.6-0.6,1.7-1.4c0.1-0.9-0.6-1.6-1.4-1.7c-0.1,0-0.2,0-0.2,0
	c-0.9,0-1.6,0.7-1.6,1.5C34.1,22.6,34.8,23.3,35.6,23.3L35.6,23.3z"/>
<path class="st0" d="M18.9,35.8c0-1.5,1.2-2.6,2.6-2.6c0,0,0,0,0,0c1.5,0,2.6,1.2,2.6,2.6c0,1.5-1.2,2.6-2.6,2.6
	C20.1,38.5,18.9,37.3,18.9,35.8C18.9,35.9,18.9,35.9,18.9,35.8z M21.5,37.4c0.9,0,1.6-0.7,1.6-1.6s-0.7-1.6-1.6-1.6
	c-0.9,0-1.6,0.7-1.6,1.6c0,0,0,0,0,0C20,36.7,20.6,37.4,21.5,37.4z"/>
<path class="st0" d="M11.6,34.3c-1.4,0-2.6-1.1-2.6-2.6c0-1.5,1.1-2.7,2.6-2.7c1.5,0,2.7,1.1,2.7,2.6C14.2,33.1,13.1,34.3,11.6,34.3
	C11.6,34.3,11.6,34.3,11.6,34.3z M13.1,31.7c0-0.9-0.7-1.6-1.6-1.6c-0.9,0-1.6,0.7-1.6,1.6s0.7,1.6,1.6,1.6
	C12.4,33.2,13.1,32.5,13.1,31.7L13.1,31.7z"/>
<path class="st0" d="M31.4,34.3c-1.5,0-2.6-1.2-2.6-2.6c0-1.5,1.2-2.6,2.6-2.6c0,0,0,0,0,0c1.4,0,2.6,1.2,2.6,2.6
	C34,33.1,32.9,34.3,31.4,34.3z M33,31.7c0-0.9-0.7-1.6-1.6-1.6c-0.9,0-1.6,0.7-1.6,1.6c0,0.9,0.7,1.6,1.6,1.6l0,0
	C32.3,33.2,33,32.5,33,31.7z"/>
<path class="st0" d="M7.3,24.4c-1.5,0-2.6-1.2-2.6-2.6c0-1.5,1.1-2.7,2.6-2.7c1.5,0,2.7,1.1,2.7,2.6c0.1,1.4-1,2.7-2.5,2.8
	C7.5,24.3,7.4,24.4,7.3,24.4z M7.3,23.3c0.9,0,1.5-0.7,1.6-1.5c0-0.9-0.7-1.6-1.5-1.6s-1.6,0.7-1.6,1.5c0,0,0,0,0,0
	C5.8,22.6,6.5,23.3,7.3,23.3z"/>
<path class="st0" d="M18.9,7.6c0-1.4,1.2-2.6,2.6-2.6c1.5,0,2.6,1.2,2.6,2.7c0,1.5-1.2,2.6-2.7,2.6l0,0C20,10.3,18.8,9.1,18.9,7.6
	C18.9,7.6,18.9,7.6,18.9,7.6z M21.5,9.1c0.9,0,1.6-0.7,1.6-1.6S22.4,6,21.5,6s-1.6,0.7-1.6,1.6c0,0,0,0,0,0
	C20,8.5,20.6,9.1,21.5,9.1z"/>
<path class="st0" d="M11.6,14.4c-1.5,0-2.6-1.2-2.6-2.7c0,0,0-0.1,0-0.1c0.1-1.5,1.4-2.5,2.9-2.4c1.4,0.1,2.4,1.2,2.4,2.6
	C14.1,13.3,13,14.4,11.6,14.4z M13.1,11.8c0-0.9-0.7-1.5-1.6-1.6c-0.9,0-1.6,0.7-1.6,1.5c0,0,0,0,0,0c0,0.9,0.7,1.6,1.6,1.6
	C12.4,13.3,13.1,12.6,13.1,11.8L13.1,11.8z"/>
<path class="st0" d="M31.5,9.1c1.5,0,2.6,1.2,2.6,2.7c0,0,0,0,0,0c-0.1,1.5-1.3,2.6-2.8,2.5c-1.3-0.1-2.4-1.1-2.5-2.5
	C28.8,10.4,29.9,9.2,31.5,9.1C31.4,9.1,31.4,9.1,31.5,9.1z M31.5,10.2c-0.9,0-1.6,0.7-1.6,1.5c0,0,0,0,0,0c0,0.9,0.7,1.5,1.5,1.6
	c0.9,0,1.6-0.7,1.6-1.6C33,10.9,32.3,10.2,31.5,10.2L31.5,10.2z"/>
</svg>
