<?xml version="1.0" encoding="utf-8"?>
<!-- Generator: Adobe Illustrator 25.0.0, SVG Export Plug-In . SVG Version: 6.00 Build 0)  -->
<svg version="1.1" id="Capa_1" xmlns="http://www.w3.org/2000/svg" xmlns:xlink="http://www.w3.org/1999/xlink" x="0px" y="0px"
	 viewBox="0 0 45 45" style="enable-background:new 0 0 45 45;" xml:space="preserve">
<style type="text/css">
	.st0{fill:#CCC48B;}
</style>
<path class="st0" d="M37.5,22.3c-0.1,0.2-0.3,0.4-0.4,0.5C31.4,28.5,25.7,34.2,20,39.9c-0.4,0.5-1.1,0.6-1.5,0.2
	c-0.1-0.1-0.1-0.1-0.2-0.2c-0.8-0.8-1.6-1.7-2.5-2.5c-0.4-0.3-0.5-0.9-0.2-1.4c0.1-0.1,0.2-0.2,0.3-0.3c0.9-0.8,1.2-2,0.9-3.1
	c-0.2-1.2-1.2-2.1-2.4-2.3c-1.1-0.2-2.2,0.1-2.9,1c-0.3,0.4-1,0.5-1.4,0.2c-0.1,0-0.1-0.1-0.2-0.1c-0.9-0.9-1.8-1.8-2.7-2.7
	c-0.4-0.4-0.4-1-0.1-1.4c0,0,0,0,0.1-0.1L24.5,10c0.2-0.1,0.3-0.2,0.5-0.3h0.7c0.1,0.1,0.2,0.2,0.3,0.3c0.9,0.9,1.8,1.8,2.7,2.7
	c0.3,0.3,0.4,0.9,0.1,1.3l-0.2,0.3c-0.9,1.4-0.6,3.3,0.8,4.3c0.1,0,0.1,0.1,0.2,0.1c1,0.7,2.4,0.6,3.4-0.1c0.8-0.5,1.1-0.5,1.7,0.2
	L37,21c0.2,0.2,0.4,0.4,0.5,0.6L37.5,22.3z M25.4,26.6c0.1-0.4-0.1-0.6-0.5-0.8c-0.2-0.1-0.3-0.2-0.3-0.4c0-0.4-0.2-0.5-0.5-0.2
	c-0.1,0.1-0.1,0.1-0.2,0s-0.5-0.2-0.5-0.5s-0.3-0.4-0.5-0.2c-0.2,0.1-0.5,0-0.6-0.2c0,0,0-0.1,0-0.1c0-0.4-0.1-0.8-0.1-1.2
	c-0.1-0.5-0.2-1-0.3-1.5c-0.1-0.2-0.2-0.4-0.4-0.4s-0.4,0.2-0.5,0.4c-0.1,0.3-0.2,0.6-0.2,0.9c-0.1,0.6-0.2,1.1-0.2,1.7
	c0,0.3-0.4,0.6-0.6,0.4c-0.4-0.2-0.5-0.1-0.6,0.3c-0.1,0.3-0.3,0.4-0.6,0.4c0,0-0.1,0-0.1,0c-0.3-0.2-0.5-0.1-0.5,0.3
	c0,0.2,0,0.3-0.2,0.4c-0.4,0.1-0.6,0.5-0.5,0.9c0,0,0,0,0,0v0.1c0,0.5,0,0.5,0.5,0.4l2.3-0.8c0.2-0.1,0.3-0.1,0.4,0.2
	c0,0.7,0.1,1.3,0.2,2c0.1,0.5,0.1,0.5-0.3,0.7l-1,0.5c-0.2,0.1-0.2,0.4-0.1,0.6s0.2,0,0.4,0c0.4-0.1,0.7-0.2,1-0.4s0.4-0.2,0.6,0
	c0.1,0.1,0.2,0.1,0.3,0c0.1-0.1,0.3-0.1,0.4,0l1.3,0.5c0.1,0,0.3,0.1,0.3-0.1s0.1-0.5-0.2-0.6s-0.7-0.4-1.1-0.6
	C22,29.1,22,28.9,22,28.8c0.1-0.7,0.2-1.4,0.2-2.2c0-0.3,0-0.4,0.4-0.2l2.1,0.7C25.4,27.4,25.4,27.4,25.4,26.6z M30.8,24.9
	c0.5,0,0.9-0.4,0.9-0.8c0,0,0,0,0-0.1c0-0.3-0.1-0.6-0.4-0.8L24,15.9c-0.1-0.1-0.1-0.1-0.2-0.2c-0.3-0.2-0.7-0.3-1-0.1
	c-0.3,0.1-0.5,0.5-0.5,0.8c0,0.3,0.2,0.6,0.4,0.8c1.9,1.9,3.9,3.9,5.8,5.8c0.5,0.5,1,1,1.5,1.5C30.2,24.8,30.5,24.9,30.8,24.9z"/>
</svg>
